{"glyphs":{"0":{"ha":694,"x_min":42,"x_max":665,"o":"m 282 -11 q 203 -3 242 -11 q 134 26 165 6 q 82 78 103 47 q 52 147 61 110 q 43 224 43 185 q 50 304 43 264 l 126 769 q 144 839 133 804 q 176 905 156 874 q 224 962 196 936 q 285 1003 251 988 q 354 1026 318 1019 q 425 1032 390 1032 q 503 1024 465 1032 q 573 994 542 1015 q 625 942 604 974 q 655 874 646 911 q 664 797 664 836 q 657 717 664 757 l 581 251 q 563 182 575 217 q 531 116 551 147 q 483 59 511 85 q 422 17 456 33 q 353 -5 389 1 q 282 -11 317 -11 m 183 443 l 544 699 l 550 732 q 556 781 554 757 q 553 828 557 806 q 538 872 549 851 q 511 908 528 893 q 472 928 494 922 q 424 935 449 935 q 378 930 401 935 q 333 913 354 925 q 294 883 311 901 q 264 844 276 865 q 244 799 251 822 q 235 754 238 776 l 183 443 m 283 86 q 329 91 306 86 q 374 108 353 96 q 413 138 396 119 q 443 177 431 156 q 463 222 456 199 q 472 267 469 244 l 525 578 l 163 322 l 157 289 q 151 240 153 264 q 154 192 150 215 q 169 149 158 169 q 196 113 179 128 q 235 92 213 99 q 283 86 258 86 z "},"1":{"ha":694,"x_min":138,"x_max":535,"o":"m 257 0 l 406 897 l 193 750 l 139 821 l 425 1021 l 533 1021 l 365 0 l 257 0 z "},"2":{"ha":694,"x_min":10,"x_max":663,"o":"m 11 0 l 11 1 q 24 76 17 39 q 44 149 32 113 q 74 222 57 186 q 115 290 92 257 q 167 351 139 322 q 226 406 194 381 q 290 454 257 432 q 358 498 324 476 q 426 544 393 519 q 483 601 458 569 q 524 668 508 632 q 546 742 540 704 l 546 743 q 551 790 550 767 q 549 835 553 813 q 533 876 544 857 q 506 910 522 896 q 467 929 489 924 q 421 935 444 935 q 358 924 390 935 q 301 889 325 913 q 264 835 278 865 q 244 774 250 804 l 244 771 l 136 771 l 136 775 q 154 842 142 808 q 186 906 167 875 q 233 961 206 936 q 294 1003 261 986 q 361 1026 326 1019 q 429 1032 396 1032 q 506 1024 468 1032 q 573 996 543 1015 q 623 946 603 976 q 652 879 643 915 q 660 804 661 843 q 653 726 660 765 q 624 631 646 678 q 569 543 603 583 q 492 471 535 503 q 404 410 449 439 q 317 349 360 381 q 240 277 275 317 q 178 192 204 238 q 139 97 153 146 l 543 97 l 528 0 l 11 0 z "},"3":{"ha":694,"x_min":29,"x_max":660,"o":"m 282 -11 q 213 -6 247 -11 q 147 13 178 -1 q 90 49 115 26 q 51 102 65 72 q 34 167 38 132 q 36 239 31 203 l 39 250 l 147 250 l 146 243 q 147 178 140 210 q 175 126 154 147 q 227 95 196 104 q 292 86 258 86 q 360 98 325 86 q 422 135 394 110 q 463 195 449 161 q 483 263 478 229 q 487 321 488 292 q 477 376 486 350 q 451 424 468 403 q 409 459 433 446 q 356 476 385 472 q 297 479 326 479 l 313 576 q 365 578 338 576 q 417 591 392 581 q 465 619 442 601 q 504 659 488 636 q 531 708 521 682 q 544 758 540 733 q 547 824 550 792 q 529 882 544 856 q 485 922 514 908 q 424 935 457 935 q 363 923 393 935 q 310 888 332 911 q 274 834 288 864 q 256 774 261 804 l 256 771 l 147 771 l 147 775 q 165 841 153 808 q 197 904 178 874 q 242 960 215 935 q 299 1001 268 985 q 365 1025 331 1018 q 432 1032 399 1032 q 504 1024 469 1032 q 567 999 539 1017 q 615 952 596 981 q 644 890 635 924 q 656 822 654 857 q 653 749 658 786 q 632 679 647 714 q 592 615 617 644 q 537 562 568 585 q 469 526 506 539 q 534 478 507 508 q 576 411 561 449 q 594 331 590 374 q 590 246 597 289 q 572 176 585 211 q 537 111 558 142 q 486 56 515 81 q 423 17 457 32 q 353 -5 389 1 q 282 -11 317 -11 z "},"4":{"ha":694,"x_min":43,"x_max":613,"o":"m 439 0 l 331 0 l 375 269 l 44 269 l 60 367 l 492 1021 l 611 1021 l 179 367 l 390 367 l 432 617 l 540 617 l 499 367 l 588 367 l 572 269 l 483 269 l 439 0 z "},"5":{"ha":694,"x_min":42,"x_max":671,"o":"m 282 -11 q 213 -6 247 -11 q 149 15 179 0 q 97 53 119 29 q 62 108 75 78 q 45 173 49 139 q 49 242 42 207 l 157 242 q 158 181 151 211 q 182 128 164 150 q 230 96 200 106 q 290 86 260 86 q 343 95 317 86 q 391 123 369 104 q 428 165 413 142 q 453 214 443 189 q 470 265 464 239 q 481 317 476 292 q 488 372 486 344 q 489 427 490 400 q 480 479 488 454 q 457 525 472 504 q 417 556 442 546 q 365 567 393 567 q 313 561 339 567 q 264 540 288 556 q 225 501 240 525 q 204 451 210 478 l 94 451 l 188 1021 l 669 1021 l 654 924 l 282 924 l 233 635 q 303 658 267 651 q 374 664 339 664 q 456 652 417 664 q 525 613 496 640 q 571 549 554 586 q 594 472 588 513 q 598 388 600 431 q 589 303 596 346 q 572 226 582 264 q 542 152 561 188 q 496 85 524 117 q 434 31 468 53 q 360 -1 400 8 q 282 -11 321 -11 z "},"6":{"ha":694,"x_min":44,"x_max":596,"o":"m 283 -11 q 201 -1 240 -11 q 131 33 161 10 q 81 92 100 57 q 53 166 61 126 q 46 248 44 206 q 54 332 47 290 q 87 453 65 393 q 138 569 108 513 q 203 681 167 626 q 276 790 239 736 l 278 792 l 278 793 l 435 1021 l 561 1021 l 364 733 l 364 732 q 310 652 336 692 q 258 571 283 613 q 326 608 289 596 q 400 621 364 621 q 475 608 439 621 q 535 569 511 596 q 574 508 560 543 q 592 434 588 472 q 594 357 596 396 q 585 278 592 318 q 568 206 579 242 q 538 135 557 169 q 490 72 518 101 q 428 24 463 43 q 357 -3 394 4 q 283 -11 319 -11 m 283 86 q 333 93 308 86 q 381 115 358 100 q 419 151 403 129 q 448 195 436 172 q 467 243 460 218 q 478 293 474 268 l 478 294 q 484 347 482 321 q 483 398 486 372 q 472 447 481 424 q 447 489 463 471 q 406 515 431 507 q 356 524 382 524 q 296 514 326 524 q 241 483 265 504 q 200 435 217 463 q 175 379 183 408 q 167 349 171 364 q 163 318 164 333 l 161 317 q 155 264 157 290 q 156 212 153 238 q 167 163 158 186 q 192 121 176 139 q 233 94 208 103 q 283 86 257 86 z "},"7":{"ha":694,"x_min":118,"x_max":697,"o":"m 238 0 l 119 0 l 563 924 l 164 924 l 179 1021 l 696 1021 l 681 924 l 238 0 z "},"8":{"ha":694,"x_min":35,"x_max":653,"o":"m 282 -11 q 211 -6 246 -11 q 145 15 176 0 q 90 56 114 31 q 54 112 67 81 q 38 179 42 143 q 42 251 35 215 q 70 338 49 296 q 124 416 92 381 q 195 480 157 451 q 274 533 233 508 q 223 593 247 561 q 182 662 199 625 q 158 740 165 699 q 157 825 150 782 q 188 910 164 868 q 251 981 213 953 q 335 1021 289 1010 q 425 1032 381 1032 q 492 1026 460 1032 q 553 1005 525 1019 q 603 966 582 990 q 635 911 624 942 q 650 847 647 881 q 647 779 653 813 q 621 699 640 739 q 574 626 601 660 q 512 565 546 593 q 440 514 478 538 q 497 451 469 483 q 544 379 525 418 q 572 297 563 340 q 572 206 581 253 q 554 144 568 175 q 519 86 540 113 q 469 40 497 60 q 409 9 440 21 q 346 -7 378 -3 q 282 -11 314 -11 m 367 586 q 425 624 396 603 q 478 671 454 644 q 517 728 501 697 q 539 792 533 758 q 539 847 543 819 q 519 894 535 874 q 478 925 504 915 q 424 935 453 935 q 369 928 397 935 q 319 903 342 921 q 282 860 296 886 q 264 808 268 835 q 265 742 258 774 q 288 683 272 710 q 324 631 304 656 q 367 586 343 607 m 283 86 q 344 93 313 86 q 401 118 375 100 q 445 165 428 136 q 467 222 463 193 q 464 294 474 260 q 437 358 454 328 q 397 413 419 388 q 349 461 374 438 q 281 420 314 442 q 222 371 249 399 q 174 309 194 343 q 147 239 153 275 q 149 178 143 208 q 174 126 154 147 q 222 95 193 104 q 283 86 251 86 z "},"9":{"ha":694,"x_min":111,"x_max":663,"o":"m 272 0 l 146 0 l 340 285 q 342 286 342 285 l 343 289 q 397 369 371 329 q 449 450 424 408 q 381 413 418 425 q 307 400 343 400 q 232 413 268 400 q 172 451 196 425 q 133 513 147 478 q 115 587 119 549 q 113 664 111 625 q 122 743 115 703 q 140 815 129 779 q 169 885 150 851 q 217 949 189 919 q 278 997 244 978 q 350 1024 313 1017 q 424 1032 388 1032 q 506 1022 467 1032 q 577 988 546 1011 q 627 929 608 964 q 654 855 646 894 q 661 773 663 815 q 653 689 660 731 q 621 568 643 628 q 569 451 599 508 q 504 340 540 394 q 431 231 468 285 l 429 229 l 429 228 l 272 0 m 351 497 q 411 507 381 497 q 466 538 442 517 q 507 585 490 558 q 532 642 524 613 q 540 672 536 657 q 544 703 543 688 l 546 704 q 552 757 550 731 q 551 809 554 783 q 540 858 549 835 q 515 900 531 882 q 474 926 499 918 q 424 935 450 935 q 374 928 399 935 q 326 906 349 921 q 288 870 304 892 q 259 826 271 849 q 240 778 247 803 q 229 728 233 753 l 229 726 q 223 674 225 700 q 224 623 221 649 q 235 574 226 597 q 260 532 244 550 q 301 506 276 514 q 351 497 325 497 z "},"\r":{"ha":0,"x_min":0,"x_max":0,"o":""}," ":{"ha":694,"x_min":0,"x_max":0,"o":""},"!":{"ha":694,"x_min":183,"x_max":493,"o":"m 275 361 l 383 1021 l 492 1021 l 383 361 l 275 361 m 283 -11 q 238 -3 260 -11 q 204 23 217 6 q 188 64 192 40 q 188 111 183 88 q 198 142 190 126 q 220 167 206 157 q 251 181 235 178 q 283 185 268 185 q 328 176 307 185 q 363 151 350 168 q 380 110 376 133 q 379 63 383 86 q 369 32 376 47 q 347 6 361 17 q 315 -8 332 -4 q 283 -11 299 -11 z "},"\"":{"ha":694,"x_min":179,"x_max":646,"o":"m 181 614 q 212 842 194 728 q 249 1072 229 957 l 368 1072 q 327 842 349 957 q 283 614 306 728 l 181 614 m 458 614 q 490 842 472 728 q 526 1072 507 957 l 646 1072 q 605 842 626 957 q 561 614 583 728 l 458 614 z "},"#":{"ha":694,"x_min":8,"x_max":699,"o":"m 90 25 l 131 268 l 10 268 l 25 365 l 146 365 l 194 656 l 74 656 l 89 753 l 210 753 l 250 996 l 353 996 l 313 753 l 474 753 l 514 996 l 617 996 l 576 753 l 697 753 l 682 656 l 561 656 l 513 365 l 633 365 l 618 268 l 497 268 l 457 25 l 354 25 l 394 268 l 233 268 l 193 25 l 90 25 m 410 365 l 458 656 l 297 656 l 249 365 l 410 365 z "},"$":{"ha":694,"x_min":36,"x_max":660,"o":"m 193 -149 l 225 43 q 142 69 182 50 q 78 122 103 88 q 45 199 53 156 q 44 288 38 243 l 47 301 l 156 301 l 154 293 q 152 241 149 267 q 168 194 156 215 q 201 160 181 174 q 249 142 222 146 l 303 476 q 231 526 264 497 q 174 592 197 554 q 140 674 150 629 q 138 767 129 719 q 165 848 144 808 q 220 917 186 888 q 297 960 254 946 q 379 979 339 975 l 411 1171 l 514 1171 l 482 976 q 561 951 524 971 q 622 897 599 931 q 652 819 646 863 q 651 733 658 776 l 649 719 l 540 719 l 542 728 q 544 778 546 753 q 531 824 542 803 q 501 859 519 844 q 460 879 483 874 l 404 550 q 481 501 446 529 q 542 434 517 472 q 578 350 567 396 q 581 254 589 304 q 551 172 574 213 q 492 103 528 132 q 413 59 456 74 q 328 42 369 44 l 296 -149 l 193 -149 m 322 593 l 371 881 q 326 865 347 876 q 286 836 304 854 q 258 796 268 818 q 243 751 247 774 q 244 703 239 726 q 260 658 249 679 q 288 622 271 638 q 322 593 304 606 m 336 140 q 384 155 361 144 q 427 183 407 165 q 459 223 447 200 q 475 269 471 246 q 474 322 479 296 q 456 368 468 347 q 425 405 443 389 q 385 433 407 421 l 336 140 z "},"%":{"ha":694,"x_min":-35,"x_max":742,"o":"m 214 500 q 148 508 181 500 q 93 538 115 517 q 65 592 71 560 q 64 660 58 625 l 104 899 q 124 955 108 928 q 163 1000 139 982 q 217 1025 188 1018 q 275 1032 247 1032 q 341 1024 308 1032 q 395 993 374 1015 q 424 938 417 971 q 425 872 431 906 l 385 632 q 365 577 381 604 q 326 532 350 550 q 272 507 301 514 q 214 500 242 500 m 524 599 l 419 599 l 628 1021 l 740 1021 l 524 599 m 215 586 q 240 590 228 586 q 264 601 253 593 q 281 622 275 610 q 290 646 288 633 l 329 886 q 330 910 332 899 q 319 931 328 922 q 299 942 311 939 q 274 946 286 946 q 249 942 261 946 q 225 931 236 939 q 208 910 214 922 q 199 885 201 897 l 160 646 q 159 621 157 633 q 169 600 161 608 q 190 589 178 592 q 215 586 203 586 m 432 -11 q 366 -3 399 -11 q 312 28 333 6 q 283 83 290 50 q 282 149 276 115 l 322 389 q 342 444 326 417 q 381 489 357 471 q 435 514 406 507 q 493 521 465 521 q 559 513 526 521 q 614 483 592 504 q 642 428 636 461 q 643 361 649 396 l 603 122 q 583 66 599 93 q 544 21 568 39 q 490 -4 519 3 q 432 -11 460 -11 m 433 75 q 458 78 446 75 q 482 90 471 82 q 499 111 493 99 q 508 136 506 124 l 547 375 q 548 400 550 388 q 538 421 546 413 q 517 432 529 429 q 493 435 506 435 q 467 431 481 435 q 443 419 454 428 q 426 399 432 411 q 417 375 419 388 l 378 135 q 377 110 375 122 q 388 90 379 99 q 408 78 396 82 q 433 75 421 75 m -33 0 l 183 422 l 288 422 l 79 0 l -33 0 z "},"&":{"ha":694,"x_min":38,"x_max":661,"o":"m 246 -11 q 176 -2 210 -11 q 117 27 143 7 q 74 76 90 47 q 49 139 57 106 q 40 207 42 172 q 44 278 39 242 q 69 359 51 319 q 114 434 86 399 q 176 499 142 469 q 246 554 210 528 q 216 621 231 588 q 190 690 201 654 q 174 764 179 726 q 175 842 168 801 q 200 916 182 879 q 249 981 218 953 q 320 1020 281 1008 q 397 1032 360 1032 q 456 1026 428 1032 q 508 1003 485 1019 q 549 965 532 988 q 573 914 565 942 q 582 856 581 886 q 578 794 583 825 q 553 714 572 754 q 506 639 533 674 q 443 576 478 604 q 371 522 408 547 q 377 506 374 514 q 383 492 381 499 l 468 283 l 549 429 l 661 429 l 542 215 q 529 191 536 203 q 517 168 522 179 l 585 0 l 474 0 l 439 85 q 388 35 417 57 q 325 1 358 14 q 285 -8 306 -4 q 246 -11 265 -11 m 332 613 l 332 614 q 381 653 357 632 q 424 698 404 674 q 458 751 444 722 q 475 807 471 779 q 478 853 479 831 q 467 896 476 876 q 439 926 458 915 q 396 938 419 938 q 354 930 375 938 q 317 906 333 922 q 292 867 301 889 q 278 825 282 846 q 278 768 274 796 q 290 714 282 740 q 309 663 299 688 q 332 613 319 638 m 272 83 q 310 90 292 83 q 347 110 329 97 q 378 138 364 122 q 403 171 392 154 l 286 456 q 286 458 286 457 q 285 461 286 460 q 238 422 261 443 q 196 376 214 400 q 165 324 178 351 q 147 267 153 296 q 145 222 144 244 q 151 179 146 200 q 165 140 156 158 q 191 108 175 121 q 228 89 207 94 q 272 83 249 83 z "},"'":{"ha":694,"x_min":318,"x_max":507,"o":"m 319 614 q 351 842 333 728 q 388 1072 368 957 l 507 1072 q 466 842 488 957 q 422 614 444 728 l 319 614 z "},"(":{"ha":694,"x_min":140,"x_max":682,"o":"m 400 -224 q 301 -145 346 -190 q 225 -45 257 -100 q 174 72 193 10 q 147 201 154 135 q 144 335 140 267 q 160 472 149 404 q 190 609 171 540 q 238 744 210 678 q 306 872 265 810 q 396 990 346 935 q 506 1090 446 1044 q 631 1168 565 1135 l 682 1082 q 521 967 594 1036 q 395 814 447 897 q 312 640 343 731 q 265 457 281 549 q 251 283 251 369 q 274 116 251 196 q 343 -31 296 36 q 458 -142 390 -97 l 400 -224 z "},")":{"ha":694,"x_min":13,"x_max":554,"o":"m 64 -224 l 13 -137 q 174 -22 100 -92 q 299 131 247 47 q 383 305 351 214 q 429 488 414 396 q 443 662 443 575 q 421 828 443 749 q 351 975 399 908 q 236 1086 304 1042 l 294 1168 q 393 1090 349 1135 q 469 990 438 1044 q 521 872 501 935 q 547 744 540 810 q 550 609 554 678 q 535 472 546 540 q 504 335 524 404 q 457 201 485 267 q 389 72 429 135 q 299 -45 349 10 q 189 -145 249 -100 q 64 -224 129 -190 z "},"*":{"ha":694,"x_min":128,"x_max":718,"o":"m 238 574 l 158 638 l 335 824 l 128 886 l 163 978 l 372 897 l 404 1142 l 510 1125 l 464 903 l 685 978 l 717 885 l 472 818 l 588 629 l 493 582 l 400 767 l 238 574 z "},"+":{"ha":694,"x_min":81,"x_max":614,"o":"m 251 204 l 289 426 l 82 426 l 96 518 l 303 518 l 340 740 l 443 740 l 406 518 l 613 518 l 599 426 l 392 426 l 354 204 l 251 204 z "},",":{"ha":694,"x_min":99,"x_max":378,"o":"m 171 -299 l 100 -225 q 197 -128 153 -182 q 264 -11 240 -74 q 222 -3 243 -11 q 188 19 201 4 q 167 54 174 33 q 160 97 161 75 q 162 110 161 104 q 163 124 163 117 q 176 158 167 142 q 200 186 185 175 q 233 201 215 197 q 268 206 250 206 q 322 194 296 206 q 362 161 349 183 q 376 110 375 139 q 372 54 376 82 q 347 -44 364 4 q 304 -136 331 -92 q 244 -222 278 -181 q 171 -299 210 -262 z "},"-":{"ha":694,"x_min":81,"x_max":614,"o":"m 597 424 l 81 424 l 97 521 l 614 521 l 597 424 z "},".":{"ha":694,"x_min":174,"x_max":397,"o":"m 285 -11 q 236 -2 260 -11 q 197 26 213 7 q 178 72 182 46 q 178 124 174 97 q 192 158 182 142 q 216 186 201 175 q 249 201 231 197 q 285 206 267 206 q 334 197 310 206 q 373 168 358 188 q 392 123 388 149 q 392 71 396 97 q 379 36 389 53 q 354 8 369 19 q 321 -7 339 -3 q 285 -11 303 -11 z "},"/":{"ha":694,"x_min":-29,"x_max":724,"o":"m 82 -199 l -29 -199 l 613 1143 l 724 1143 l 82 -199 z "},":":{"ha":694,"x_min":174,"x_max":485,"o":"m 285 -11 q 236 -2 260 -11 q 197 26 213 7 q 178 72 182 46 q 178 124 174 97 q 192 158 182 142 q 216 186 201 175 q 249 201 231 197 q 285 206 267 206 q 334 197 310 206 q 373 168 358 188 q 392 123 388 149 q 392 71 396 97 q 379 36 389 53 q 354 8 369 19 q 321 -7 339 -3 q 285 -11 303 -11 m 372 517 q 323 526 347 517 q 284 554 299 535 q 265 599 269 574 q 265 651 261 625 q 278 686 269 669 q 303 714 288 703 q 336 729 318 725 q 372 733 354 733 q 422 724 397 733 q 460 696 446 715 q 479 651 475 676 q 479 599 483 625 q 467 564 476 581 q 442 536 457 547 q 408 521 426 525 q 372 517 390 517 z "},";":{"ha":694,"x_min":99,"x_max":485,"o":"m 171 -299 l 100 -225 q 197 -128 153 -182 q 264 -11 240 -74 q 222 -3 243 -11 q 188 19 201 4 q 167 54 174 33 q 160 97 161 75 q 162 110 161 104 q 163 124 163 117 q 176 158 167 142 q 200 186 185 175 q 233 201 215 197 q 268 206 250 206 q 322 194 296 206 q 362 161 349 183 q 376 110 375 139 q 372 54 376 82 q 347 -44 364 4 q 304 -136 331 -92 q 244 -222 278 -181 q 171 -299 210 -262 m 372 517 q 323 526 347 517 q 284 554 299 535 q 265 599 269 574 q 265 651 261 625 q 278 686 269 669 q 303 714 288 703 q 336 729 318 725 q 372 733 354 733 q 422 724 397 733 q 460 696 446 715 q 479 651 475 676 q 479 599 483 625 q 467 564 476 581 q 442 536 457 547 q 408 521 426 525 q 372 517 390 517 z "},"<":{"ha":694,"x_min":79,"x_max":685,"o":"m 525 117 l 81 418 l 97 526 l 633 831 l 683 750 l 178 472 l 582 192 l 525 117 z "},"=":{"ha":694,"x_min":60,"x_max":635,"o":"m 618 550 l 101 550 l 117 642 l 633 642 l 618 550 m 578 303 l 61 303 l 76 394 l 593 394 l 578 303 z "},">":{"ha":694,"x_min":10,"x_max":615,"o":"m 61 114 l 11 194 l 517 472 l 113 753 l 169 828 l 614 526 l 597 418 l 61 114 z "},"?":{"ha":694,"x_min":135,"x_max":661,"o":"m 264 307 q 278 372 269 339 q 301 438 286 406 q 338 499 317 469 q 384 554 360 528 q 435 606 408 581 q 485 658 461 631 q 526 717 508 685 q 549 782 543 749 q 549 842 554 813 q 525 894 543 872 q 478 925 507 915 q 418 935 450 935 q 357 924 388 935 q 302 890 326 914 q 264 837 278 867 q 244 776 250 807 l 244 771 l 136 771 l 138 781 q 156 847 143 814 q 188 909 168 879 q 234 963 207 939 q 293 1003 261 988 q 360 1026 325 1019 q 428 1032 394 1032 q 497 1026 463 1032 q 560 1003 531 1019 q 611 962 589 988 q 645 905 633 936 q 658 838 657 874 q 654 767 660 803 q 638 703 649 735 q 609 641 626 671 q 569 583 592 611 q 522 531 547 556 q 471 483 497 506 q 424 431 444 460 q 392 371 403 403 q 375 307 381 339 l 264 307 m 283 -11 q 238 -3 260 -11 q 204 23 217 6 q 188 64 192 40 q 188 111 183 88 q 198 142 190 126 q 220 167 206 157 q 251 181 235 178 q 283 185 268 185 q 328 176 307 185 q 363 151 350 168 q 380 110 376 133 q 379 63 383 86 q 369 32 376 47 q 347 6 361 17 q 315 -8 332 -4 q 283 -11 299 -11 z "},"@":{"ha":694,"x_min":35,"x_max":660,"o":"m 475 -107 l 267 -107 q 190 -99 228 -107 q 123 -69 153 -90 q 73 -18 93 -49 q 44 49 53 13 q 37 124 36 85 q 44 203 38 163 l 143 796 q 159 863 149 829 q 189 926 169 896 q 235 982 208 957 q 294 1023 263 1007 q 360 1045 326 1039 q 426 1051 393 1051 q 499 1044 464 1051 q 564 1018 535 1036 q 614 972 593 1000 q 645 911 635 944 q 658 841 656 878 q 654 767 660 804 l 576 293 q 558 230 571 261 q 524 173 546 199 q 469 134 501 147 q 406 121 438 121 q 356 127 381 121 q 314 148 332 133 q 284 184 296 163 q 268 229 272 206 q 265 278 264 253 q 269 329 265 304 l 314 594 q 326 641 317 618 q 349 685 335 664 q 383 722 363 706 q 425 749 403 739 q 472 763 447 760 q 519 767 496 767 l 557 767 q 560 836 563 801 q 540 899 557 871 q 492 940 522 926 q 426 954 461 954 q 381 950 404 954 q 338 935 358 946 q 299 906 317 924 q 268 869 281 889 q 249 826 256 849 q 238 782 242 804 l 139 188 q 133 140 135 164 q 137 93 132 115 q 152 51 142 71 q 180 17 163 31 q 220 -3 197 3 q 268 -10 243 -10 l 476 -10 l 475 -107 m 406 207 q 436 218 421 207 q 460 244 451 229 q 474 275 469 258 q 481 307 478 292 l 543 681 l 519 681 q 479 674 500 681 q 444 653 458 668 q 420 619 429 639 q 408 581 411 600 l 364 315 q 360 281 361 299 q 363 248 360 264 q 377 219 367 232 q 406 207 388 207 z "},"A":{"ha":694,"x_min":-18,"x_max":556,"o":"m -17 0 l 375 1021 l 500 1021 l 556 0 l 443 0 l 433 264 l 192 264 l 96 0 l -17 0 m 429 361 l 417 681 q 414 769 415 725 q 411 856 413 813 q 379 769 396 813 q 347 681 363 725 l 229 361 l 429 361 z "},"B":{"ha":694,"x_min":10,"x_max":642,"o":"m 261 0 l 11 0 l 179 1021 l 399 1021 q 474 1014 436 1021 q 542 989 511 1007 q 595 942 572 971 q 628 879 618 914 q 640 806 639 844 q 635 729 640 768 q 617 665 629 697 q 585 606 606 633 q 535 558 564 579 q 474 526 506 538 q 537 483 508 510 q 581 422 565 457 q 599 345 597 386 q 593 263 600 304 q 574 190 588 226 q 535 121 560 153 q 479 65 511 89 q 410 26 447 40 q 336 6 374 11 q 261 0 299 0 m 217 578 l 344 578 q 410 588 376 578 q 469 622 443 599 q 508 678 494 646 q 526 743 521 710 q 529 810 532 776 q 510 871 526 844 q 464 910 494 897 q 399 924 433 924 l 274 924 l 217 578 m 136 97 l 260 97 q 312 101 286 97 q 363 116 338 106 q 411 143 389 126 q 449 182 433 160 q 474 230 465 204 q 486 281 482 256 q 491 333 490 307 q 483 384 492 360 q 458 428 474 408 q 422 459 443 447 q 374 476 400 471 q 321 481 349 481 l 200 481 l 136 97 z "},"C":{"ha":694,"x_min":40,"x_max":667,"o":"m 286 -11 q 208 -3 246 -11 q 138 24 169 4 q 85 74 107 44 q 52 141 63 104 q 42 217 42 178 q 49 297 42 257 l 128 776 q 145 845 133 811 q 177 910 157 879 q 226 965 197 940 q 287 1004 254 989 q 355 1026 319 1019 q 425 1032 390 1032 q 493 1026 460 1032 q 556 1007 526 1021 q 610 970 586 993 q 646 917 633 947 q 662 853 658 888 q 660 783 665 819 l 658 771 l 550 771 l 551 779 q 551 842 556 811 q 526 894 546 872 q 477 926 507 917 q 415 935 447 935 q 349 922 383 935 q 291 884 315 910 q 253 826 267 858 q 235 761 240 794 l 156 282 q 151 233 151 257 q 156 185 150 208 q 173 143 161 163 q 204 110 185 124 q 247 92 224 97 q 294 86 271 86 q 361 98 328 86 q 420 134 394 110 q 463 190 446 158 q 488 253 479 221 l 589 229 q 547 134 575 181 q 478 53 519 88 q 387 4 438 19 q 286 -11 336 -11 z "},"D":{"ha":694,"x_min":10,"x_max":661,"o":"m 246 0 l 11 0 l 179 1021 l 382 1021 q 469 1013 426 1021 q 547 986 511 1006 q 608 935 582 967 q 647 865 633 904 q 660 783 660 826 q 654 696 661 740 l 583 271 q 564 196 578 233 q 526 126 550 158 q 468 67 501 93 q 397 26 435 42 q 322 6 360 11 q 246 0 283 0 m 136 97 l 244 97 q 297 101 271 97 q 350 117 324 106 q 399 145 376 128 q 438 185 421 163 q 463 235 454 208 q 476 288 472 261 l 547 713 q 551 767 551 739 q 544 819 551 794 q 522 865 538 844 q 485 899 507 886 q 437 918 463 913 q 383 924 411 924 l 274 924 l 136 97 z "},"E":{"ha":694,"x_min":21,"x_max":697,"o":"m 22 0 l 190 1021 l 696 1021 l 681 924 l 285 924 l 228 579 l 546 579 l 529 482 l 211 482 l 147 97 l 543 97 l 528 0 l 22 0 z "},"F":{"ha":694,"x_min":54,"x_max":697,"o":"m 56 0 l 224 1021 l 696 1021 l 681 924 l 318 924 l 261 579 l 546 579 l 529 482 l 244 482 l 165 0 l 56 0 z "},"G":{"ha":694,"x_min":39,"x_max":667,"o":"m 233 -11 q 163 -1 197 -11 q 104 33 129 10 q 65 87 79 56 q 44 153 50 118 q 41 224 39 188 q 49 297 43 261 l 128 776 q 145 845 133 811 q 177 910 157 879 q 226 965 197 940 q 287 1004 254 989 q 355 1026 319 1019 q 425 1032 390 1032 q 493 1026 460 1032 q 556 1007 526 1021 q 610 970 586 993 q 646 917 633 947 q 662 853 658 888 q 660 783 665 819 l 658 771 l 550 771 l 551 779 q 551 842 556 811 q 526 894 546 872 q 477 926 507 917 q 415 935 447 935 q 350 922 383 935 q 292 884 317 910 q 253 826 267 858 q 235 761 240 794 l 156 282 q 151 235 153 258 q 154 189 150 211 q 168 147 158 167 q 194 113 178 126 q 232 92 210 99 q 278 86 254 86 q 342 96 310 86 q 399 128 374 106 q 439 182 425 151 q 458 244 453 213 l 493 458 l 344 458 l 361 556 l 619 556 l 528 0 l 429 0 l 453 144 q 417 82 439 113 q 367 30 396 51 q 302 -1 338 8 q 233 -11 267 -11 z "},"H":{"ha":694,"x_min":10,"x_max":697,"o":"m 11 0 l 179 1021 l 289 1021 l 215 576 l 513 576 l 586 1021 l 696 1021 l 528 0 l 418 0 l 497 479 l 200 479 l 121 0 l 11 0 z "},"I":{"ha":694,"x_min":35,"x_max":672,"o":"m 522 0 l 36 0 l 35 97 l 231 97 l 368 924 l 186 924 l 185 1021 l 671 1021 l 672 924 l 476 924 l 339 97 l 521 97 l 522 0 z "},"J":{"ha":694,"x_min":21,"x_max":664,"o":"m 249 -11 q 181 -5 214 -11 q 119 17 147 1 q 69 57 90 32 q 36 113 47 82 q 23 178 25 143 q 26 247 21 213 l 28 250 l 136 250 l 135 249 q 134 186 131 217 q 154 132 138 156 q 199 97 171 108 q 257 86 226 86 q 307 96 282 86 q 352 124 332 106 q 386 167 372 143 q 410 215 400 190 q 426 264 419 239 q 436 314 432 289 l 538 924 l 356 924 l 354 1021 l 663 1021 l 543 297 q 526 224 538 261 q 498 151 515 186 q 454 85 481 117 q 395 31 428 53 q 324 -1 363 8 q 249 -11 286 -11 z "},"K":{"ha":694,"x_min":32,"x_max":710,"o":"m 429 0 l 285 463 l 200 351 l 142 0 l 33 0 l 201 1021 l 310 1021 l 233 553 l 579 1021 l 708 1021 l 357 558 l 540 0 l 429 0 z "},"L":{"ha":694,"x_min":54,"x_max":553,"o":"m 56 0 l 224 1021 l 333 1021 l 181 97 l 551 97 l 536 0 l 56 0 z "},"M":{"ha":694,"x_min":-8,"x_max":715,"o":"m -7 0 l 161 1021 l 296 1021 l 347 475 l 579 1021 l 714 1021 l 546 0 l 440 0 l 474 204 q 531 522 500 363 q 592 839 563 681 l 364 306 l 275 306 l 225 839 q 180 522 201 681 q 132 204 158 363 l 99 0 l -7 0 z "},"N":{"ha":694,"x_min":10,"x_max":697,"o":"m 11 0 l 179 1021 l 308 1021 l 461 171 q 488 391 475 281 q 519 613 500 501 l 586 1021 l 696 1021 l 528 0 l 399 0 l 246 850 q 219 630 232 740 q 188 408 207 519 l 121 0 l 11 0 z "},"O":{"ha":694,"x_min":42,"x_max":667,"o":"m 282 -11 q 204 -3 242 -11 q 135 24 167 4 q 83 75 104 44 q 51 142 61 106 q 42 219 42 179 q 49 297 43 258 l 128 776 q 146 845 133 811 q 178 910 158 879 q 226 965 197 940 q 288 1004 256 989 q 355 1026 319 1019 q 425 1032 390 1032 q 503 1024 465 1032 q 572 997 540 1017 q 624 946 603 976 q 656 878 646 915 q 665 802 665 842 q 658 724 665 763 l 579 244 q 562 176 574 210 q 530 111 550 142 q 481 56 510 81 q 420 17 453 32 q 352 -5 388 1 q 282 -11 317 -11 m 283 86 q 328 90 306 86 q 373 106 351 94 q 412 134 394 117 q 442 172 429 151 q 461 215 454 193 q 472 260 468 238 l 551 739 q 556 787 556 763 q 553 833 557 811 q 538 876 549 856 q 511 909 528 896 q 472 928 494 922 q 424 935 449 935 q 378 931 401 935 q 334 915 356 926 q 295 887 313 904 q 265 849 278 869 q 246 806 253 828 q 235 761 239 783 l 156 282 q 151 234 153 258 q 154 188 150 210 q 169 145 158 165 q 196 112 179 125 q 235 92 213 99 q 283 86 258 86 z "},"P":{"ha":694,"x_min":32,"x_max":674,"o":"m 33 0 l 201 1021 l 431 1021 q 510 1012 471 1021 q 581 982 549 1003 q 633 928 613 961 q 664 858 654 896 q 673 780 674 821 q 665 697 672 739 q 648 626 660 663 q 616 558 636 590 q 568 498 596 525 q 506 453 540 471 q 435 429 472 436 q 363 422 399 422 l 213 422 l 143 0 l 33 0 m 229 519 l 363 519 q 412 525 388 519 q 458 544 436 531 q 499 576 481 557 q 528 619 517 596 q 547 665 540 642 q 558 714 554 689 q 564 764 563 739 q 561 813 565 789 q 547 858 557 836 q 520 894 538 879 q 479 917 503 910 q 431 924 456 924 l 296 924 l 229 519 z "},"Q":{"ha":694,"x_min":39,"x_max":667,"o":"m 446 -250 q 378 -244 411 -250 q 317 -226 346 -239 q 265 -190 288 -212 q 231 -137 243 -167 q 216 -74 218 -107 q 219 -7 214 -40 q 158 13 188 -1 q 105 49 128 26 q 67 100 82 71 q 47 162 53 129 q 42 229 40 194 q 49 297 43 264 l 128 776 q 146 845 133 811 q 178 910 158 879 q 226 965 197 940 q 288 1004 256 989 q 355 1026 319 1019 q 425 1032 390 1032 q 503 1024 465 1032 q 572 997 540 1017 q 624 946 603 976 q 656 878 646 915 q 665 802 665 842 q 658 724 665 763 l 579 244 q 565 183 574 214 q 539 125 556 153 q 499 73 522 97 q 448 31 476 49 q 390 4 419 14 q 329 -8 360 -6 q 328 -65 324 -37 q 349 -114 333 -93 q 392 -144 365 -135 q 446 -153 418 -153 l 481 -153 l 481 -250 l 446 -250 m 283 86 q 328 90 306 86 q 373 106 351 94 q 412 134 394 117 q 442 172 429 151 q 461 215 454 193 q 472 260 468 238 l 551 739 q 556 787 556 763 q 553 833 557 811 q 538 876 549 856 q 511 909 528 896 q 472 928 494 922 q 424 935 449 935 q 378 931 401 935 q 334 915 356 926 q 295 887 313 904 q 265 849 278 869 q 246 806 253 828 q 235 761 239 783 l 156 282 q 151 234 153 258 q 154 188 150 210 q 169 145 158 165 q 196 112 179 125 q 235 92 213 99 q 283 86 258 86 z "},"R":{"ha":694,"x_min":10,"x_max":664,"o":"m 449 0 l 308 422 l 190 422 l 121 0 l 11 0 l 179 1021 l 431 1021 q 509 1012 471 1021 q 577 981 547 1003 q 626 926 607 958 q 654 856 646 893 q 662 778 663 818 q 654 697 661 738 q 630 606 646 651 q 583 523 614 561 q 508 459 551 485 q 421 426 465 433 l 561 0 l 449 0 m 363 519 q 410 526 386 519 q 454 546 433 532 q 492 579 475 560 q 519 621 508 599 q 537 667 531 643 q 547 713 543 690 q 553 762 551 738 q 551 810 554 786 q 540 855 549 833 q 515 892 531 876 q 478 916 500 908 q 431 924 456 924 l 274 924 l 207 519 l 363 519 z "},"S":{"ha":694,"x_min":29,"x_max":667,"o":"m 276 -11 q 208 -6 242 -11 q 143 13 174 -1 q 88 49 113 26 q 50 102 64 72 q 33 167 36 132 q 36 238 31 201 l 39 250 l 147 250 l 146 242 q 147 178 140 210 q 173 126 153 147 q 223 95 193 104 q 286 86 253 86 q 349 95 317 86 q 406 126 381 104 q 449 179 432 149 q 469 240 465 210 q 468 313 476 278 q 440 375 460 347 q 392 422 421 403 q 335 460 364 442 q 277 497 306 478 q 225 540 249 515 q 183 593 201 564 q 154 655 165 622 q 140 724 143 688 q 143 796 136 760 q 160 860 149 829 q 193 920 172 892 q 241 971 214 949 q 299 1007 268 993 q 364 1026 331 1021 q 431 1032 397 1032 q 498 1026 465 1032 q 560 1007 531 1021 q 613 969 590 993 q 647 916 635 946 q 663 852 660 886 q 660 783 665 818 l 658 771 l 550 771 l 551 779 q 551 840 556 810 q 528 893 547 871 q 481 925 510 915 q 421 935 453 935 q 361 924 392 935 q 306 892 331 914 q 267 840 282 869 q 249 781 253 811 q 250 710 242 744 q 278 647 258 675 q 326 599 299 619 q 383 562 354 579 q 441 525 413 544 q 493 481 469 506 q 535 428 517 457 q 564 367 553 400 q 578 297 575 333 q 576 225 582 261 q 558 159 571 192 q 523 98 544 126 q 472 48 501 69 q 411 13 443 26 q 344 -6 379 -1 q 276 -11 310 -11 z "},"T":{"ha":694,"x_min":154,"x_max":706,"o":"m 215 0 l 368 924 l 156 924 l 171 1021 l 704 1021 l 689 924 l 476 924 l 324 0 l 215 0 z "},"U":{"ha":694,"x_min":51,"x_max":697,"o":"m 283 -11 q 206 -3 243 -11 q 140 26 169 6 q 90 78 110 47 q 61 144 71 108 q 53 219 51 181 q 60 297 54 258 l 179 1021 l 289 1021 l 167 282 q 162 235 164 258 q 164 190 160 213 q 176 148 168 168 q 201 113 185 128 q 238 92 217 99 q 283 86 260 86 q 349 99 315 86 q 406 137 382 111 q 443 195 431 163 q 461 260 456 228 l 586 1021 l 696 1021 l 568 244 q 551 178 563 211 q 522 114 540 144 q 476 58 503 83 q 417 17 449 33 q 351 -5 385 1 q 283 -11 317 -11 z "},"V":{"ha":694,"x_min":151,"x_max":725,"o":"m 207 0 l 188 340 l 151 1021 l 264 1021 l 290 340 q 294 252 292 296 q 296 165 296 208 q 328 252 313 208 q 360 340 344 296 l 611 1021 l 724 1021 l 332 0 l 207 0 z "},"W":{"ha":694,"x_min":88,"x_max":738,"o":"m 89 0 l 139 1021 l 244 1021 l 179 211 l 342 735 l 439 735 l 429 211 l 631 1021 l 736 1021 l 450 0 l 353 0 l 364 569 l 186 0 l 89 0 z "},"X":{"ha":694,"x_min":-12,"x_max":719,"o":"m 550 0 l 431 0 l 333 382 l 108 0 l -11 0 l 300 517 l 157 1021 l 276 1021 l 374 639 l 599 1021 l 718 1021 l 407 504 l 550 0 z "},"Y":{"ha":694,"x_min":153,"x_max":724,"o":"m 215 0 l 285 418 l 153 1021 l 269 1021 l 360 556 l 606 1021 l 722 1021 l 390 406 l 324 0 l 215 0 z "},"Z":{"ha":694,"x_min":10,"x_max":697,"o":"m 11 0 l 26 97 l 556 924 l 164 924 l 179 1021 l 696 1021 l 681 924 l 151 97 l 543 97 l 528 0 l 11 0 z "},"[":{"ha":694,"x_min":60,"x_max":665,"o":"m 60 -199 l 282 1143 l 665 1143 l 649 1046 l 374 1046 l 185 -101 l 460 -101 l 443 -199 l 60 -199 z "},"\\":{"ha":694,"x_min":192,"x_max":503,"o":"m 390 -199 l 193 1143 l 304 1143 l 501 -199 l 390 -199 z "},"]":{"ha":694,"x_min":29,"x_max":635,"o":"m 29 -199 l 46 -101 l 321 -101 l 510 1046 l 235 1046 l 251 1143 l 635 1143 l 413 -199 l 29 -199 z "},"^":{"ha":694,"x_min":88,"x_max":674,"o":"m 175 621 l 89 689 l 376 1006 l 496 1006 l 674 679 l 574 631 l 422 917 l 175 621 z "},"_":{"ha":694,"x_min":-6,"x_max":528,"o":"m 511 -97 l -6 -97 l 11 0 l 528 0 l 511 -97 z "},"`":{"ha":694,"x_min":225,"x_max":507,"o":"m 424 757 l 225 1053 l 326 1110 l 506 803 l 424 757 z "},"a":{"ha":694,"x_min":39,"x_max":647,"o":"m 233 -11 q 162 0 196 -11 q 103 35 128 11 q 65 90 79 58 q 45 158 50 122 q 42 231 40 193 q 50 304 44 268 l 78 471 q 92 534 83 503 q 115 595 100 565 q 152 651 131 625 q 201 697 174 678 q 261 725 229 717 q 325 733 293 733 q 395 723 361 733 q 453 690 429 713 q 492 637 478 668 q 513 571 507 606 l 538 722 l 647 722 l 547 121 q 547 107 546 114 q 552 95 549 100 q 563 88 556 90 q 576 86 569 86 l 606 86 l 604 -11 l 560 -11 q 508 -4 533 -11 q 464 19 482 3 q 440 63 446 36 q 436 115 433 89 q 401 63 422 88 q 352 22 379 39 q 294 -3 325 4 q 233 -11 263 -11 m 278 86 q 344 97 310 86 q 402 133 378 108 q 440 190 426 157 q 460 254 454 222 l 488 421 q 494 471 492 446 q 492 519 496 496 q 481 565 489 543 q 456 604 472 588 q 417 628 440 621 q 369 636 394 636 q 324 631 347 636 q 279 614 300 626 q 242 583 258 601 q 213 544 225 565 q 195 500 201 522 q 185 456 189 478 l 157 289 q 151 241 153 265 q 153 194 150 217 q 167 150 157 171 q 193 115 176 129 q 232 93 210 100 q 278 86 254 86 z "},"b":{"ha":694,"x_min":10,"x_max":618,"o":"m 332 -11 q 263 -1 296 -11 q 204 32 229 10 q 165 85 179 54 q 146 151 151 117 l 121 0 l 11 0 l 179 1021 l 289 1021 l 221 607 q 256 659 235 635 q 305 701 278 683 q 363 726 332 718 q 424 733 394 733 q 495 722 461 733 q 554 688 529 711 q 593 632 579 664 q 613 565 607 600 q 616 492 618 529 q 608 418 614 454 l 581 251 q 566 188 575 219 q 542 127 557 157 q 506 71 526 97 q 456 25 485 44 q 396 -3 428 6 q 332 -11 364 -11 m 289 86 q 334 91 311 86 q 378 108 357 96 q 415 139 399 121 q 444 178 432 157 q 463 222 457 200 q 472 267 469 244 l 500 433 q 506 481 504 457 q 504 528 508 506 q 490 572 500 551 q 465 608 481 593 q 426 629 449 622 q 381 636 404 636 q 315 625 349 636 q 256 590 281 614 q 217 533 231 565 q 199 468 203 500 l 171 301 q 165 251 167 276 q 165 203 163 226 q 177 157 168 179 q 202 118 186 135 q 241 94 218 101 q 289 86 264 86 z "},"c":{"ha":694,"x_min":42,"x_max":617,"o":"m 288 -11 q 207 -3 246 -11 q 137 26 168 6 q 84 77 106 46 q 53 146 63 108 q 43 224 43 183 q 50 304 43 264 l 78 471 q 94 540 83 506 q 126 606 106 575 q 175 663 147 638 q 236 705 203 689 q 305 727 269 721 q 375 733 340 733 q 444 728 410 733 q 507 708 478 722 q 560 672 536 694 q 597 619 583 649 q 613 554 610 589 q 610 485 617 519 l 608 472 l 500 472 l 501 481 q 501 543 507 513 q 476 595 496 574 q 428 626 457 617 q 367 636 399 636 q 299 623 333 636 q 240 583 264 610 q 203 522 215 556 q 185 456 190 489 l 157 289 q 151 239 153 264 q 156 190 150 214 q 174 146 161 167 q 204 111 186 125 q 247 92 222 97 q 296 86 271 86 q 361 99 328 86 q 420 135 394 111 q 463 191 446 160 q 489 254 479 222 l 589 229 q 547 135 574 181 q 478 54 519 89 q 387 4 438 19 q 288 -11 336 -11 z "},"d":{"ha":694,"x_min":39,"x_max":697,"o":"m 233 -11 q 162 0 196 -11 q 103 35 128 11 q 65 90 79 58 q 45 158 50 122 q 42 231 40 193 q 50 304 44 268 l 78 471 q 92 534 83 503 q 115 595 100 565 q 152 651 131 625 q 201 697 174 678 q 261 725 229 717 q 325 733 293 733 q 395 723 361 733 q 453 690 429 713 q 492 637 478 668 q 513 571 507 606 l 586 1021 l 696 1021 l 547 121 q 547 107 546 114 q 552 95 549 100 q 563 88 556 90 q 576 86 569 86 l 606 86 l 604 -11 l 560 -11 q 508 -4 533 -11 q 464 19 482 3 q 440 63 446 36 q 436 115 433 89 q 401 63 422 88 q 352 22 379 39 q 294 -3 325 4 q 233 -11 263 -11 m 278 86 q 344 97 310 86 q 402 133 378 108 q 440 190 426 157 q 460 254 454 222 l 488 421 q 494 471 492 446 q 492 519 496 496 q 481 565 489 543 q 456 604 472 588 q 417 628 440 621 q 369 636 394 636 q 324 631 347 636 q 279 614 300 626 q 242 583 258 601 q 213 544 225 565 q 195 500 201 522 q 185 456 189 478 l 157 289 q 151 241 153 265 q 153 194 150 217 q 167 150 157 171 q 193 115 176 129 q 232 93 210 100 q 278 86 254 86 z "},"e":{"ha":694,"x_min":42,"x_max":631,"o":"m 292 -11 q 212 -3 251 -11 q 140 25 172 6 q 85 76 108 44 q 52 144 63 107 q 42 223 42 182 q 50 304 43 264 l 78 471 q 94 540 83 506 q 126 606 106 575 q 176 663 147 638 q 238 705 204 689 q 306 727 271 721 q 375 733 340 733 q 441 729 408 733 q 504 715 474 725 q 560 685 535 704 q 601 640 585 667 q 624 582 618 614 q 624 517 629 550 q 603 453 618 483 q 564 397 588 422 q 511 352 540 371 q 450 321 482 333 q 385 303 418 308 q 321 299 353 299 q 239 303 279 299 q 161 317 199 308 l 157 289 q 152 238 153 264 q 156 189 151 213 q 175 145 161 165 q 208 111 189 125 q 251 92 226 97 q 301 86 275 86 q 359 94 329 86 q 414 122 389 103 q 458 166 439 140 q 489 219 478 192 l 581 181 q 533 101 563 139 q 464 38 503 64 q 381 0 425 11 q 292 -11 336 -11 m 321 396 q 383 403 351 396 q 442 428 414 411 q 492 472 471 444 q 518 528 513 499 q 510 578 522 556 q 476 615 497 601 q 429 632 456 628 q 376 636 403 636 q 328 631 353 636 q 283 615 304 626 q 244 585 263 603 q 214 545 226 567 q 195 501 201 524 q 185 456 189 478 l 178 413 q 249 400 213 404 q 321 396 285 396 z "},"f":{"ha":694,"x_min":-40,"x_max":697,"o":"m -39 -299 l -39 -201 l 40 -201 q 97 -194 68 -201 q 149 -167 126 -186 q 186 -119 172 -147 q 204 -64 200 -92 l 307 560 l 111 560 l 111 657 l 324 657 l 344 786 q 360 849 350 818 q 389 909 371 881 q 434 960 407 938 q 492 996 461 982 q 554 1015 522 1010 q 617 1021 586 1021 l 696 1021 l 697 924 l 618 924 q 558 914 589 924 q 503 881 526 904 q 468 829 481 858 q 451 771 456 800 l 432 657 l 628 657 l 628 560 l 415 560 l 313 -64 q 297 -127 307 -96 q 269 -187 288 -158 q 224 -237 250 -215 q 166 -274 197 -260 q 103 -293 135 -287 q 40 -299 71 -299 l -39 -299 z "},"g":{"ha":694,"x_min":-17,"x_max":647,"o":"m 228 -310 q 165 -306 196 -310 q 106 -293 135 -303 q 53 -267 78 -283 q 13 -226 29 -250 q -9 -173 -3 -203 q -11 -111 -15 -143 l 97 -111 q 105 -159 93 -137 q 138 -192 117 -181 q 183 -208 158 -204 q 235 -212 208 -212 q 302 -199 268 -212 q 359 -158 336 -185 q 394 -98 382 -131 q 413 -32 407 -65 l 436 115 q 401 63 422 88 q 352 22 379 39 q 294 -3 325 4 q 233 -11 263 -11 q 162 0 196 -11 q 103 35 128 11 q 65 90 79 58 q 45 158 50 122 q 42 231 40 193 q 50 304 44 268 l 78 471 q 92 534 83 503 q 115 595 100 565 q 152 651 131 625 q 201 697 174 678 q 261 725 229 717 q 325 733 293 733 q 395 723 361 733 q 453 690 429 713 q 492 637 478 668 q 513 571 507 606 l 538 722 l 647 722 l 519 -47 q 503 -116 514 -82 q 472 -181 492 -150 q 424 -238 451 -212 q 364 -281 397 -264 q 296 -303 331 -297 q 228 -310 261 -310 m 278 86 q 344 97 310 86 q 402 133 378 108 q 440 190 426 157 q 460 254 454 222 l 488 421 q 494 471 492 446 q 492 519 496 496 q 481 565 489 543 q 456 604 472 588 q 417 628 440 621 q 369 636 394 636 q 324 631 347 636 q 279 614 300 626 q 242 583 258 601 q 213 544 225 565 q 195 500 201 522 q 185 456 189 478 l 157 289 q 151 241 153 265 q 153 194 150 217 q 167 150 157 171 q 193 115 176 129 q 232 93 210 100 q 278 86 254 86 z "},"h":{"ha":694,"x_min":10,"x_max":608,"o":"m 11 0 l 179 1021 l 289 1021 l 221 608 q 256 660 236 636 q 303 701 276 683 q 359 726 329 718 q 418 733 389 733 q 488 722 454 733 q 547 687 522 711 q 584 631 571 663 q 603 563 597 599 q 606 491 608 528 q 597 418 603 454 l 528 0 l 418 0 l 489 433 q 495 481 493 457 q 494 527 497 504 q 481 571 490 550 q 457 607 472 592 q 420 629 442 622 q 375 636 399 636 q 310 624 343 636 q 253 588 278 613 q 216 532 229 564 q 199 468 203 500 l 121 0 l 11 0 z "},"i":{"ha":694,"x_min":106,"x_max":639,"o":"m 403 -11 q 341 -4 371 -11 q 287 20 311 3 q 247 63 263 38 q 225 119 232 89 q 219 181 218 149 q 226 243 221 213 l 289 625 l 106 625 l 107 722 l 414 722 l 332 228 q 328 178 328 203 q 339 131 329 153 q 369 98 349 110 q 415 86 390 86 q 463 99 440 86 q 502 133 486 113 q 527 178 518 154 q 542 226 536 203 l 638 214 q 622 158 632 186 q 597 105 611 131 q 561 56 582 79 q 515 18 540 33 q 460 -4 489 3 q 403 -11 432 -11 m 400 844 q 361 851 381 844 q 331 874 342 858 q 316 910 319 889 q 315 951 313 931 q 326 979 318 965 q 345 1002 333 993 q 372 1015 357 1011 q 401 1018 386 1018 q 440 1010 421 1018 q 472 988 460 1003 q 487 951 483 972 q 486 910 490 931 q 476 882 483 896 q 456 859 468 868 q 430 847 444 850 q 400 844 415 844 z "},"j":{"ha":694,"x_min":-72,"x_max":589,"o":"m 140 -310 q 80 -305 110 -310 q 24 -288 50 -300 q -22 -256 -1 -276 q -53 -210 -42 -236 q -68 -154 -65 -185 q -67 -94 -71 -124 l -65 -90 l 42 -90 l 42 -92 q 42 -140 38 -117 q 63 -181 47 -164 q 101 -206 78 -199 q 147 -212 124 -212 q 188 -206 168 -212 q 224 -185 208 -199 q 253 -154 240 -172 q 274 -117 265 -136 q 288 -78 282 -99 q 296 -39 293 -58 l 406 625 l 224 625 l 224 722 l 531 722 l 401 -54 q 387 -118 396 -86 q 361 -180 378 -150 q 321 -235 344 -210 q 267 -278 297 -261 q 204 -303 236 -296 q 140 -310 172 -310 m 499 844 q 460 851 479 844 q 429 874 440 858 q 415 910 418 889 q 414 951 411 931 q 424 979 417 965 q 444 1002 432 993 q 470 1015 456 1011 q 500 1018 485 1018 q 539 1010 519 1018 q 570 988 558 1003 q 585 951 582 972 q 585 910 589 931 q 574 882 582 896 q 555 859 567 868 q 528 847 543 850 q 499 844 514 844 z "},"k":{"ha":694,"x_min":32,"x_max":610,"o":"m 411 0 l 217 281 q 203 285 210 283 q 189 290 196 288 l 142 0 l 33 0 l 201 1021 l 310 1021 l 231 536 q 269 609 246 574 q 322 673 292 644 q 391 717 351 701 q 468 733 431 733 q 537 719 504 733 q 587 677 569 706 q 606 613 604 649 q 603 540 608 576 q 574 450 596 494 q 515 372 551 406 q 432 318 478 338 q 340 286 386 299 l 538 0 l 411 0 m 268 367 q 317 373 292 367 q 365 388 342 379 q 411 410 389 396 q 451 442 433 424 q 478 485 468 461 q 492 533 488 508 q 494 570 494 551 q 486 604 494 589 q 461 628 478 619 q 426 636 444 636 q 368 626 397 636 q 315 595 339 615 q 273 549 290 575 q 243 496 256 524 q 222 440 231 468 q 206 383 213 411 q 235 371 219 375 q 268 367 250 367 z "},"l":{"ha":694,"x_min":154,"x_max":639,"o":"m 403 -11 q 341 -4 371 -11 q 287 20 311 3 q 247 63 263 38 q 225 119 232 89 q 219 181 218 149 q 226 243 221 213 l 339 924 l 156 924 l 156 1021 l 463 1021 l 332 228 q 328 178 328 203 q 339 131 329 153 q 369 98 349 110 q 415 86 390 86 q 463 99 440 86 q 502 133 486 113 q 527 178 518 154 q 542 226 536 203 l 638 214 q 622 158 632 186 q 597 105 611 131 q 561 56 582 79 q 515 18 540 33 q 460 -4 489 3 q 403 -11 432 -11 z "},"m":{"ha":694,"x_min":-8,"x_max":643,"o":"m -7 0 l 113 722 l 214 722 l 203 654 q 223 685 211 671 q 250 711 235 700 q 283 728 265 722 q 318 733 300 733 q 359 725 340 733 q 389 701 378 717 q 406 665 400 685 q 414 625 413 646 q 435 665 424 646 q 463 701 446 685 q 501 725 481 717 q 544 733 522 733 q 585 725 565 733 q 615 701 604 717 q 633 665 626 685 q 641 624 639 644 q 640 581 643 603 q 635 539 638 560 l 546 0 l 444 0 l 536 556 q 539 585 539 571 q 533 613 539 600 q 516 635 528 626 q 489 643 504 643 q 465 637 476 643 q 444 619 453 631 q 428 597 435 608 q 418 572 422 585 q 411 547 414 560 q 407 522 408 535 l 321 0 l 218 0 l 310 556 q 313 585 313 571 q 307 613 313 600 q 290 635 301 626 q 264 643 278 643 q 238 637 250 643 q 217 619 226 631 q 202 597 208 608 q 192 572 196 585 q 185 547 188 560 q 181 522 182 535 l 94 0 l -7 0 z "},"n":{"ha":694,"x_min":10,"x_max":608,"o":"m 11 0 l 131 722 l 240 722 l 221 608 q 256 660 236 636 q 303 701 276 683 q 359 726 329 718 q 418 733 389 733 q 488 722 454 733 q 547 687 522 711 q 584 631 571 663 q 603 563 597 599 q 606 491 608 528 q 597 418 603 454 l 528 0 l 418 0 l 489 433 q 495 481 493 457 q 494 527 497 504 q 481 571 490 550 q 457 607 472 592 q 420 629 442 622 q 375 636 399 636 q 310 624 343 636 q 253 588 278 613 q 216 532 229 564 q 199 468 203 500 l 121 0 l 11 0 z "},"o":{"ha":694,"x_min":42,"x_max":615,"o":"m 282 -11 q 203 -3 242 -11 q 134 26 165 6 q 82 78 103 47 q 52 147 61 110 q 43 224 43 185 q 50 304 43 264 l 78 471 q 94 540 83 506 q 126 606 106 575 q 175 663 147 638 q 236 705 203 689 q 305 727 269 721 q 375 733 340 733 q 453 725 415 733 q 523 696 492 717 q 576 644 554 675 q 606 575 597 613 q 615 498 615 538 q 608 418 614 458 l 581 251 q 563 182 575 217 q 531 116 551 147 q 483 59 511 85 q 422 17 456 33 q 353 -5 389 1 q 282 -11 317 -11 m 283 86 q 329 91 306 86 q 374 108 353 96 q 413 138 396 119 q 443 177 431 156 q 463 222 456 199 q 472 267 469 244 l 500 433 q 506 483 504 458 q 503 530 507 507 q 490 574 500 553 q 462 609 479 594 q 422 630 444 624 q 375 636 400 636 q 328 631 353 636 q 283 615 304 626 q 244 585 263 603 q 214 545 226 567 q 195 501 201 524 q 185 456 189 478 l 157 289 q 151 240 153 264 q 154 192 150 215 q 169 149 158 169 q 196 113 179 128 q 235 92 213 99 q 283 86 258 86 z "},"p":{"ha":694,"x_min":-39,"x_max":618,"o":"m -39 -299 l 131 722 l 240 722 l 221 607 q 256 659 235 635 q 305 701 278 683 q 363 726 332 718 q 424 733 394 733 q 495 722 461 733 q 554 688 529 711 q 593 632 579 664 q 613 565 607 600 q 616 492 618 529 q 608 418 614 454 l 581 251 q 566 188 575 219 q 542 127 557 157 q 506 71 526 97 q 456 25 485 44 q 396 -3 428 6 q 332 -11 364 -11 q 263 -1 296 -11 q 204 32 229 10 q 165 85 179 54 q 146 151 151 117 l 71 -299 l -39 -299 m 289 86 q 334 91 311 86 q 378 108 357 96 q 415 139 399 121 q 444 178 432 157 q 463 222 457 200 q 472 267 469 244 l 500 433 q 506 481 504 457 q 504 528 508 506 q 490 572 500 551 q 465 608 481 593 q 426 629 449 622 q 381 636 404 636 q 315 625 349 636 q 256 590 281 614 q 217 533 231 565 q 199 468 203 500 l 171 301 q 165 251 167 276 q 165 203 163 226 q 177 157 168 179 q 202 118 186 135 q 241 94 218 101 q 289 86 264 86 z "},"q":{"ha":694,"x_min":39,"x_max":647,"o":"m 368 -299 l 436 115 q 401 63 422 88 q 352 22 379 39 q 294 -3 325 4 q 233 -11 263 -11 q 162 0 196 -11 q 103 35 128 11 q 65 90 79 58 q 45 158 50 122 q 42 231 40 193 q 50 304 44 268 l 78 471 q 92 534 83 503 q 115 595 100 565 q 152 651 131 625 q 201 697 174 678 q 261 725 229 717 q 325 733 293 733 q 395 723 361 733 q 453 690 429 713 q 492 637 478 668 q 513 571 507 606 l 538 722 l 647 722 l 478 -299 l 368 -299 m 278 86 q 344 97 310 86 q 402 133 378 108 q 440 190 426 157 q 460 254 454 222 l 488 421 q 494 471 492 446 q 492 519 496 496 q 481 565 489 543 q 456 604 472 588 q 417 628 440 621 q 369 636 394 636 q 324 631 347 636 q 279 614 300 626 q 242 583 258 601 q 213 544 225 565 q 195 500 201 522 q 185 456 189 478 l 157 289 q 151 241 153 265 q 153 194 150 217 q 167 150 157 171 q 193 115 176 129 q 232 93 210 100 q 278 86 254 86 z "},"r":{"ha":694,"x_min":93,"x_max":642,"o":"m 94 0 l 214 722 l 324 722 l 300 578 q 334 638 314 608 q 381 689 354 667 q 442 722 408 711 q 507 733 475 733 q 557 727 533 733 q 598 705 581 721 q 626 667 615 689 q 639 622 636 646 q 640 572 642 597 q 635 521 639 546 l 525 521 q 529 560 528 540 q 524 597 531 579 q 503 625 518 614 q 469 636 489 636 q 417 628 443 636 q 367 602 390 619 q 328 561 344 585 q 301 513 313 538 q 283 462 289 488 q 272 410 276 436 l 204 0 l 94 0 z "},"s":{"ha":694,"x_min":32,"x_max":615,"o":"m 276 -11 q 216 -8 246 -11 q 158 4 186 -4 q 104 28 129 13 q 62 66 79 43 q 38 118 44 89 q 38 178 32 147 l 39 188 l 147 188 l 147 183 q 155 137 143 158 q 188 104 167 115 q 235 90 210 93 q 286 86 260 86 q 335 90 310 86 q 383 103 360 93 q 425 134 406 114 q 449 178 444 154 q 442 224 453 203 q 415 261 432 246 q 377 285 399 276 q 334 303 356 294 q 290 319 313 311 q 247 338 268 326 q 208 362 226 349 q 173 391 189 375 q 144 426 157 407 q 124 466 132 444 q 113 511 117 488 q 114 560 110 535 q 133 614 119 588 q 167 661 146 640 q 215 697 189 682 q 268 719 240 711 q 324 731 296 728 q 381 733 353 733 q 440 730 410 733 q 497 717 469 726 q 548 693 524 708 q 588 655 572 678 q 608 603 603 632 q 610 544 614 574 l 607 535 l 499 535 l 500 539 q 494 585 504 564 q 464 617 483 606 q 421 632 444 628 q 372 636 397 636 q 326 633 350 636 q 281 618 303 629 q 241 588 258 607 q 221 544 224 568 q 226 498 217 519 q 253 461 235 476 q 292 437 271 446 q 335 419 313 428 q 378 403 357 411 q 420 385 400 396 q 459 362 440 375 q 494 333 478 349 q 523 297 510 317 q 544 256 536 278 q 556 211 553 235 q 554 163 558 188 q 535 108 550 135 q 497 60 519 81 q 448 25 475 39 q 392 3 421 11 q 335 -8 364 -6 q 276 -11 306 -11 z "},"t":{"ha":694,"x_min":129,"x_max":629,"o":"m 381 -11 q 315 -3 347 -11 q 257 25 282 6 q 217 73 232 44 q 194 133 201 101 q 190 199 188 165 q 197 268 192 233 l 256 625 l 131 625 l 131 722 l 272 722 l 321 1021 l 429 1021 l 381 722 l 617 722 l 617 625 l 364 625 l 303 251 q 299 214 300 233 q 299 176 297 194 q 308 142 301 158 q 325 112 314 125 q 353 92 336 99 q 389 86 371 86 q 426 93 407 86 q 459 113 444 100 q 484 142 474 126 q 502 176 494 158 q 515 210 510 193 q 525 246 521 228 l 628 229 q 612 171 622 200 q 585 114 601 142 q 547 63 569 86 q 498 22 525 39 q 441 -3 471 4 q 381 -11 411 -11 z "},"u":{"ha":694,"x_min":49,"x_max":647,"o":"m 239 -11 q 169 0 203 -11 q 111 35 135 11 q 74 92 88 60 q 55 159 60 124 q 53 231 50 194 q 61 304 56 268 l 131 722 l 240 722 l 168 289 q 163 242 164 265 q 164 195 161 218 q 176 151 167 172 q 201 115 185 131 q 238 93 217 100 q 283 86 260 86 q 348 98 315 86 q 405 134 381 110 q 442 190 429 158 q 460 254 454 222 l 538 722 l 647 722 l 547 121 q 547 107 546 114 q 552 95 549 100 q 563 88 556 90 q 576 86 569 86 l 606 86 l 604 -11 l 560 -11 q 508 -4 533 -11 q 464 19 482 3 q 440 62 446 36 q 436 114 433 88 q 401 63 422 86 q 354 22 381 39 q 298 -3 328 4 q 239 -11 268 -11 z "},"v":{"ha":694,"x_min":101,"x_max":675,"o":"m 207 0 l 103 722 l 218 722 l 276 240 q 283 183 281 213 q 290 125 286 154 q 315 183 303 154 q 340 240 328 213 l 560 722 l 675 722 l 332 0 l 207 0 z "},"w":{"ha":694,"x_min":88,"x_max":688,"o":"m 89 0 l 90 722 l 196 722 l 169 150 l 307 519 l 404 519 l 419 150 l 582 722 l 688 722 l 450 0 l 353 0 l 336 403 l 186 0 l 89 0 z "},"x":{"ha":694,"x_min":-6,"x_max":663,"o":"m -4 0 l 272 367 l 115 722 l 243 722 l 343 463 l 535 722 l 663 722 l 385 356 l 543 0 l 415 0 l 315 260 l 124 0 l -4 0 z "},"y":{"ha":694,"x_min":-17,"x_max":647,"o":"m 228 -310 q 165 -306 196 -310 q 106 -293 135 -303 q 53 -267 78 -283 q 13 -226 29 -250 q -9 -173 -3 -203 q -11 -111 -15 -143 l 97 -111 q 105 -159 93 -137 q 138 -192 117 -181 q 183 -208 158 -204 q 235 -212 208 -212 q 302 -199 268 -212 q 359 -158 336 -185 q 394 -98 382 -131 q 413 -32 407 -65 l 436 114 q 401 63 422 86 q 354 22 381 39 q 298 -3 328 4 q 239 -11 268 -11 q 169 0 203 -11 q 111 35 135 11 q 74 92 88 60 q 55 159 60 124 q 53 231 50 194 q 61 304 56 268 l 131 722 l 240 722 l 168 289 q 163 242 164 265 q 164 195 161 218 q 176 151 167 172 q 201 115 185 131 q 238 93 217 100 q 283 86 260 86 q 348 98 315 86 q 405 134 381 110 q 442 190 429 158 q 460 254 454 222 l 538 722 l 647 722 l 519 -47 q 503 -116 514 -82 q 472 -181 492 -150 q 424 -238 451 -212 q 364 -281 397 -264 q 296 -303 331 -297 q 228 -310 261 -310 z "},"z":{"ha":694,"x_min":10,"x_max":647,"o":"m 11 0 l 26 97 l 507 625 l 114 625 l 131 722 l 647 722 l 631 625 l 150 97 l 543 97 l 528 0 l 11 0 z "},"{":{"ha":694,"x_min":107,"x_max":668,"o":"m 440 -212 q 367 -208 403 -212 q 297 -190 331 -203 q 233 -157 263 -178 q 185 -107 204 -136 q 162 -41 167 -78 q 164 33 157 -4 q 172 76 167 56 q 187 117 178 97 q 208 157 196 138 q 233 195 221 176 q 256 234 246 214 q 268 275 265 254 q 270 319 272 297 q 258 360 268 342 q 231 390 247 378 q 194 410 214 403 q 151 421 174 418 q 107 424 129 424 l 124 521 q 168 524 146 521 q 213 534 190 526 q 257 554 236 542 q 295 585 278 567 q 322 625 313 603 q 335 669 331 647 q 333 731 339 701 q 318 790 326 761 q 307 849 310 818 q 308 911 304 879 q 333 985 315 949 q 378 1051 350 1022 q 442 1101 407 1081 q 515 1135 476 1122 q 592 1152 553 1147 q 668 1157 631 1157 l 651 1060 q 602 1057 626 1060 q 554 1047 578 1054 q 508 1028 531 1040 q 465 998 485 1015 q 433 958 446 981 q 417 911 421 935 q 419 849 413 879 q 433 791 425 819 q 445 732 442 763 q 444 669 449 701 q 425 606 439 638 q 388 547 411 574 q 333 502 364 521 q 271 472 303 483 q 324 442 300 461 q 362 397 347 424 q 380 339 376 371 q 378 275 383 307 q 369 233 375 254 q 353 192 363 213 q 333 152 344 171 q 309 114 322 133 q 285 75 296 94 q 272 33 275 56 q 272 -13 268 10 q 290 -53 276 -36 q 323 -83 304 -71 q 364 -103 342 -96 q 409 -112 386 -110 q 457 -115 432 -115 l 440 -212 z "},"|":{"ha":694,"x_min":182,"x_max":513,"o":"m 182 -199 l 404 1143 l 513 1143 l 290 -199 l 182 -199 z "},"}":{"ha":694,"x_min":26,"x_max":588,"o":"m 26 -212 l 43 -115 q 92 -112 68 -115 q 140 -103 117 -110 q 187 -83 164 -96 q 229 -53 210 -71 q 261 -13 249 -36 q 278 33 274 10 q 276 95 282 65 q 261 153 269 125 q 249 213 253 182 q 250 275 246 243 q 269 339 256 307 q 307 397 283 371 q 361 442 331 424 q 424 472 392 461 q 371 502 394 483 q 333 547 347 521 q 315 606 318 574 q 317 669 311 638 q 326 711 319 690 q 341 753 332 732 q 361 792 350 774 q 385 831 372 811 q 409 869 399 850 q 422 911 419 889 q 422 958 426 935 q 404 998 418 981 q 372 1028 390 1015 q 331 1047 353 1040 q 285 1057 308 1054 q 238 1060 263 1060 l 254 1157 q 328 1152 292 1157 q 398 1135 364 1147 q 461 1101 432 1122 q 509 1051 490 1081 q 533 985 528 1022 q 531 911 538 949 q 522 868 528 889 q 508 827 517 847 q 486 788 499 807 q 461 749 474 768 q 439 710 449 731 q 426 669 429 690 q 424 625 422 647 q 437 585 426 603 q 464 554 447 567 q 501 534 481 542 q 543 524 521 526 q 588 521 565 521 l 571 424 q 526 421 549 424 q 481 410 504 418 q 438 390 458 403 q 399 360 417 378 q 373 319 382 342 q 360 275 364 297 q 362 213 356 243 q 376 155 368 183 q 388 96 385 126 q 386 33 390 65 q 362 -41 379 -4 q 316 -107 344 -78 q 253 -157 288 -136 q 180 -190 218 -178 q 103 -208 142 -203 q 26 -212 64 -212 z "},"~":{"ha":694,"x_min":11,"x_max":664,"o":"m 101 254 l 11 297 q 29 333 19 315 q 48 365 39 350 q 65 394 57 381 q 83 422 74 408 q 99 446 92 435 q 114 467 106 457 q 130 488 122 478 q 149 510 138 497 q 171 532 160 522 q 195 549 182 542 q 224 562 208 557 q 254 567 239 567 q 274 565 264 567 q 292 559 283 563 q 308 551 300 556 q 323 540 317 546 q 335 526 329 533 q 346 512 340 519 q 356 496 351 504 q 364 479 360 488 q 372 463 368 471 q 378 446 375 454 q 385 428 382 438 q 392 410 389 419 q 400 391 396 400 q 408 374 404 382 q 419 361 411 367 q 425 347 426 356 l 418 347 q 427 354 418 349 q 442 366 436 360 q 454 380 447 372 q 465 392 461 388 q 472 402 468 397 q 478 412 475 407 q 486 423 482 417 q 494 435 490 429 q 503 448 499 442 q 512 462 507 454 q 521 477 517 469 q 530 493 525 485 q 540 510 535 501 q 551 528 546 519 q 561 548 556 538 q 572 568 567 558 l 663 525 q 644 490 654 507 q 626 457 635 472 q 608 427 617 442 q 592 400 600 413 q 576 376 583 388 q 560 355 568 365 q 544 335 553 344 q 525 313 536 325 q 503 290 514 300 q 478 273 492 281 q 450 260 465 265 q 419 256 435 256 q 401 258 410 256 q 383 263 392 260 q 366 272 374 267 q 351 283 358 276 q 340 296 344 289 q 329 310 335 303 q 319 326 324 318 q 311 343 315 335 q 303 360 307 351 q 297 376 300 368 q 290 394 293 385 q 282 413 286 403 q 274 431 278 422 q 266 448 269 440 q 255 461 263 456 q 249 475 247 467 l 256 475 q 247 468 256 474 q 233 456 239 463 q 220 442 226 450 q 210 430 214 435 q 202 420 206 425 q 195 410 199 415 q 188 399 192 406 q 180 387 185 393 q 172 374 175 381 q 163 360 168 368 q 153 345 158 353 q 144 329 149 338 q 134 312 139 321 q 124 294 129 303 q 113 274 119 285 q 101 254 107 264 z "},"":{"ha":694,"x_min":0,"x_max":0,"o":""},"":{"ha":694,"x_min":165,"x_max":475,"o":"m 375 538 q 330 546 351 538 q 295 572 308 554 q 278 613 282 589 q 278 660 275 636 q 289 690 281 675 q 311 716 297 706 q 342 730 325 726 q 374 733 358 733 q 419 725 397 733 q 453 699 440 717 q 470 658 467 682 q 471 611 474 635 q 460 581 468 596 q 438 555 451 565 q 407 541 424 544 q 375 538 390 538 m 165 -299 l 275 361 l 383 361 l 274 -299 l 165 -299 z "},"":{"ha":694,"x_min":40,"x_max":618,"o":"m 193 -149 l 217 -6 q 155 16 185 1 q 103 53 125 31 q 67 106 82 76 q 47 168 53 135 q 43 235 42 201 q 50 304 44 269 l 78 471 q 93 535 83 503 q 119 596 103 567 q 160 650 136 625 q 214 692 185 675 q 276 719 243 710 q 339 732 308 729 l 363 872 l 465 872 l 442 729 q 520 702 483 722 q 581 649 557 682 q 611 572 604 615 q 610 485 618 529 l 608 472 l 500 472 l 501 481 q 503 530 506 506 q 490 575 501 554 q 460 610 479 596 q 418 631 440 625 l 328 89 q 385 109 357 93 q 433 148 413 125 q 467 199 453 171 q 489 254 482 226 l 589 229 q 551 142 576 185 q 491 65 526 99 q 410 13 456 32 q 319 -10 364 -7 l 296 -149 l 193 -149 m 240 93 l 329 633 q 274 610 301 628 q 227 567 246 592 q 199 513 208 542 q 185 456 189 485 l 157 289 q 152 228 153 258 q 162 170 151 197 q 192 122 172 143 q 240 93 213 101 z "},"":{"ha":694,"x_min":10,"x_max":649,"o":"m 11 0 l 26 97 q 83 156 58 124 q 126 225 108 189 q 151 299 143 261 q 165 374 160 336 l 182 468 l 72 468 l 72 553 l 196 553 l 243 838 q 256 889 247 864 q 278 938 264 914 q 315 980 293 961 q 361 1010 336 999 q 412 1027 386 1022 q 464 1032 438 1032 q 545 1019 506 1032 q 609 975 585 1006 q 641 903 633 944 q 640 819 649 863 q 639 814 640 817 q 638 808 638 811 l 531 808 l 532 815 q 534 858 535 836 q 524 897 533 879 q 495 925 514 915 q 456 935 476 935 q 415 926 435 935 q 381 899 394 917 q 360 862 368 882 q 350 822 353 842 l 306 553 l 436 553 l 436 468 l 292 468 l 272 358 q 260 291 267 325 q 241 224 253 257 q 213 158 229 190 q 172 97 196 126 l 543 97 l 528 0 l 11 0 z "},"":{"ha":694,"x_min":15,"x_max":679,"o":"m 76 181 l 15 247 l 119 336 q 103 411 104 371 q 107 492 101 451 q 126 560 113 526 q 161 624 139 594 l 94 703 l 168 758 l 232 683 q 301 708 264 701 q 374 715 338 715 q 450 707 413 715 q 518 678 488 699 l 618 764 l 679 697 l 575 608 q 592 533 590 574 q 588 453 593 493 q 569 384 582 418 q 533 321 556 350 l 600 242 l 526 186 l 463 261 q 394 236 431 243 q 321 229 357 229 q 244 238 282 229 q 176 267 207 246 l 76 181 m 321 315 q 381 324 350 315 q 436 356 411 333 q 475 407 461 378 q 493 467 489 436 q 495 528 499 497 q 476 583 492 558 q 433 618 461 607 q 374 629 406 629 q 314 620 344 629 q 258 589 283 611 q 219 538 233 567 q 201 478 206 508 q 199 417 196 447 q 218 362 203 386 q 261 326 233 338 q 321 315 289 315 z "},"":{"ha":694,"x_min":44,"x_max":724,"o":"m 215 0 l 242 163 l 44 163 l 44 246 l 256 246 l 275 367 l 78 367 l 78 450 l 276 450 l 153 1021 l 269 1021 l 360 556 l 606 1021 l 722 1021 l 414 450 l 594 450 l 594 367 l 383 367 l 364 246 l 561 246 l 561 163 l 350 163 l 324 0 l 215 0 z "},"":{"ha":694,"x_min":182,"x_max":513,"o":"m 304 536 l 404 1143 l 513 1143 l 413 536 l 304 536 m 182 -199 l 282 408 l 390 408 l 290 -199 l 182 -199 z "},"":{"ha":694,"x_min":8,"x_max":686,"o":"m 244 -210 q 176 -204 210 -210 q 113 -185 143 -199 q 61 -147 83 -171 q 26 -94 39 -124 q 11 -30 14 -64 q 14 39 8 4 l 17 51 l 125 51 l 124 43 q 123 -18 118 13 q 147 -71 128 -49 q 193 -103 165 -93 q 253 -112 221 -112 q 313 -102 282 -112 q 368 -69 344 -92 q 406 -17 392 -46 q 426 43 421 13 q 423 107 432 76 q 394 160 414 138 q 346 199 374 183 q 290 226 318 214 q 233 253 261 239 q 180 285 204 267 q 137 328 156 304 q 107 382 118 353 q 92 444 96 411 q 94 510 89 476 q 111 567 100 539 q 138 622 122 596 q 176 672 154 649 q 225 710 199 694 q 192 752 207 729 q 168 801 176 775 q 158 856 160 828 q 163 914 157 885 q 180 978 167 946 q 213 1039 193 1010 q 260 1091 233 1068 q 319 1128 288 1114 q 384 1149 351 1143 q 450 1154 417 1154 q 518 1149 485 1154 q 581 1129 551 1143 q 633 1092 611 1115 q 668 1038 656 1068 q 683 974 681 1008 q 681 906 686 940 l 678 893 l 569 893 l 571 901 q 572 963 576 932 q 548 1015 567 993 q 501 1047 529 1038 q 442 1057 474 1057 q 381 1047 413 1057 q 326 1013 350 1036 q 288 961 303 990 q 268 901 274 932 q 272 838 263 868 q 301 784 281 807 q 349 746 321 761 q 405 718 376 731 q 462 692 433 706 q 515 659 490 678 q 558 616 539 640 q 588 563 576 592 q 602 501 599 533 q 600 435 606 468 q 583 377 594 406 q 556 322 572 349 q 518 273 540 296 q 469 235 496 250 q 503 192 488 215 q 526 143 518 169 q 536 88 535 117 q 532 31 538 60 q 515 -33 528 -1 q 481 -94 501 -65 q 434 -147 461 -124 q 375 -184 407 -169 q 310 -204 343 -199 q 244 -210 278 -210 m 368 299 q 415 320 393 306 q 453 355 438 335 q 478 399 468 375 q 493 446 489 422 q 486 519 499 485 q 448 576 474 553 q 390 615 422 600 q 326 646 358 631 q 279 624 301 639 q 242 590 257 610 q 216 546 226 569 q 201 499 206 522 q 208 426 196 460 q 247 368 221 392 q 304 329 272 344 q 368 299 336 314 z "},"":{"ha":694,"x_min":196,"x_max":650,"o":"m 561 844 q 522 852 542 844 q 492 875 503 860 q 478 910 481 890 q 478 951 475 931 q 488 978 481 965 q 507 1001 494 992 q 533 1013 519 1010 q 563 1017 547 1017 q 601 1009 582 1017 q 632 986 621 1001 q 647 951 643 971 q 646 910 650 931 q 636 883 643 896 q 617 860 629 869 q 590 848 604 851 q 561 844 576 844 m 283 844 q 244 852 264 844 q 214 875 225 860 q 200 910 203 890 q 200 951 197 931 q 210 978 203 965 q 229 1001 217 992 q 256 1013 242 1010 q 285 1017 269 1017 q 324 1009 304 1017 q 354 986 343 1001 q 369 951 365 971 q 368 910 372 931 q 358 883 365 896 q 339 860 351 869 q 313 848 326 851 q 283 844 299 844 z "},"":{"ha":694,"x_min":122,"x_max":624,"o":"m 311 440 q 259 448 283 440 q 216 472 235 456 q 187 510 197 488 q 172 559 176 533 q 169 611 167 585 q 175 664 171 638 l 194 781 q 213 847 200 814 q 248 906 225 879 q 304 948 271 933 q 371 963 338 963 q 421 956 396 963 q 464 933 446 949 q 493 895 482 917 q 510 849 504 874 l 526 954 l 622 954 l 556 549 q 560 534 554 540 q 575 528 567 528 l 596 528 l 594 440 l 560 440 q 521 445 540 440 q 486 461 501 450 q 463 490 471 472 q 457 529 456 508 q 430 492 446 508 q 395 463 414 475 q 354 446 376 451 q 311 440 332 440 m 351 528 q 393 533 372 528 q 431 551 414 538 q 459 585 449 565 q 472 625 469 604 l 492 742 q 495 789 496 765 q 485 833 494 813 q 455 864 475 853 q 411 875 435 875 q 367 868 390 875 q 328 846 344 861 q 302 809 311 831 q 289 767 293 788 l 269 650 q 267 605 267 628 q 278 564 268 582 q 309 537 289 546 q 351 528 329 528 m 515 265 l 122 265 l 122 340 l 515 340 l 515 265 z "},"":{"ha":694,"x_min":46,"x_max":689,"o":"m 493 126 q 464 219 481 174 q 424 306 447 264 q 372 384 401 347 q 304 450 342 421 l 313 494 q 401 563 360 525 q 481 644 443 601 q 550 733 518 688 q 608 828 582 779 l 689 788 q 634 699 663 742 q 574 614 606 656 q 506 534 542 572 q 428 464 469 496 q 524 317 486 399 q 582 147 561 235 l 493 126 m 235 126 q 206 219 222 174 q 166 306 189 264 q 113 384 143 347 q 46 450 83 421 l 54 494 q 143 563 101 525 q 222 644 185 601 q 292 733 260 688 q 350 828 324 779 l 431 788 q 376 699 404 742 q 315 614 347 656 q 247 534 283 572 q 169 464 211 496 q 265 317 228 399 q 324 147 303 235 l 235 126 z "},"":{"ha":694,"x_min":81,"x_max":614,"o":"m 558 188 l 456 188 l 496 426 l 82 426 l 96 518 l 613 518 l 558 188 z "},"":{"ha":694,"x_min":81,"x_max":614,"o":"m 597 424 l 81 424 l 97 521 l 614 521 l 597 424 z "},"":{"ha":694,"x_min":92,"x_max":751,"o":"m 267 714 l 333 1122 l 454 1122 q 505 1113 481 1122 q 543 1082 529 1103 q 559 1034 557 1061 q 557 981 561 1007 q 547 945 553 963 q 530 912 542 928 q 502 885 518 896 q 468 869 486 874 l 522 714 l 444 714 l 392 864 l 367 864 l 342 714 l 267 714 m 378 932 l 429 932 q 451 937 440 932 q 468 951 461 942 q 478 970 475 960 q 483 992 482 981 q 485 1012 485 1001 q 483 1032 486 1022 q 474 1049 481 1042 q 456 1056 467 1056 l 399 1056 l 378 932 m 368 596 q 283 603 325 596 q 206 631 242 611 q 144 681 169 650 q 106 750 118 711 q 92 832 93 789 q 99 918 92 875 q 121 1004 106 961 q 162 1086 136 1047 q 223 1156 188 1125 q 301 1206 258 1186 q 388 1233 343 1225 q 475 1240 432 1240 q 560 1233 518 1240 q 637 1206 601 1225 q 698 1156 672 1186 q 737 1086 724 1125 q 750 1004 750 1047 q 743 918 750 961 q 722 832 736 875 q 681 750 707 789 q 619 681 654 711 q 542 631 583 650 q 456 603 500 611 q 368 596 411 596 m 378 663 q 447 669 413 663 q 515 693 482 676 q 574 735 547 710 q 622 792 601 761 q 653 858 642 824 q 669 926 664 893 q 675 993 675 960 q 665 1056 675 1026 q 635 1108 656 1085 q 588 1147 615 1132 q 530 1167 561 1161 q 465 1174 499 1174 q 395 1167 431 1174 q 327 1143 360 1160 q 267 1101 294 1126 q 220 1044 240 1075 q 189 978 200 1013 q 172 910 178 943 q 167 843 167 876 q 176 781 167 810 q 207 728 186 751 q 254 690 228 704 q 313 669 281 675 q 378 663 344 663 z "},"":{"ha":694,"x_min":164,"x_max":682,"o":"m 681 888 l 164 888 l 165 974 l 682 974 l 681 888 z "},"":{"ha":694,"x_min":258,"x_max":581,"o":"m 419 753 q 370 758 394 753 q 326 777 346 764 q 291 809 306 790 q 269 851 276 828 q 261 900 263 875 q 264 950 260 925 q 282 1001 268 976 q 319 1042 296 1026 q 367 1065 342 1058 q 419 1071 393 1071 q 469 1065 444 1071 q 515 1047 494 1060 q 549 1016 535 1035 q 571 974 564 997 q 579 924 578 950 q 576 874 581 899 q 558 823 572 847 q 522 782 544 799 q 472 759 499 765 q 419 753 446 753 m 419 843 q 442 846 431 843 q 465 856 454 849 q 481 874 475 863 q 488 896 486 885 q 488 928 490 913 q 476 957 485 944 q 451 975 467 969 q 421 981 436 981 q 398 978 410 981 q 376 969 386 976 q 360 951 365 961 q 351 929 354 940 q 352 896 349 913 q 365 867 356 879 q 389 849 374 856 q 419 843 404 843 z "},"":{"ha":694,"x_min":10,"x_max":614,"o":"m 251 204 l 289 426 l 82 426 l 96 518 l 303 518 l 340 740 l 443 740 l 406 518 l 613 518 l 599 426 l 392 426 l 354 204 l 251 204 m 528 0 l 11 0 l 26 92 l 543 92 l 528 0 z "},"":{"ha":694,"x_min":147,"x_max":633,"o":"m 147 449 l 147 450 q 160 513 153 481 q 178 575 167 544 q 208 634 190 606 q 249 688 226 663 q 299 735 272 714 q 354 774 325 756 q 413 808 383 792 q 469 848 443 825 q 510 901 494 871 q 531 961 526 931 l 531 963 q 534 1008 535 986 q 522 1049 533 1031 q 490 1076 510 1067 q 447 1085 469 1085 q 408 1079 428 1085 q 370 1060 388 1074 q 343 1027 353 1046 q 331 989 333 1008 l 235 989 q 260 1063 240 1026 q 310 1124 279 1099 q 379 1160 342 1149 q 454 1171 417 1171 q 510 1165 482 1171 q 562 1146 539 1160 q 600 1110 585 1132 q 624 1061 615 1088 q 631 1006 632 1035 q 626 949 631 978 q 607 883 621 915 q 570 824 593 851 q 518 774 547 796 q 459 734 489 753 q 399 696 429 715 q 342 651 368 676 q 295 597 315 626 q 264 535 275 568 l 553 535 l 539 449 l 147 449 z "},"":{"ha":694,"x_min":158,"x_max":633,"o":"m 354 440 q 277 449 315 440 q 211 481 239 458 q 171 540 183 503 q 165 615 158 576 l 167 624 l 263 624 l 263 619 q 265 579 258 599 q 286 548 271 560 q 322 532 301 536 q 363 528 342 528 q 406 534 385 528 q 446 556 428 540 q 475 593 464 572 q 490 636 486 614 q 488 693 494 665 q 462 740 481 721 q 415 766 443 760 q 358 772 388 772 l 372 860 q 424 864 397 860 q 474 885 451 868 q 512 926 497 901 q 531 976 526 950 q 531 1017 535 997 q 517 1053 528 1038 q 488 1077 507 1069 q 449 1085 469 1085 q 410 1078 429 1085 q 376 1058 392 1072 q 351 1026 360 1044 q 339 989 342 1008 l 243 989 l 243 990 q 267 1062 249 1026 q 315 1123 285 1097 q 383 1160 346 1149 q 456 1171 419 1171 q 533 1158 496 1171 q 594 1115 571 1144 q 626 1047 618 1086 q 626 967 633 1007 q 612 919 622 943 q 585 875 601 896 q 547 839 569 854 q 501 814 525 824 q 544 781 525 801 q 573 734 563 760 q 586 680 583 708 q 585 622 589 651 q 558 547 578 583 q 505 486 538 511 q 432 451 472 461 q 354 440 392 440 z "},"":{"ha":694,"x_min":296,"x_max":664,"o":"m 367 750 l 296 810 l 578 1118 l 663 1044 l 367 750 z "},"":{"ha":694,"x_min":-39,"x_max":647,"o":"m -39 -299 l 131 722 l 240 722 l 168 289 q 163 242 164 265 q 164 195 161 218 q 176 151 167 172 q 201 115 185 131 q 238 93 217 100 q 283 86 260 86 q 348 98 315 86 q 405 134 381 110 q 442 190 429 158 q 460 254 454 222 l 538 722 l 647 722 l 547 121 q 547 107 546 114 q 552 95 549 100 q 563 88 556 90 q 576 86 569 86 l 606 86 l 604 -11 l 560 -11 q 508 -4 533 -11 q 464 19 482 3 q 440 62 446 36 q 436 114 433 88 q 401 63 422 86 q 354 22 381 39 q 298 -3 328 4 q 239 -11 268 -11 q 174 -2 206 -11 q 119 28 143 7 q 109 -61 115 -17 q 96 -150 103 -106 l 71 -299 l -39 -299 z "},"":{"ha":694,"x_min":126,"x_max":697,"o":"m 247 0 l 325 471 q 259 479 292 471 q 200 506 226 488 q 158 551 174 524 q 134 611 142 579 q 128 678 126 643 q 135 746 129 713 q 151 815 140 781 q 178 881 161 849 q 222 940 196 913 q 280 987 247 968 q 347 1013 313 1006 q 415 1021 382 1021 l 696 1021 l 528 0 l 440 0 l 596 943 l 490 943 l 335 0 l 247 0 z "},"":{"ha":694,"x_min":236,"x_max":458,"o":"m 347 364 q 298 373 322 364 q 259 401 274 382 q 240 447 244 421 q 240 499 236 472 q 253 533 243 517 q 278 561 263 550 q 311 576 293 572 q 347 581 329 581 q 397 572 372 581 q 435 543 421 563 q 454 498 450 524 q 454 446 458 472 q 442 411 451 428 q 417 383 432 394 q 383 368 401 372 q 347 364 365 364 z "},"":{"ha":694,"x_min":79,"x_max":394,"o":"m 79 -306 l 94 -218 l 233 -218 q 256 -216 244 -218 q 278 -208 267 -214 q 296 -191 289 -201 q 306 -169 303 -181 q 303 -148 307 -158 q 291 -131 299 -137 q 272 -122 283 -124 q 249 -119 260 -119 l 200 -119 l 221 0 l 318 0 l 308 -57 q 347 -72 329 -61 q 376 -99 365 -82 q 390 -136 388 -115 q 389 -179 393 -157 q 369 -233 385 -207 q 329 -276 354 -260 q 275 -299 304 -293 q 218 -306 246 -306 l 79 -306 z "},"":{"ha":694,"x_min":249,"x_max":540,"o":"m 324 449 l 425 1056 l 297 961 l 249 1021 l 442 1164 l 539 1164 l 421 449 l 324 449 z "},"":{"ha":694,"x_min":122,"x_max":601,"o":"m 354 440 q 297 446 325 440 q 245 465 269 451 q 203 501 221 479 q 178 549 186 522 q 169 606 169 576 q 175 664 169 635 l 194 781 q 208 831 199 806 q 232 877 217 856 q 269 916 247 899 q 315 944 290 933 q 365 958 339 954 q 415 963 390 963 q 473 957 444 963 q 526 938 501 951 q 567 902 550 924 q 592 853 585 881 q 600 797 600 826 q 596 739 600 768 l 576 622 q 563 572 572 597 q 539 526 554 547 q 502 487 524 504 q 456 459 481 469 q 405 444 431 449 q 354 440 379 440 m 356 528 q 399 534 378 528 q 440 556 421 540 q 468 592 458 571 q 482 636 478 614 l 500 753 q 503 799 504 776 q 491 840 503 821 q 459 867 479 858 q 415 875 439 875 q 372 869 393 875 q 331 847 350 863 q 303 810 313 832 q 289 767 293 789 l 269 650 q 267 604 265 626 q 280 563 268 582 q 312 536 292 544 q 356 528 332 528 m 515 265 l 122 265 l 122 340 l 515 340 l 515 265 z "},"":{"ha":694,"x_min":6,"x_max":649,"o":"m 344 117 l 264 157 q 319 246 290 203 q 379 331 347 289 q 447 410 411 372 q 525 481 483 449 q 429 628 467 546 q 371 797 392 710 l 460 818 q 489 726 472 771 q 528 639 506 681 q 581 560 551 597 q 649 494 611 524 l 640 450 q 551 381 593 419 q 472 300 510 343 q 403 211 435 257 q 344 117 371 165 m 86 117 l 6 157 q 60 246 32 203 q 121 331 89 289 q 189 410 153 372 q 267 481 225 449 q 171 628 208 546 q 113 797 133 710 l 201 818 q 231 726 214 771 q 270 639 247 681 q 323 560 293 597 q 390 494 353 524 l 382 450 q 293 381 335 419 q 214 300 251 343 q 144 211 176 257 q 86 117 113 165 z "},"":{"ha":694,"x_min":79,"x_max":611,"o":"m 83 439 l 94 506 l 611 506 l 600 439 l 83 439 m 350 617 l 426 1079 l 339 1013 l 294 1065 l 443 1178 l 532 1178 l 439 617 l 350 617 m 258 -233 l 281 -94 l 81 -94 l 94 -15 l 347 328 l 443 328 l 192 -15 l 294 -15 l 313 93 l 401 93 l 383 -15 l 433 -15 l 419 -94 l 369 -94 l 347 -233 l 258 -233 z "},"":{"ha":694,"x_min":64,"x_max":611,"o":"m 83 439 l 94 506 l 611 506 l 600 439 l 83 439 m 350 617 l 426 1079 l 339 1013 l 294 1065 l 443 1178 l 532 1178 l 439 617 l 350 617 m 65 -233 l 65 -232 q 74 -182 69 -207 q 90 -133 79 -157 q 114 -85 100 -108 q 147 -43 128 -62 q 187 -7 165 -24 q 231 24 208 10 q 278 49 254 38 q 324 77 303 60 q 360 117 346 94 q 378 167 374 140 q 378 201 379 183 q 368 231 378 218 q 343 249 358 243 q 311 256 328 256 q 281 252 296 256 q 253 240 267 249 q 232 219 240 232 q 221 190 224 206 l 132 190 q 155 250 138 221 q 198 299 172 279 q 255 326 224 318 q 317 335 286 335 q 386 324 353 335 q 440 287 419 313 q 466 226 461 261 q 465 154 471 190 q 450 104 461 129 q 422 58 439 79 q 382 19 404 36 q 336 -11 360 3 q 288 -38 313 -25 q 242 -69 264 -51 q 202 -108 219 -86 q 174 -154 185 -129 l 410 -154 l 397 -233 l 65 -233 z "},"":{"ha":694,"x_min":79,"x_max":611,"o":"m 83 439 l 94 506 l 611 506 l 600 439 l 83 439 m 381 611 q 317 617 349 611 q 261 640 285 622 q 226 687 238 657 q 218 749 214 717 l 219 754 l 307 754 l 307 751 q 311 723 304 736 q 330 702 318 710 q 356 692 342 694 q 386 690 371 690 q 419 694 403 690 q 451 709 436 699 q 474 735 465 719 q 486 767 483 750 q 482 809 489 789 q 460 843 475 829 q 423 861 444 857 q 379 865 401 865 l 393 944 q 433 947 413 944 q 471 961 453 950 q 501 990 489 972 q 518 1029 514 1008 q 517 1059 521 1044 q 505 1085 514 1074 q 482 1101 496 1096 q 453 1106 468 1106 q 424 1102 439 1106 q 398 1090 410 1099 q 378 1067 386 1081 q 367 1040 369 1054 l 279 1040 l 279 1042 q 301 1099 285 1071 q 342 1148 317 1128 q 397 1176 367 1168 q 458 1185 428 1185 q 524 1174 492 1185 q 576 1141 556 1164 q 603 1085 596 1118 q 606 1019 611 1053 q 594 983 603 1001 q 572 949 585 964 q 542 922 558 933 q 508 901 526 910 q 540 876 525 892 q 563 840 556 860 q 574 799 571 821 q 572 753 576 776 q 549 693 567 722 q 503 644 531 664 q 444 618 476 625 q 381 611 411 611 m 258 -233 l 281 -94 l 81 -94 l 94 -15 l 347 328 l 443 328 l 192 -15 l 294 -15 l 313 93 l 401 93 l 383 -15 l 433 -15 l 419 -94 l 369 -94 l 347 -233 l 258 -233 z "},"":{"ha":694,"x_min":-3,"x_max":522,"o":"m 375 538 q 330 546 351 538 q 295 572 308 554 q 278 613 282 589 q 278 660 275 636 q 289 690 281 675 q 311 716 297 706 q 342 730 325 726 q 374 733 358 733 q 419 725 397 733 q 453 699 440 717 q 470 658 467 682 q 471 611 474 635 q 460 581 468 596 q 438 555 451 565 q 407 541 424 544 q 375 538 390 538 m 231 -310 q 161 -303 196 -310 q 97 -281 126 -297 q 46 -240 68 -265 q 13 -183 24 -214 q -1 -116 1 -151 q 3 -44 -3 -81 q 20 19 8 -12 q 49 81 32 51 q 89 139 67 111 q 136 192 111 167 q 188 240 161 217 q 235 291 214 263 q 266 351 256 319 q 282 415 276 383 l 393 415 q 379 350 388 383 q 356 285 371 317 q 320 224 342 253 q 274 168 299 194 q 224 117 250 142 q 173 65 197 92 q 132 6 149 38 q 110 -60 115 -26 q 110 -120 104 -90 q 133 -172 115 -150 q 179 -203 151 -193 q 239 -212 207 -212 q 301 -202 269 -212 q 356 -168 332 -192 q 394 -115 379 -144 q 413 -54 408 -85 l 414 -49 l 522 -49 l 521 -58 q 503 -124 515 -92 q 471 -187 490 -157 q 424 -241 451 -217 q 364 -281 396 -265 q 298 -303 332 -297 q 231 -310 264 -310 z "},"":{"ha":694,"x_min":-18,"x_max":556,"o":"m -17 0 l 375 1021 l 500 1021 l 556 0 l 443 0 l 433 264 l 192 264 l 96 0 l -17 0 m 429 361 l 417 681 q 414 769 415 725 q 411 856 413 813 q 379 769 396 813 q 347 681 363 725 l 229 361 l 429 361 m 469 1110 l 324 1299 l 413 1354 l 542 1154 l 469 1110 z "},"":{"ha":694,"x_min":-18,"x_max":647,"o":"m -17 0 l 375 1021 l 500 1021 l 556 0 l 443 0 l 433 264 l 192 264 l 96 0 l -17 0 m 429 361 l 417 681 q 414 769 415 725 q 411 856 413 813 q 379 769 396 813 q 347 681 363 725 l 229 361 l 429 361 m 440 1104 l 378 1160 l 574 1361 l 647 1292 l 440 1104 z "},"":{"ha":694,"x_min":-18,"x_max":657,"o":"m -17 0 l 375 1021 l 500 1021 l 556 0 l 443 0 l 433 264 l 192 264 l 96 0 l -17 0 m 429 361 l 417 681 q 414 769 415 725 q 411 856 413 813 q 379 769 396 813 q 347 681 363 725 l 229 361 l 429 361 m 326 1115 l 265 1167 l 431 1354 l 558 1354 l 657 1160 l 586 1122 l 482 1276 l 326 1115 z "},"":{"ha":694,"x_min":-18,"x_max":739,"o":"m -17 0 l 375 1021 l 500 1021 l 556 0 l 443 0 l 433 264 l 192 264 l 96 0 l -17 0 m 429 361 l 417 681 q 414 769 415 725 q 411 856 413 813 q 379 769 396 813 q 347 681 363 725 l 229 361 l 429 361 m 294 1128 l 210 1175 q 241 1221 226 1200 q 269 1258 256 1242 q 294 1289 282 1275 q 325 1317 307 1303 q 363 1341 343 1332 q 406 1350 383 1350 q 419 1349 413 1350 q 432 1346 426 1347 q 444 1342 438 1344 q 456 1335 450 1339 q 466 1328 461 1332 q 476 1319 471 1324 q 485 1310 481 1315 q 492 1300 489 1306 q 500 1289 496 1294 q 507 1278 504 1283 q 513 1269 510 1274 q 519 1257 515 1264 q 527 1244 524 1250 q 533 1233 531 1238 q 542 1222 536 1228 q 547 1215 547 1217 l 543 1215 q 549 1219 543 1217 q 560 1226 556 1222 q 569 1234 564 1229 q 576 1242 574 1239 q 581 1247 578 1244 q 586 1253 583 1250 q 592 1260 589 1257 q 599 1267 596 1264 q 605 1275 601 1271 q 612 1284 608 1279 q 619 1294 615 1289 q 626 1303 622 1299 q 633 1314 629 1308 q 640 1325 636 1319 q 648 1337 644 1331 q 656 1350 651 1343 l 739 1303 q 708 1258 722 1278 q 681 1220 694 1238 q 654 1189 667 1203 q 624 1160 642 1175 q 587 1137 607 1146 q 544 1128 567 1128 q 531 1129 538 1128 q 517 1132 524 1131 q 506 1136 511 1133 q 494 1142 500 1139 q 484 1150 489 1146 q 474 1158 479 1154 q 465 1167 469 1163 q 457 1178 461 1172 q 449 1189 453 1183 q 442 1199 444 1194 q 438 1209 440 1204 q 430 1221 435 1214 q 422 1234 425 1228 q 416 1245 419 1240 q 407 1256 413 1250 q 403 1263 401 1261 l 407 1263 l 400 1260 q 390 1252 394 1256 q 381 1244 386 1249 q 374 1236 376 1239 q 368 1231 371 1233 q 363 1224 365 1228 q 358 1217 361 1221 q 351 1210 354 1214 q 345 1203 349 1207 q 338 1194 342 1199 q 331 1185 335 1189 q 324 1175 328 1181 q 317 1164 321 1169 q 309 1153 313 1158 q 301 1141 306 1147 q 294 1128 297 1135 z "},"":{"ha":694,"x_min":-18,"x_max":700,"o":"m -17 0 l 375 1021 l 500 1021 l 556 0 l 443 0 l 433 264 l 192 264 l 96 0 l -17 0 m 429 361 l 417 681 q 414 769 415 725 q 411 856 413 813 q 379 769 396 813 q 347 681 363 725 l 229 361 l 429 361 m 611 1143 q 572 1151 592 1143 q 542 1174 553 1158 q 528 1209 531 1189 q 528 1250 525 1229 q 538 1277 531 1264 q 557 1299 544 1290 q 583 1312 569 1308 q 613 1315 597 1315 q 651 1308 632 1315 q 682 1285 671 1300 q 697 1249 693 1269 q 696 1208 700 1229 q 686 1181 693 1194 q 667 1159 679 1168 q 640 1147 654 1150 q 611 1143 626 1143 m 333 1143 q 294 1151 314 1143 q 264 1174 275 1158 q 250 1209 253 1189 q 250 1250 247 1229 q 260 1277 253 1264 q 279 1299 267 1290 q 306 1312 292 1308 q 335 1315 319 1315 q 374 1308 354 1315 q 404 1285 393 1300 q 419 1249 415 1269 q 418 1208 422 1229 q 408 1181 415 1194 q 389 1159 401 1168 q 363 1147 376 1150 q 333 1143 349 1143 z "},"":{"ha":694,"x_min":-18,"x_max":601,"o":"m -17 0 l 375 1021 l 500 1021 l 556 0 l 443 0 l 433 264 l 192 264 l 96 0 l -17 0 m 429 361 l 417 681 q 414 769 415 725 q 411 856 413 813 q 379 769 396 813 q 347 681 363 725 l 229 361 l 429 361 m 472 1101 q 414 1113 442 1101 q 369 1146 386 1124 q 347 1199 351 1168 q 347 1260 343 1229 q 363 1301 351 1281 q 392 1334 374 1321 q 431 1352 410 1347 q 474 1357 451 1357 q 513 1353 493 1357 q 549 1338 533 1349 q 577 1313 565 1328 q 594 1278 589 1297 q 601 1239 600 1260 q 599 1199 601 1218 q 585 1158 596 1178 q 556 1124 574 1138 q 516 1106 538 1111 q 472 1101 494 1101 m 474 1174 q 492 1176 482 1174 q 509 1183 501 1178 q 522 1198 517 1189 q 528 1215 526 1207 q 528 1242 531 1229 q 519 1265 526 1256 q 499 1280 511 1275 q 472 1285 486 1285 q 455 1283 464 1285 q 438 1275 446 1281 q 424 1260 429 1269 q 418 1243 419 1251 q 418 1216 417 1229 q 427 1193 419 1203 q 447 1178 435 1183 q 474 1174 460 1174 z "},"":{"ha":694,"x_min":-31,"x_max":715,"o":"m -29 0 l 361 1021 l 714 1021 l 699 924 l 499 924 l 442 579 l 619 579 l 603 482 l 425 482 l 361 97 l 561 97 l 546 0 l 244 0 l 289 271 l 174 271 l 74 0 l -29 0 m 207 361 l 304 361 l 382 836 q 353 758 368 797 q 325 681 339 719 l 207 361 z "},"":{"ha":694,"x_min":40,"x_max":667,"o":"m 286 -11 q 208 -3 246 -11 q 138 24 169 4 q 85 74 107 44 q 52 141 63 104 q 42 217 42 178 q 49 297 42 257 l 128 776 q 145 845 133 811 q 177 910 157 879 q 226 965 197 940 q 287 1004 254 989 q 355 1026 319 1019 q 425 1032 390 1032 q 493 1026 460 1032 q 556 1007 526 1021 q 610 970 586 993 q 646 917 633 947 q 662 853 658 888 q 660 783 665 819 l 658 771 l 550 771 l 551 779 q 551 842 556 811 q 526 894 546 872 q 477 926 507 917 q 415 935 447 935 q 349 922 383 935 q 291 884 315 910 q 253 826 267 858 q 235 761 240 794 l 156 282 q 151 233 151 257 q 156 185 150 208 q 173 143 161 163 q 204 110 185 124 q 247 92 224 97 q 294 86 271 86 q 361 98 328 86 q 420 134 394 110 q 463 190 446 158 q 488 253 479 221 l 589 229 q 547 134 575 181 q 478 53 519 88 q 387 4 438 19 q 286 -11 336 -11 m 79 -306 l 94 -218 l 233 -218 q 256 -216 244 -218 q 278 -208 267 -214 q 296 -191 289 -201 q 306 -169 303 -181 q 303 -148 307 -158 q 291 -131 299 -137 q 272 -122 283 -124 q 249 -119 260 -119 l 200 -119 l 235 86 l 332 86 l 308 -57 q 347 -72 329 -61 q 376 -99 365 -82 q 390 -136 388 -115 q 389 -179 393 -157 q 369 -233 385 -207 q 329 -276 354 -260 q 275 -299 304 -293 q 218 -306 246 -306 l 79 -306 z "},"":{"ha":694,"x_min":21,"x_max":697,"o":"m 22 0 l 190 1021 l 696 1021 l 681 924 l 285 924 l 228 579 l 546 579 l 529 482 l 211 482 l 147 97 l 543 97 l 528 0 l 22 0 m 469 1110 l 324 1299 l 413 1354 l 542 1154 l 469 1110 z "},"":{"ha":694,"x_min":21,"x_max":697,"o":"m 22 0 l 190 1021 l 696 1021 l 681 924 l 285 924 l 228 579 l 546 579 l 529 482 l 211 482 l 147 97 l 543 97 l 528 0 l 22 0 m 440 1104 l 378 1160 l 574 1361 l 647 1292 l 440 1104 z "},"":{"ha":694,"x_min":21,"x_max":697,"o":"m 22 0 l 190 1021 l 696 1021 l 681 924 l 285 924 l 228 579 l 546 579 l 529 482 l 211 482 l 147 97 l 543 97 l 528 0 l 22 0 m 326 1115 l 265 1167 l 431 1354 l 558 1354 l 657 1160 l 586 1122 l 482 1276 l 326 1115 z "},"":{"ha":694,"x_min":21,"x_max":700,"o":"m 22 0 l 190 1021 l 696 1021 l 681 924 l 285 924 l 228 579 l 546 579 l 529 482 l 211 482 l 147 97 l 543 97 l 528 0 l 22 0 m 611 1143 q 572 1151 592 1143 q 542 1174 553 1158 q 528 1209 531 1189 q 528 1250 525 1229 q 538 1277 531 1264 q 557 1299 544 1290 q 583 1312 569 1308 q 613 1315 597 1315 q 651 1308 632 1315 q 682 1285 671 1300 q 697 1249 693 1269 q 696 1208 700 1229 q 686 1181 693 1194 q 667 1159 679 1168 q 640 1147 654 1150 q 611 1143 626 1143 m 333 1143 q 294 1151 314 1143 q 264 1174 275 1158 q 250 1209 253 1189 q 250 1250 247 1229 q 260 1277 253 1264 q 279 1299 267 1290 q 306 1312 292 1308 q 335 1315 319 1315 q 374 1308 354 1315 q 404 1285 393 1300 q 419 1249 415 1269 q 418 1208 422 1229 q 408 1181 415 1194 q 389 1159 401 1168 q 363 1147 376 1150 q 333 1143 349 1143 z "},"":{"ha":694,"x_min":35,"x_max":672,"o":"m 522 0 l 36 0 l 35 97 l 231 97 l 368 924 l 186 924 l 185 1021 l 671 1021 l 672 924 l 476 924 l 339 97 l 521 97 l 522 0 m 469 1110 l 324 1299 l 413 1354 l 542 1154 l 469 1110 z "},"":{"ha":694,"x_min":35,"x_max":672,"o":"m 522 0 l 36 0 l 35 97 l 231 97 l 368 924 l 186 924 l 185 1021 l 671 1021 l 672 924 l 476 924 l 339 97 l 521 97 l 522 0 m 440 1104 l 378 1160 l 574 1361 l 647 1292 l 440 1104 z "},"":{"ha":694,"x_min":35,"x_max":672,"o":"m 522 0 l 36 0 l 35 97 l 231 97 l 368 924 l 186 924 l 185 1021 l 671 1021 l 672 924 l 476 924 l 339 97 l 521 97 l 522 0 m 326 1115 l 265 1167 l 431 1354 l 558 1354 l 657 1160 l 586 1122 l 482 1276 l 326 1115 z "},"":{"ha":694,"x_min":35,"x_max":700,"o":"m 522 0 l 36 0 l 35 97 l 231 97 l 368 924 l 186 924 l 185 1021 l 671 1021 l 672 924 l 476 924 l 339 97 l 521 97 l 522 0 m 611 1143 q 572 1151 592 1143 q 542 1174 553 1158 q 528 1209 531 1189 q 528 1250 525 1229 q 538 1277 531 1264 q 557 1299 544 1290 q 583 1312 569 1308 q 613 1315 597 1315 q 651 1308 632 1315 q 682 1285 671 1300 q 697 1249 693 1269 q 696 1208 700 1229 q 686 1181 693 1194 q 667 1159 679 1168 q 640 1147 654 1150 q 611 1143 626 1143 m 333 1143 q 294 1151 314 1143 q 264 1174 275 1158 q 250 1209 253 1189 q 250 1250 247 1229 q 260 1277 253 1264 q 279 1299 267 1290 q 306 1312 292 1308 q 335 1315 319 1315 q 374 1308 354 1315 q 404 1285 393 1300 q 419 1249 415 1269 q 418 1208 422 1229 q 408 1181 415 1194 q 389 1159 401 1168 q 363 1147 376 1150 q 333 1143 349 1143 z "},"":{"ha":694,"x_min":10,"x_max":661,"o":"m 246 0 l 11 0 l 89 468 l 32 468 l 32 553 l 103 553 l 179 1021 l 382 1021 q 469 1013 426 1021 q 547 986 511 1006 q 608 935 582 967 q 647 865 633 904 q 660 783 660 826 q 654 696 661 740 l 583 271 q 564 196 578 233 q 526 126 550 158 q 468 67 501 93 q 397 26 435 42 q 322 6 360 11 q 246 0 283 0 m 136 97 l 244 97 q 297 101 271 97 q 350 117 324 106 q 399 145 376 128 q 438 185 421 163 q 463 235 454 208 q 476 288 472 261 l 547 713 q 551 767 551 739 q 544 819 551 794 q 522 865 538 844 q 485 899 507 886 q 437 918 463 913 q 383 924 411 924 l 274 924 l 213 553 l 347 553 l 347 468 l 199 468 l 136 97 z "},"":{"ha":694,"x_min":10,"x_max":739,"o":"m 11 0 l 179 1021 l 308 1021 l 461 171 q 488 391 475 281 q 519 613 500 501 l 586 1021 l 696 1021 l 528 0 l 399 0 l 246 850 q 219 630 232 740 q 188 408 207 519 l 121 0 l 11 0 m 294 1128 l 210 1175 q 241 1221 226 1200 q 269 1258 256 1242 q 294 1289 282 1275 q 325 1317 307 1303 q 363 1341 343 1332 q 406 1350 383 1350 q 419 1349 413 1350 q 432 1346 426 1347 q 444 1342 438 1344 q 456 1335 450 1339 q 466 1328 461 1332 q 476 1319 471 1324 q 485 1310 481 1315 q 492 1300 489 1306 q 500 1289 496 1294 q 507 1278 504 1283 q 513 1269 510 1274 q 519 1257 515 1264 q 527 1244 524 1250 q 533 1233 531 1238 q 542 1222 536 1228 q 547 1215 547 1217 l 543 1215 q 549 1219 543 1217 q 560 1226 556 1222 q 569 1234 564 1229 q 576 1242 574 1239 q 581 1247 578 1244 q 586 1253 583 1250 q 592 1260 589 1257 q 599 1267 596 1264 q 605 1275 601 1271 q 612 1284 608 1279 q 619 1294 615 1289 q 626 1303 622 1299 q 633 1314 629 1308 q 640 1325 636 1319 q 648 1337 644 1331 q 656 1350 651 1343 l 739 1303 q 708 1258 722 1278 q 681 1220 694 1238 q 654 1189 667 1203 q 624 1160 642 1175 q 587 1137 607 1146 q 544 1128 567 1128 q 531 1129 538 1128 q 517 1132 524 1131 q 506 1136 511 1133 q 494 1142 500 1139 q 484 1150 489 1146 q 474 1158 479 1154 q 465 1167 469 1163 q 457 1178 461 1172 q 449 1189 453 1183 q 442 1199 444 1194 q 438 1209 440 1204 q 430 1221 435 1214 q 422 1234 425 1228 q 416 1245 419 1240 q 407 1256 413 1250 q 403 1263 401 1261 l 407 1263 l 400 1260 q 390 1252 394 1256 q 381 1244 386 1249 q 374 1236 376 1239 q 368 1231 371 1233 q 363 1224 365 1228 q 358 1217 361 1221 q 351 1210 354 1214 q 345 1203 349 1207 q 338 1194 342 1199 q 331 1185 335 1189 q 324 1175 328 1181 q 317 1164 321 1169 q 309 1153 313 1158 q 301 1141 306 1147 q 294 1128 297 1135 z "},"":{"ha":694,"x_min":42,"x_max":667,"o":"m 282 -11 q 204 -3 242 -11 q 135 24 167 4 q 83 75 104 44 q 51 142 61 106 q 42 219 42 179 q 49 297 43 258 l 128 776 q 146 845 133 811 q 178 910 158 879 q 226 965 197 940 q 288 1004 256 989 q 355 1026 319 1019 q 425 1032 390 1032 q 503 1024 465 1032 q 572 997 540 1017 q 624 946 603 976 q 656 878 646 915 q 665 802 665 842 q 658 724 665 763 l 579 244 q 562 176 574 210 q 530 111 550 142 q 481 56 510 81 q 420 17 453 32 q 352 -5 388 1 q 282 -11 317 -11 m 283 86 q 328 90 306 86 q 373 106 351 94 q 412 134 394 117 q 442 172 429 151 q 461 215 454 193 q 472 260 468 238 l 551 739 q 556 787 556 763 q 553 833 557 811 q 538 876 549 856 q 511 909 528 896 q 472 928 494 922 q 424 935 449 935 q 378 931 401 935 q 334 915 356 926 q 295 887 313 904 q 265 849 278 869 q 246 806 253 828 q 235 761 239 783 l 156 282 q 151 234 153 258 q 154 188 150 210 q 169 145 158 165 q 196 112 179 125 q 235 92 213 99 q 283 86 258 86 m 469 1110 l 324 1299 l 413 1354 l 542 1154 l 469 1110 z "},"":{"ha":694,"x_min":42,"x_max":667,"o":"m 282 -11 q 204 -3 242 -11 q 135 24 167 4 q 83 75 104 44 q 51 142 61 106 q 42 219 42 179 q 49 297 43 258 l 128 776 q 146 845 133 811 q 178 910 158 879 q 226 965 197 940 q 288 1004 256 989 q 355 1026 319 1019 q 425 1032 390 1032 q 503 1024 465 1032 q 572 997 540 1017 q 624 946 603 976 q 656 878 646 915 q 665 802 665 842 q 658 724 665 763 l 579 244 q 562 176 574 210 q 530 111 550 142 q 481 56 510 81 q 420 17 453 32 q 352 -5 388 1 q 282 -11 317 -11 m 283 86 q 328 90 306 86 q 373 106 351 94 q 412 134 394 117 q 442 172 429 151 q 461 215 454 193 q 472 260 468 238 l 551 739 q 556 787 556 763 q 553 833 557 811 q 538 876 549 856 q 511 909 528 896 q 472 928 494 922 q 424 935 449 935 q 378 931 401 935 q 334 915 356 926 q 295 887 313 904 q 265 849 278 869 q 246 806 253 828 q 235 761 239 783 l 156 282 q 151 234 153 258 q 154 188 150 210 q 169 145 158 165 q 196 112 179 125 q 235 92 213 99 q 283 86 258 86 m 440 1104 l 378 1160 l 574 1361 l 647 1292 l 440 1104 z "},"":{"ha":694,"x_min":42,"x_max":667,"o":"m 282 -11 q 204 -3 242 -11 q 135 24 167 4 q 83 75 104 44 q 51 142 61 106 q 42 219 42 179 q 49 297 43 258 l 128 776 q 146 845 133 811 q 178 910 158 879 q 226 965 197 940 q 288 1004 256 989 q 355 1026 319 1019 q 425 1032 390 1032 q 503 1024 465 1032 q 572 997 540 1017 q 624 946 603 976 q 656 878 646 915 q 665 802 665 842 q 658 724 665 763 l 579 244 q 562 176 574 210 q 530 111 550 142 q 481 56 510 81 q 420 17 453 32 q 352 -5 388 1 q 282 -11 317 -11 m 283 86 q 328 90 306 86 q 373 106 351 94 q 412 134 394 117 q 442 172 429 151 q 461 215 454 193 q 472 260 468 238 l 551 739 q 556 787 556 763 q 553 833 557 811 q 538 876 549 856 q 511 909 528 896 q 472 928 494 922 q 424 935 449 935 q 378 931 401 935 q 334 915 356 926 q 295 887 313 904 q 265 849 278 869 q 246 806 253 828 q 235 761 239 783 l 156 282 q 151 234 153 258 q 154 188 150 210 q 169 145 158 165 q 196 112 179 125 q 235 92 213 99 q 283 86 258 86 m 326 1115 l 265 1167 l 431 1354 l 558 1354 l 657 1160 l 586 1122 l 482 1276 l 326 1115 z "},"":{"ha":694,"x_min":42,"x_max":739,"o":"m 282 -11 q 204 -3 242 -11 q 135 24 167 4 q 83 75 104 44 q 51 142 61 106 q 42 219 42 179 q 49 297 43 258 l 128 776 q 146 845 133 811 q 178 910 158 879 q 226 965 197 940 q 288 1004 256 989 q 355 1026 319 1019 q 425 1032 390 1032 q 503 1024 465 1032 q 572 997 540 1017 q 624 946 603 976 q 656 878 646 915 q 665 802 665 842 q 658 724 665 763 l 579 244 q 562 176 574 210 q 530 111 550 142 q 481 56 510 81 q 420 17 453 32 q 352 -5 388 1 q 282 -11 317 -11 m 283 86 q 328 90 306 86 q 373 106 351 94 q 412 134 394 117 q 442 172 429 151 q 461 215 454 193 q 472 260 468 238 l 551 739 q 556 787 556 763 q 553 833 557 811 q 538 876 549 856 q 511 909 528 896 q 472 928 494 922 q 424 935 449 935 q 378 931 401 935 q 334 915 356 926 q 295 887 313 904 q 265 849 278 869 q 246 806 253 828 q 235 761 239 783 l 156 282 q 151 234 153 258 q 154 188 150 210 q 169 145 158 165 q 196 112 179 125 q 235 92 213 99 q 283 86 258 86 m 294 1128 l 210 1175 q 241 1221 226 1200 q 269 1258 256 1242 q 294 1289 282 1275 q 325 1317 307 1303 q 363 1341 343 1332 q 406 1350 383 1350 q 419 1349 413 1350 q 432 1346 426 1347 q 444 1342 438 1344 q 456 1335 450 1339 q 466 1328 461 1332 q 476 1319 471 1324 q 485 1310 481 1315 q 492 1300 489 1306 q 500 1289 496 1294 q 507 1278 504 1283 q 513 1269 510 1274 q 519 1257 515 1264 q 527 1244 524 1250 q 533 1233 531 1238 q 542 1222 536 1228 q 547 1215 547 1217 l 543 1215 q 549 1219 543 1217 q 560 1226 556 1222 q 569 1234 564 1229 q 576 1242 574 1239 q 581 1247 578 1244 q 586 1253 583 1250 q 592 1260 589 1257 q 599 1267 596 1264 q 605 1275 601 1271 q 612 1284 608 1279 q 619 1294 615 1289 q 626 1303 622 1299 q 633 1314 629 1308 q 640 1325 636 1319 q 648 1337 644 1331 q 656 1350 651 1343 l 739 1303 q 708 1258 722 1278 q 681 1220 694 1238 q 654 1189 667 1203 q 624 1160 642 1175 q 587 1137 607 1146 q 544 1128 567 1128 q 531 1129 538 1128 q 517 1132 524 1131 q 506 1136 511 1133 q 494 1142 500 1139 q 484 1150 489 1146 q 474 1158 479 1154 q 465 1167 469 1163 q 457 1178 461 1172 q 449 1189 453 1183 q 442 1199 444 1194 q 438 1209 440 1204 q 430 1221 435 1214 q 422 1234 425 1228 q 416 1245 419 1240 q 407 1256 413 1250 q 403 1263 401 1261 l 407 1263 l 400 1260 q 390 1252 394 1256 q 381 1244 386 1249 q 374 1236 376 1239 q 368 1231 371 1233 q 363 1224 365 1228 q 358 1217 361 1221 q 351 1210 354 1214 q 345 1203 349 1207 q 338 1194 342 1199 q 331 1185 335 1189 q 324 1175 328 1181 q 317 1164 321 1169 q 309 1153 313 1158 q 301 1141 306 1147 q 294 1128 297 1135 z "},"":{"ha":694,"x_min":42,"x_max":700,"o":"m 282 -11 q 204 -3 242 -11 q 135 24 167 4 q 83 75 104 44 q 51 142 61 106 q 42 219 42 179 q 49 297 43 258 l 128 776 q 146 845 133 811 q 178 910 158 879 q 226 965 197 940 q 288 1004 256 989 q 355 1026 319 1019 q 425 1032 390 1032 q 503 1024 465 1032 q 572 997 540 1017 q 624 946 603 976 q 656 878 646 915 q 665 802 665 842 q 658 724 665 763 l 579 244 q 562 176 574 210 q 530 111 550 142 q 481 56 510 81 q 420 17 453 32 q 352 -5 388 1 q 282 -11 317 -11 m 283 86 q 328 90 306 86 q 373 106 351 94 q 412 134 394 117 q 442 172 429 151 q 461 215 454 193 q 472 260 468 238 l 551 739 q 556 787 556 763 q 553 833 557 811 q 538 876 549 856 q 511 909 528 896 q 472 928 494 922 q 424 935 449 935 q 378 931 401 935 q 334 915 356 926 q 295 887 313 904 q 265 849 278 869 q 246 806 253 828 q 235 761 239 783 l 156 282 q 151 234 153 258 q 154 188 150 210 q 169 145 158 165 q 196 112 179 125 q 235 92 213 99 q 283 86 258 86 m 611 1143 q 572 1151 592 1143 q 542 1174 553 1158 q 528 1209 531 1189 q 528 1250 525 1229 q 538 1277 531 1264 q 557 1299 544 1290 q 583 1312 569 1308 q 613 1315 597 1315 q 651 1308 632 1315 q 682 1285 671 1300 q 697 1249 693 1269 q 696 1208 700 1229 q 686 1181 693 1194 q 667 1159 679 1168 q 640 1147 654 1150 q 611 1143 626 1143 m 333 1143 q 294 1151 314 1143 q 264 1174 275 1158 q 250 1209 253 1189 q 250 1250 247 1229 q 260 1277 253 1264 q 279 1299 267 1290 q 306 1312 292 1308 q 335 1315 319 1315 q 374 1308 354 1315 q 404 1285 393 1300 q 419 1249 415 1269 q 418 1208 422 1229 q 408 1181 415 1194 q 389 1159 401 1168 q 363 1147 376 1150 q 333 1143 349 1143 z "},"":{"ha":694,"x_min":-14,"x_max":708,"o":"m 53 157 l -12 226 l 279 478 l 74 724 l 153 782 l 353 542 l 642 788 l 707 718 l 415 467 l 621 221 l 542 163 l 342 403 l 53 157 z "},"":{"ha":694,"x_min":-7,"x_max":715,"o":"m 74 -72 l -7 -31 l 68 100 q 50 146 56 122 q 42 194 44 169 q 42 246 40 219 q 49 297 44 272 l 128 776 q 146 845 133 811 q 178 910 158 879 q 226 965 197 940 q 288 1004 256 989 q 355 1026 319 1019 q 425 1032 390 1032 q 506 1024 467 1032 q 576 993 544 1015 l 633 1093 l 714 1051 l 639 921 q 657 875 651 899 q 665 826 663 851 q 665 775 667 801 q 658 724 663 749 l 579 244 q 562 176 574 210 q 530 111 550 142 q 481 56 510 81 q 420 17 453 32 q 352 -5 388 1 q 282 -11 317 -11 q 201 -3 240 -11 q 131 28 163 6 l 74 -72 m 150 247 l 522 899 q 478 926 504 917 q 424 935 453 935 q 378 931 401 935 q 334 915 356 926 q 295 887 313 904 q 265 849 278 869 q 246 806 253 828 q 235 761 239 783 l 150 247 m 283 86 q 328 90 306 86 q 373 106 351 94 q 412 134 394 117 q 442 172 429 151 q 461 215 454 193 q 472 260 468 238 l 557 774 l 185 122 q 228 95 203 104 q 283 86 254 86 z "},"":{"ha":694,"x_min":51,"x_max":697,"o":"m 283 -11 q 206 -3 243 -11 q 140 26 169 6 q 90 78 110 47 q 61 144 71 108 q 53 219 51 181 q 60 297 54 258 l 179 1021 l 289 1021 l 167 282 q 162 235 164 258 q 164 190 160 213 q 176 148 168 168 q 201 113 185 128 q 238 92 217 99 q 283 86 260 86 q 349 99 315 86 q 406 137 382 111 q 443 195 431 163 q 461 260 456 228 l 586 1021 l 696 1021 l 568 244 q 551 178 563 211 q 522 114 540 144 q 476 58 503 83 q 417 17 449 33 q 351 -5 385 1 q 283 -11 317 -11 m 469 1110 l 324 1299 l 413 1354 l 542 1154 l 469 1110 z "},"":{"ha":694,"x_min":51,"x_max":697,"o":"m 283 -11 q 206 -3 243 -11 q 140 26 169 6 q 90 78 110 47 q 61 144 71 108 q 53 219 51 181 q 60 297 54 258 l 179 1021 l 289 1021 l 167 282 q 162 235 164 258 q 164 190 160 213 q 176 148 168 168 q 201 113 185 128 q 238 92 217 99 q 283 86 260 86 q 349 99 315 86 q 406 137 382 111 q 443 195 431 163 q 461 260 456 228 l 586 1021 l 696 1021 l 568 244 q 551 178 563 211 q 522 114 540 144 q 476 58 503 83 q 417 17 449 33 q 351 -5 385 1 q 283 -11 317 -11 m 440 1104 l 378 1160 l 574 1361 l 647 1292 l 440 1104 z "},"":{"ha":694,"x_min":51,"x_max":697,"o":"m 283 -11 q 206 -3 243 -11 q 140 26 169 6 q 90 78 110 47 q 61 144 71 108 q 53 219 51 181 q 60 297 54 258 l 179 1021 l 289 1021 l 167 282 q 162 235 164 258 q 164 190 160 213 q 176 148 168 168 q 201 113 185 128 q 238 92 217 99 q 283 86 260 86 q 349 99 315 86 q 406 137 382 111 q 443 195 431 163 q 461 260 456 228 l 586 1021 l 696 1021 l 568 244 q 551 178 563 211 q 522 114 540 144 q 476 58 503 83 q 417 17 449 33 q 351 -5 385 1 q 283 -11 317 -11 m 326 1115 l 265 1167 l 431 1354 l 558 1354 l 657 1160 l 586 1122 l 482 1276 l 326 1115 z "},"":{"ha":694,"x_min":51,"x_max":700,"o":"m 283 -11 q 206 -3 243 -11 q 140 26 169 6 q 90 78 110 47 q 61 144 71 108 q 53 219 51 181 q 60 297 54 258 l 179 1021 l 289 1021 l 167 282 q 162 235 164 258 q 164 190 160 213 q 176 148 168 168 q 201 113 185 128 q 238 92 217 99 q 283 86 260 86 q 349 99 315 86 q 406 137 382 111 q 443 195 431 163 q 461 260 456 228 l 586 1021 l 696 1021 l 568 244 q 551 178 563 211 q 522 114 540 144 q 476 58 503 83 q 417 17 449 33 q 351 -5 385 1 q 283 -11 317 -11 m 611 1143 q 572 1151 592 1143 q 542 1174 553 1158 q 528 1209 531 1189 q 528 1250 525 1229 q 538 1277 531 1264 q 557 1299 544 1290 q 583 1312 569 1308 q 613 1315 597 1315 q 651 1308 632 1315 q 682 1285 671 1300 q 697 1249 693 1269 q 696 1208 700 1229 q 686 1181 693 1194 q 667 1159 679 1168 q 640 1147 654 1150 q 611 1143 626 1143 m 333 1143 q 294 1151 314 1143 q 264 1174 275 1158 q 250 1209 253 1189 q 250 1250 247 1229 q 260 1277 253 1264 q 279 1299 267 1290 q 306 1312 292 1308 q 335 1315 319 1315 q 374 1308 354 1315 q 404 1285 393 1300 q 419 1249 415 1269 q 418 1208 422 1229 q 408 1181 415 1194 q 389 1159 401 1168 q 363 1147 376 1150 q 333 1143 349 1143 z "},"":{"ha":694,"x_min":153,"x_max":724,"o":"m 215 0 l 285 418 l 153 1021 l 269 1021 l 360 556 l 606 1021 l 722 1021 l 390 406 l 324 0 l 215 0 m 440 1104 l 378 1160 l 574 1361 l 647 1292 l 440 1104 z "},"":{"ha":694,"x_min":32,"x_max":626,"o":"m 33 0 l 201 1021 l 311 1021 l 279 826 l 332 826 q 422 819 378 826 q 504 790 467 811 q 569 736 542 769 q 610 662 596 703 q 626 575 625 621 q 618 483 626 529 q 598 403 613 443 q 557 327 583 363 q 496 265 531 292 q 421 222 461 239 q 340 200 381 206 q 258 194 299 194 l 175 194 l 143 0 l 33 0 m 258 292 q 315 296 286 292 q 373 312 344 300 q 426 343 401 324 q 469 388 451 363 q 497 442 488 413 q 511 499 507 471 q 517 559 517 529 q 508 616 517 589 q 484 666 500 643 q 444 703 468 689 q 391 724 419 718 q 333 729 363 729 l 264 729 l 190 292 l 258 292 z "},"":{"ha":694,"x_min":-181,"x_max":639,"o":"m -179 -310 l -181 -212 q -118 -204 -150 -212 q -60 -175 -86 -196 q -20 -124 -35 -154 q 0 -64 -6 -94 l 131 722 q 147 795 136 758 q 174 867 157 832 q 215 933 190 901 q 271 988 239 964 q 340 1022 303 1011 q 414 1032 378 1032 q 482 1026 449 1032 q 544 1003 515 1019 q 592 963 572 988 q 624 907 613 938 q 637 842 635 876 q 633 772 639 807 q 615 703 628 738 q 582 636 601 668 q 537 576 563 604 q 481 525 511 547 q 537 481 513 507 q 574 419 561 454 q 588 347 588 385 q 583 269 589 308 q 562 190 576 229 q 519 119 547 151 q 456 63 492 86 q 382 24 421 39 q 303 5 343 10 q 224 0 264 0 l 167 0 l 182 97 l 239 97 q 292 101 265 97 q 345 115 319 104 q 394 142 371 125 q 435 182 418 160 q 461 230 451 204 q 475 282 471 256 q 478 334 479 308 q 467 381 478 360 q 440 419 457 403 q 399 445 422 436 q 351 458 376 454 q 300 461 326 461 l 315 560 q 369 569 342 560 q 418 596 396 579 q 458 635 440 613 q 490 681 476 657 q 513 731 503 706 q 526 783 522 757 q 528 841 532 813 q 510 892 524 869 q 469 924 496 914 q 414 935 443 935 q 364 924 389 935 q 319 895 339 914 q 287 853 300 876 q 263 805 274 829 q 247 756 253 781 q 238 707 242 732 l 110 -64 q 92 -130 104 -97 q 61 -192 81 -162 q 14 -246 42 -222 q -47 -284 -14 -269 q -112 -304 -79 -299 q -179 -310 -146 -310 z "},"":{"ha":694,"x_min":39,"x_max":647,"o":"m 233 -11 q 162 0 196 -11 q 103 35 128 11 q 65 90 79 58 q 45 158 50 122 q 42 231 40 193 q 50 304 44 268 l 78 471 q 92 534 83 503 q 115 595 100 565 q 152 651 131 625 q 201 697 174 678 q 261 725 229 717 q 325 733 293 733 q 395 723 361 733 q 453 690 429 713 q 492 637 478 668 q 513 571 507 606 l 538 722 l 647 722 l 547 121 q 547 107 546 114 q 552 95 549 100 q 563 88 556 90 q 576 86 569 86 l 606 86 l 604 -11 l 560 -11 q 508 -4 533 -11 q 464 19 482 3 q 440 63 446 36 q 436 115 433 89 q 401 63 422 88 q 352 22 379 39 q 294 -3 325 4 q 233 -11 263 -11 m 278 86 q 344 97 310 86 q 402 133 378 108 q 440 190 426 157 q 460 254 454 222 l 488 421 q 494 471 492 446 q 492 519 496 496 q 481 565 489 543 q 456 604 472 588 q 417 628 440 621 q 369 636 394 636 q 324 631 347 636 q 279 614 300 626 q 242 583 258 601 q 213 544 225 565 q 195 500 201 522 q 185 456 189 478 l 157 289 q 151 241 153 265 q 153 194 150 217 q 167 150 157 171 q 193 115 176 129 q 232 93 210 100 q 278 86 254 86 m 419 811 l 274 1000 l 363 1056 l 492 856 l 419 811 z "},"":{"ha":694,"x_min":39,"x_max":647,"o":"m 233 -11 q 162 0 196 -11 q 103 35 128 11 q 65 90 79 58 q 45 158 50 122 q 42 231 40 193 q 50 304 44 268 l 78 471 q 92 534 83 503 q 115 595 100 565 q 152 651 131 625 q 201 697 174 678 q 261 725 229 717 q 325 733 293 733 q 395 723 361 733 q 453 690 429 713 q 492 637 478 668 q 513 571 507 606 l 538 722 l 647 722 l 547 121 q 547 107 546 114 q 552 95 549 100 q 563 88 556 90 q 576 86 569 86 l 606 86 l 604 -11 l 560 -11 q 508 -4 533 -11 q 464 19 482 3 q 440 63 446 36 q 436 115 433 89 q 401 63 422 88 q 352 22 379 39 q 294 -3 325 4 q 233 -11 263 -11 m 278 86 q 344 97 310 86 q 402 133 378 108 q 440 190 426 157 q 460 254 454 222 l 488 421 q 494 471 492 446 q 492 519 496 496 q 481 565 489 543 q 456 604 472 588 q 417 628 440 621 q 369 636 394 636 q 324 631 347 636 q 279 614 300 626 q 242 583 258 601 q 213 544 225 565 q 195 500 201 522 q 185 456 189 478 l 157 289 q 151 241 153 265 q 153 194 150 217 q 167 150 157 171 q 193 115 176 129 q 232 93 210 100 q 278 86 254 86 m 390 806 l 328 861 l 524 1063 l 597 993 l 390 806 z "},"":{"ha":694,"x_min":39,"x_max":647,"o":"m 233 -11 q 162 0 196 -11 q 103 35 128 11 q 65 90 79 58 q 45 158 50 122 q 42 231 40 193 q 50 304 44 268 l 78 471 q 92 534 83 503 q 115 595 100 565 q 152 651 131 625 q 201 697 174 678 q 261 725 229 717 q 325 733 293 733 q 395 723 361 733 q 453 690 429 713 q 492 637 478 668 q 513 571 507 606 l 538 722 l 647 722 l 547 121 q 547 107 546 114 q 552 95 549 100 q 563 88 556 90 q 576 86 569 86 l 606 86 l 604 -11 l 560 -11 q 508 -4 533 -11 q 464 19 482 3 q 440 63 446 36 q 436 115 433 89 q 401 63 422 88 q 352 22 379 39 q 294 -3 325 4 q 233 -11 263 -11 m 278 86 q 344 97 310 86 q 402 133 378 108 q 440 190 426 157 q 460 254 454 222 l 488 421 q 494 471 492 446 q 492 519 496 496 q 481 565 489 543 q 456 604 472 588 q 417 628 440 621 q 369 636 394 636 q 324 631 347 636 q 279 614 300 626 q 242 583 258 601 q 213 544 225 565 q 195 500 201 522 q 185 456 189 478 l 157 289 q 151 241 153 265 q 153 194 150 217 q 167 150 157 171 q 193 115 176 129 q 232 93 210 100 q 278 86 254 86 m 276 817 l 215 868 l 381 1056 l 508 1056 l 607 861 l 536 824 l 432 978 l 276 817 z "},"":{"ha":694,"x_min":39,"x_max":690,"o":"m 233 -11 q 162 0 196 -11 q 103 35 128 11 q 65 90 79 58 q 45 158 50 122 q 42 231 40 193 q 50 304 44 268 l 78 471 q 92 534 83 503 q 115 595 100 565 q 152 651 131 625 q 201 697 174 678 q 261 725 229 717 q 325 733 293 733 q 395 723 361 733 q 453 690 429 713 q 492 637 478 668 q 513 571 507 606 l 538 722 l 647 722 l 547 121 q 547 107 546 114 q 552 95 549 100 q 563 88 556 90 q 576 86 569 86 l 606 86 l 604 -11 l 560 -11 q 508 -4 533 -11 q 464 19 482 3 q 440 63 446 36 q 436 115 433 89 q 401 63 422 88 q 352 22 379 39 q 294 -3 325 4 q 233 -11 263 -11 m 278 86 q 344 97 310 86 q 402 133 378 108 q 440 190 426 157 q 460 254 454 222 l 488 421 q 494 471 492 446 q 492 519 496 496 q 481 565 489 543 q 456 604 472 588 q 417 628 440 621 q 369 636 394 636 q 324 631 347 636 q 279 614 300 626 q 242 583 258 601 q 213 544 225 565 q 195 500 201 522 q 185 456 189 478 l 157 289 q 151 241 153 265 q 153 194 150 217 q 167 150 157 171 q 193 115 176 129 q 232 93 210 100 q 278 86 254 86 m 244 829 l 160 876 q 191 922 176 901 q 219 960 206 943 q 244 990 232 976 q 275 1019 257 1004 q 313 1042 293 1033 q 356 1051 333 1051 q 369 1050 363 1051 q 382 1047 376 1049 q 394 1043 388 1046 q 406 1037 400 1040 q 416 1029 411 1033 q 426 1021 421 1025 q 435 1012 431 1017 q 442 1001 439 1007 q 450 990 446 996 q 457 980 454 985 q 463 970 460 975 q 469 958 465 965 q 477 945 474 951 q 483 934 481 939 q 492 924 486 929 q 497 917 497 918 l 493 917 q 499 921 493 918 q 510 927 506 924 q 519 935 514 931 q 526 943 524 940 q 531 949 528 946 q 536 955 533 951 q 542 962 539 958 q 549 969 546 965 q 555 976 551 972 q 562 985 558 981 q 569 995 565 990 q 576 1005 572 1000 q 583 1015 579 1010 q 590 1026 586 1021 q 598 1038 594 1032 q 606 1051 601 1044 l 689 1004 q 658 959 672 979 q 631 922 644 939 q 604 890 617 904 q 574 862 592 876 q 537 838 557 847 q 494 829 517 829 q 481 831 488 829 q 467 833 474 832 q 456 838 461 835 q 444 844 450 840 q 434 851 439 847 q 424 860 429 856 q 415 869 419 864 q 407 879 411 874 q 399 890 403 885 q 392 901 394 896 q 388 910 390 906 q 380 922 385 915 q 372 935 375 929 q 366 947 369 942 q 357 957 363 951 q 353 964 351 963 l 357 964 l 350 961 q 340 953 344 957 q 331 945 336 950 q 324 938 326 940 q 318 932 321 935 q 313 926 315 929 q 308 919 311 922 q 301 912 304 915 q 295 904 299 908 q 288 895 292 900 q 281 886 285 890 q 274 876 278 882 q 267 865 271 871 q 259 854 263 860 q 251 842 256 849 q 244 829 247 836 z "},"":{"ha":694,"x_min":39,"x_max":650,"o":"m 233 -11 q 162 0 196 -11 q 103 35 128 11 q 65 90 79 58 q 45 158 50 122 q 42 231 40 193 q 50 304 44 268 l 78 471 q 92 534 83 503 q 115 595 100 565 q 152 651 131 625 q 201 697 174 678 q 261 725 229 717 q 325 733 293 733 q 395 723 361 733 q 453 690 429 713 q 492 637 478 668 q 513 571 507 606 l 538 722 l 647 722 l 547 121 q 547 107 546 114 q 552 95 549 100 q 563 88 556 90 q 576 86 569 86 l 606 86 l 604 -11 l 560 -11 q 508 -4 533 -11 q 464 19 482 3 q 440 63 446 36 q 436 115 433 89 q 401 63 422 88 q 352 22 379 39 q 294 -3 325 4 q 233 -11 263 -11 m 278 86 q 344 97 310 86 q 402 133 378 108 q 440 190 426 157 q 460 254 454 222 l 488 421 q 494 471 492 446 q 492 519 496 496 q 481 565 489 543 q 456 604 472 588 q 417 628 440 621 q 369 636 394 636 q 324 631 347 636 q 279 614 300 626 q 242 583 258 601 q 213 544 225 565 q 195 500 201 522 q 185 456 189 478 l 157 289 q 151 241 153 265 q 153 194 150 217 q 167 150 157 171 q 193 115 176 129 q 232 93 210 100 q 278 86 254 86 m 561 844 q 522 852 542 844 q 492 875 503 860 q 478 910 481 890 q 478 951 475 931 q 488 978 481 965 q 507 1001 494 992 q 533 1013 519 1010 q 563 1017 547 1017 q 601 1009 582 1017 q 632 986 621 1001 q 647 951 643 971 q 646 910 650 931 q 636 883 643 896 q 617 860 629 869 q 590 848 604 851 q 561 844 576 844 m 283 844 q 244 852 264 844 q 214 875 225 860 q 200 910 203 890 q 200 951 197 931 q 210 978 203 965 q 229 1001 217 992 q 256 1013 242 1010 q 285 1017 269 1017 q 324 1009 304 1017 q 354 986 343 1001 q 369 951 365 971 q 368 910 372 931 q 358 883 365 896 q 339 860 351 869 q 313 848 326 851 q 283 844 299 844 z "},"":{"ha":694,"x_min":39,"x_max":647,"o":"m 233 -11 q 162 0 196 -11 q 103 35 128 11 q 65 90 79 58 q 45 158 50 122 q 42 231 40 193 q 50 304 44 268 l 78 471 q 92 534 83 503 q 115 595 100 565 q 152 651 131 625 q 201 697 174 678 q 261 725 229 717 q 325 733 293 733 q 395 723 361 733 q 453 690 429 713 q 492 637 478 668 q 513 571 507 606 l 538 722 l 647 722 l 547 121 q 547 107 546 114 q 552 95 549 100 q 563 88 556 90 q 576 86 569 86 l 606 86 l 604 -11 l 560 -11 q 508 -4 533 -11 q 464 19 482 3 q 440 63 446 36 q 436 115 433 89 q 401 63 422 88 q 352 22 379 39 q 294 -3 325 4 q 233 -11 263 -11 m 278 86 q 344 97 310 86 q 402 133 378 108 q 440 190 426 157 q 460 254 454 222 l 488 421 q 494 471 492 446 q 492 519 496 496 q 481 565 489 543 q 456 604 472 588 q 417 628 440 621 q 369 636 394 636 q 324 631 347 636 q 279 614 300 626 q 242 583 258 601 q 213 544 225 565 q 195 500 201 522 q 185 456 189 478 l 157 289 q 151 241 153 265 q 153 194 150 217 q 167 150 157 171 q 193 115 176 129 q 232 93 210 100 q 278 86 254 86 m 422 803 q 364 814 392 803 q 319 847 336 825 q 297 900 301 869 q 297 961 293 931 q 313 1002 301 982 q 342 1035 324 1022 q 381 1053 360 1049 q 424 1058 401 1058 q 463 1054 443 1058 q 499 1040 483 1050 q 527 1014 515 1029 q 544 980 539 999 q 551 940 550 961 q 549 900 551 919 q 535 859 546 879 q 506 826 524 839 q 466 808 488 813 q 422 803 444 803 m 424 875 q 442 877 432 875 q 459 885 451 879 q 472 899 467 890 q 478 917 476 908 q 478 944 481 931 q 469 967 476 957 q 449 981 461 976 q 422 986 436 986 q 405 984 414 986 q 388 976 396 982 q 374 962 379 971 q 368 944 369 953 q 368 917 367 931 q 377 894 369 904 q 397 880 385 885 q 424 875 410 875 z "},"":{"ha":694,"x_min":8,"x_max":647,"o":"m 403 -11 q 332 1 365 -11 q 279 42 299 14 q 224 3 256 17 q 163 -11 193 -11 q 111 -5 136 -11 q 66 15 86 1 q 33 51 46 29 q 14 97 19 72 q 10 148 8 121 q 15 201 11 175 q 27 256 19 229 q 50 309 35 283 q 86 357 65 335 q 133 394 107 379 q 187 415 158 410 q 242 421 215 421 l 288 421 l 311 563 q 313 592 314 578 q 306 619 313 607 q 285 637 299 631 q 257 643 272 643 q 224 629 239 643 q 199 598 208 615 q 185 563 190 581 q 176 526 181 544 l 176 521 l 76 521 l 78 532 q 90 579 82 556 q 108 626 97 603 q 135 669 119 649 q 172 704 151 689 q 217 726 192 719 q 265 733 242 733 q 329 724 299 733 q 379 693 360 715 q 434 724 404 714 q 493 733 464 733 q 546 727 521 733 q 590 706 571 721 q 622 669 610 690 q 641 622 635 647 q 647 571 647 597 q 642 518 647 544 q 630 468 638 493 q 609 420 622 443 q 578 376 596 397 q 539 338 561 354 q 492 313 517 322 q 442 303 467 303 q 406 305 424 303 q 372 311 388 307 l 351 190 q 349 153 349 172 q 355 117 349 133 q 376 90 361 100 q 410 79 392 79 q 447 91 429 79 q 474 120 464 103 q 492 156 485 138 q 503 193 499 175 l 599 181 q 586 134 594 157 q 565 89 578 111 q 535 47 553 67 q 497 15 518 28 q 451 -5 475 1 q 403 -11 426 -11 m 442 393 q 470 400 457 393 q 494 418 483 407 q 514 442 506 429 q 527 469 522 456 q 536 498 532 483 q 542 526 540 513 q 547 565 546 546 q 542 601 547 583 q 525 631 538 618 q 493 643 513 643 q 460 633 476 643 q 433 606 443 622 q 417 573 422 590 q 410 539 413 556 l 388 403 q 413 395 399 397 q 442 393 428 393 m 163 79 q 194 91 179 79 q 217 117 208 103 q 233 148 226 132 q 244 181 239 164 q 252 213 249 197 q 258 246 256 229 l 272 331 l 242 331 q 192 319 217 331 q 151 286 168 307 q 126 240 135 265 q 115 192 118 215 q 110 155 111 174 q 115 119 110 136 q 132 91 119 103 q 163 79 144 79 z "},"":{"ha":694,"x_min":42,"x_max":617,"o":"m 288 -11 q 207 -3 246 -11 q 137 26 168 6 q 84 77 106 46 q 53 146 63 108 q 43 224 43 183 q 50 304 43 264 l 78 471 q 94 540 83 506 q 126 606 106 575 q 175 663 147 638 q 236 705 203 689 q 305 727 269 721 q 375 733 340 733 q 444 728 410 733 q 507 708 478 722 q 560 672 536 694 q 597 619 583 649 q 613 554 610 589 q 610 485 617 519 l 608 472 l 500 472 l 501 481 q 501 543 507 513 q 476 595 496 574 q 428 626 457 617 q 367 636 399 636 q 299 623 333 636 q 240 583 264 610 q 203 522 215 556 q 185 456 190 489 l 157 289 q 151 239 153 264 q 156 190 150 214 q 174 146 161 167 q 204 111 186 125 q 247 92 222 97 q 296 86 271 86 q 361 99 328 86 q 420 135 394 111 q 463 191 446 160 q 489 254 479 222 l 589 229 q 547 135 574 181 q 478 54 519 89 q 387 4 438 19 q 288 -11 336 -11 m 79 -306 l 94 -218 l 233 -218 q 256 -216 244 -218 q 278 -208 267 -214 q 296 -191 289 -201 q 306 -169 303 -181 q 303 -148 307 -158 q 291 -131 299 -137 q 272 -122 283 -124 q 249 -119 260 -119 l 200 -119 l 235 86 l 332 86 l 308 -57 q 347 -72 329 -61 q 376 -99 365 -82 q 390 -136 388 -115 q 389 -179 393 -157 q 369 -233 385 -207 q 329 -276 354 -260 q 275 -299 304 -293 q 218 -306 246 -306 l 79 -306 z "},"":{"ha":694,"x_min":42,"x_max":631,"o":"m 292 -11 q 212 -3 251 -11 q 140 25 172 6 q 85 76 108 44 q 52 144 63 107 q 42 223 42 182 q 50 304 43 264 l 78 471 q 94 540 83 506 q 126 606 106 575 q 176 663 147 638 q 238 705 204 689 q 306 727 271 721 q 375 733 340 733 q 441 729 408 733 q 504 715 474 725 q 560 685 535 704 q 601 640 585 667 q 624 582 618 614 q 624 517 629 550 q 603 453 618 483 q 564 397 588 422 q 511 352 540 371 q 450 321 482 333 q 385 303 418 308 q 321 299 353 299 q 239 303 279 299 q 161 317 199 308 l 157 289 q 152 238 153 264 q 156 189 151 213 q 175 145 161 165 q 208 111 189 125 q 251 92 226 97 q 301 86 275 86 q 359 94 329 86 q 414 122 389 103 q 458 166 439 140 q 489 219 478 192 l 581 181 q 533 101 563 139 q 464 38 503 64 q 381 0 425 11 q 292 -11 336 -11 m 321 396 q 383 403 351 396 q 442 428 414 411 q 492 472 471 444 q 518 528 513 499 q 510 578 522 556 q 476 615 497 601 q 429 632 456 628 q 376 636 403 636 q 328 631 353 636 q 283 615 304 626 q 244 585 263 603 q 214 545 226 567 q 195 501 201 524 q 185 456 189 478 l 178 413 q 249 400 213 404 q 321 396 285 396 m 419 811 l 274 1000 l 363 1056 l 492 856 l 419 811 z "},"":{"ha":694,"x_min":42,"x_max":631,"o":"m 292 -11 q 212 -3 251 -11 q 140 25 172 6 q 85 76 108 44 q 52 144 63 107 q 42 223 42 182 q 50 304 43 264 l 78 471 q 94 540 83 506 q 126 606 106 575 q 176 663 147 638 q 238 705 204 689 q 306 727 271 721 q 375 733 340 733 q 441 729 408 733 q 504 715 474 725 q 560 685 535 704 q 601 640 585 667 q 624 582 618 614 q 624 517 629 550 q 603 453 618 483 q 564 397 588 422 q 511 352 540 371 q 450 321 482 333 q 385 303 418 308 q 321 299 353 299 q 239 303 279 299 q 161 317 199 308 l 157 289 q 152 238 153 264 q 156 189 151 213 q 175 145 161 165 q 208 111 189 125 q 251 92 226 97 q 301 86 275 86 q 359 94 329 86 q 414 122 389 103 q 458 166 439 140 q 489 219 478 192 l 581 181 q 533 101 563 139 q 464 38 503 64 q 381 0 425 11 q 292 -11 336 -11 m 321 396 q 383 403 351 396 q 442 428 414 411 q 492 472 471 444 q 518 528 513 499 q 510 578 522 556 q 476 615 497 601 q 429 632 456 628 q 376 636 403 636 q 328 631 353 636 q 283 615 304 626 q 244 585 263 603 q 214 545 226 567 q 195 501 201 524 q 185 456 189 478 l 178 413 q 249 400 213 404 q 321 396 285 396 m 390 806 l 328 861 l 524 1063 l 597 993 l 390 806 z "},"":{"ha":694,"x_min":42,"x_max":631,"o":"m 292 -11 q 212 -3 251 -11 q 140 25 172 6 q 85 76 108 44 q 52 144 63 107 q 42 223 42 182 q 50 304 43 264 l 78 471 q 94 540 83 506 q 126 606 106 575 q 176 663 147 638 q 238 705 204 689 q 306 727 271 721 q 375 733 340 733 q 441 729 408 733 q 504 715 474 725 q 560 685 535 704 q 601 640 585 667 q 624 582 618 614 q 624 517 629 550 q 603 453 618 483 q 564 397 588 422 q 511 352 540 371 q 450 321 482 333 q 385 303 418 308 q 321 299 353 299 q 239 303 279 299 q 161 317 199 308 l 157 289 q 152 238 153 264 q 156 189 151 213 q 175 145 161 165 q 208 111 189 125 q 251 92 226 97 q 301 86 275 86 q 359 94 329 86 q 414 122 389 103 q 458 166 439 140 q 489 219 478 192 l 581 181 q 533 101 563 139 q 464 38 503 64 q 381 0 425 11 q 292 -11 336 -11 m 321 396 q 383 403 351 396 q 442 428 414 411 q 492 472 471 444 q 518 528 513 499 q 510 578 522 556 q 476 615 497 601 q 429 632 456 628 q 376 636 403 636 q 328 631 353 636 q 283 615 304 626 q 244 585 263 603 q 214 545 226 567 q 195 501 201 524 q 185 456 189 478 l 178 413 q 249 400 213 404 q 321 396 285 396 m 276 817 l 215 868 l 381 1056 l 508 1056 l 607 861 l 536 824 l 432 978 l 276 817 z "},"":{"ha":694,"x_min":42,"x_max":650,"o":"m 292 -11 q 212 -3 251 -11 q 140 25 172 6 q 85 76 108 44 q 52 144 63 107 q 42 223 42 182 q 50 304 43 264 l 78 471 q 94 540 83 506 q 126 606 106 575 q 176 663 147 638 q 238 705 204 689 q 306 727 271 721 q 375 733 340 733 q 441 729 408 733 q 504 715 474 725 q 560 685 535 704 q 601 640 585 667 q 624 582 618 614 q 624 517 629 550 q 603 453 618 483 q 564 397 588 422 q 511 352 540 371 q 450 321 482 333 q 385 303 418 308 q 321 299 353 299 q 239 303 279 299 q 161 317 199 308 l 157 289 q 152 238 153 264 q 156 189 151 213 q 175 145 161 165 q 208 111 189 125 q 251 92 226 97 q 301 86 275 86 q 359 94 329 86 q 414 122 389 103 q 458 166 439 140 q 489 219 478 192 l 581 181 q 533 101 563 139 q 464 38 503 64 q 381 0 425 11 q 292 -11 336 -11 m 321 396 q 383 403 351 396 q 442 428 414 411 q 492 472 471 444 q 518 528 513 499 q 510 578 522 556 q 476 615 497 601 q 429 632 456 628 q 376 636 403 636 q 328 631 353 636 q 283 615 304 626 q 244 585 263 603 q 214 545 226 567 q 195 501 201 524 q 185 456 189 478 l 178 413 q 249 400 213 404 q 321 396 285 396 m 561 844 q 522 852 542 844 q 492 875 503 860 q 478 910 481 890 q 478 951 475 931 q 488 978 481 965 q 507 1001 494 992 q 533 1013 519 1010 q 563 1017 547 1017 q 601 1009 582 1017 q 632 986 621 1001 q 647 951 643 971 q 646 910 650 931 q 636 883 643 896 q 617 860 629 869 q 590 848 604 851 q 561 844 576 844 m 283 844 q 244 852 264 844 q 214 875 225 860 q 200 910 203 890 q 200 951 197 931 q 210 978 203 965 q 229 1001 217 992 q 256 1013 242 1010 q 285 1017 269 1017 q 324 1009 304 1017 q 354 986 343 1001 q 369 951 365 971 q 368 910 372 931 q 358 883 365 896 q 339 860 351 869 q 313 848 326 851 q 283 844 299 844 z "},"":{"ha":694,"x_min":106,"x_max":639,"o":"m 403 -11 q 341 -4 371 -11 q 287 20 311 3 q 247 63 263 38 q 225 119 232 89 q 219 181 218 149 q 226 243 221 213 l 289 625 l 106 625 l 107 722 l 414 722 l 332 228 q 328 178 328 203 q 339 131 329 153 q 369 98 349 110 q 415 86 390 86 q 463 99 440 86 q 502 133 486 113 q 527 178 518 154 q 542 226 536 203 l 638 214 q 622 158 632 186 q 597 105 611 131 q 561 56 582 79 q 515 18 540 33 q 460 -4 489 3 q 403 -11 432 -11 m 397 811 l 251 1000 l 340 1056 l 469 856 l 397 811 z "},"":{"ha":694,"x_min":106,"x_max":639,"o":"m 403 -11 q 341 -4 371 -11 q 287 20 311 3 q 247 63 263 38 q 225 119 232 89 q 219 181 218 149 q 226 243 221 213 l 289 625 l 106 625 l 107 722 l 414 722 l 332 228 q 328 178 328 203 q 339 131 329 153 q 369 98 349 110 q 415 86 390 86 q 463 99 440 86 q 502 133 486 113 q 527 178 518 154 q 542 226 536 203 l 638 214 q 622 158 632 186 q 597 105 611 131 q 561 56 582 79 q 515 18 540 33 q 460 -4 489 3 q 403 -11 432 -11 m 368 806 l 306 861 l 501 1063 l 575 993 l 368 806 z "},"":{"ha":694,"x_min":106,"x_max":639,"o":"m 403 -11 q 341 -4 371 -11 q 287 20 311 3 q 247 63 263 38 q 225 119 232 89 q 219 181 218 149 q 226 243 221 213 l 289 625 l 106 625 l 107 722 l 414 722 l 332 228 q 328 178 328 203 q 339 131 329 153 q 369 98 349 110 q 415 86 390 86 q 463 99 440 86 q 502 133 486 113 q 527 178 518 154 q 542 226 536 203 l 638 214 q 622 158 632 186 q 597 105 611 131 q 561 56 582 79 q 515 18 540 33 q 460 -4 489 3 q 403 -11 432 -11 m 254 817 l 193 868 l 358 1056 l 486 1056 l 585 861 l 514 824 l 410 978 l 254 817 z "},"":{"ha":694,"x_min":106,"x_max":650,"o":"m 403 -11 q 341 -4 371 -11 q 287 20 311 3 q 247 63 263 38 q 225 119 232 89 q 219 181 218 149 q 226 243 221 213 l 289 625 l 106 625 l 107 722 l 414 722 l 332 228 q 328 178 328 203 q 339 131 329 153 q 369 98 349 110 q 415 86 390 86 q 463 99 440 86 q 502 133 486 113 q 527 178 518 154 q 542 226 536 203 l 638 214 q 622 158 632 186 q 597 105 611 131 q 561 56 582 79 q 515 18 540 33 q 460 -4 489 3 q 403 -11 432 -11 m 561 844 q 522 852 542 844 q 492 875 503 860 q 478 910 481 890 q 478 951 475 931 q 488 978 481 965 q 507 1001 494 992 q 533 1013 519 1010 q 563 1017 547 1017 q 601 1009 582 1017 q 632 986 621 1001 q 647 951 643 971 q 646 910 650 931 q 636 883 643 896 q 617 860 629 869 q 590 848 604 851 q 561 844 576 844 m 283 844 q 244 852 264 844 q 214 875 225 860 q 200 910 203 890 q 200 951 197 931 q 210 978 203 965 q 229 1001 217 992 q 256 1013 242 1010 q 285 1017 269 1017 q 324 1009 304 1017 q 354 986 343 1001 q 369 951 365 971 q 368 910 372 931 q 358 883 365 896 q 339 860 351 869 q 313 848 326 851 q 283 844 299 844 z "},"":{"ha":694,"x_min":44,"x_max":651,"o":"m 283 -11 q 201 -1 240 -11 q 131 33 161 10 q 81 92 100 57 q 53 167 61 128 q 46 249 44 207 q 54 333 47 292 l 56 335 q 70 401 61 368 q 94 467 79 435 q 130 529 108 500 q 181 581 151 558 q 245 613 211 603 q 313 624 279 624 q 383 613 349 624 q 442 579 418 603 q 480 524 465 556 q 500 458 494 493 q 497 603 506 532 q 458 736 488 674 l 192 667 l 168 749 l 417 813 q 344 882 385 853 q 254 928 303 911 l 286 1021 q 424 952 363 999 q 525 842 486 906 l 626 868 l 650 786 l 565 764 q 597 660 586 714 q 610 549 608 606 q 607 435 613 493 q 592 321 601 378 l 585 279 q 568 207 579 243 q 538 137 557 171 q 490 74 518 103 q 428 25 463 44 q 357 -3 394 6 q 283 -11 319 -11 m 283 86 q 333 92 308 86 q 379 114 357 99 q 418 150 401 129 q 447 194 435 171 q 466 241 460 217 q 476 289 472 265 q 483 343 481 317 q 482 395 485 369 q 472 445 479 421 q 447 488 464 469 q 406 517 431 507 q 356 526 382 526 q 306 519 331 526 q 258 497 281 513 q 219 459 236 481 q 190 414 201 438 q 172 365 178 390 q 161 315 165 340 q 155 263 157 289 q 156 211 153 236 q 168 163 160 186 q 193 121 176 139 q 233 94 210 103 q 283 86 257 86 z "},"":{"ha":694,"x_min":10,"x_max":690,"o":"m 11 0 l 131 722 l 240 722 l 221 608 q 256 660 236 636 q 303 701 276 683 q 359 726 329 718 q 418 733 389 733 q 488 722 454 733 q 547 687 522 711 q 584 631 571 663 q 603 563 597 599 q 606 491 608 528 q 597 418 603 454 l 528 0 l 418 0 l 489 433 q 495 481 493 457 q 494 527 497 504 q 481 571 490 550 q 457 607 472 592 q 420 629 442 622 q 375 636 399 636 q 310 624 343 636 q 253 588 278 613 q 216 532 229 564 q 199 468 203 500 l 121 0 l 11 0 m 244 829 l 160 876 q 191 922 176 901 q 219 960 206 943 q 244 990 232 976 q 275 1019 257 1004 q 313 1042 293 1033 q 356 1051 333 1051 q 369 1050 363 1051 q 382 1047 376 1049 q 394 1043 388 1046 q 406 1037 400 1040 q 416 1029 411 1033 q 426 1021 421 1025 q 435 1012 431 1017 q 442 1001 439 1007 q 450 990 446 996 q 457 980 454 985 q 463 970 460 975 q 469 958 465 965 q 477 945 474 951 q 483 934 481 939 q 492 924 486 929 q 497 917 497 918 l 493 917 q 499 921 493 918 q 510 927 506 924 q 519 935 514 931 q 526 943 524 940 q 531 949 528 946 q 536 955 533 951 q 542 962 539 958 q 549 969 546 965 q 555 976 551 972 q 562 985 558 981 q 569 995 565 990 q 576 1005 572 1000 q 583 1015 579 1010 q 590 1026 586 1021 q 598 1038 594 1032 q 606 1051 601 1044 l 689 1004 q 658 959 672 979 q 631 922 644 939 q 604 890 617 904 q 574 862 592 876 q 537 838 557 847 q 494 829 517 829 q 481 831 488 829 q 467 833 474 832 q 456 838 461 835 q 444 844 450 840 q 434 851 439 847 q 424 860 429 856 q 415 869 419 864 q 407 879 411 874 q 399 890 403 885 q 392 901 394 896 q 388 910 390 906 q 380 922 385 915 q 372 935 375 929 q 366 947 369 942 q 357 957 363 951 q 353 964 351 963 l 357 964 l 350 961 q 340 953 344 957 q 331 945 336 950 q 324 938 326 940 q 318 932 321 935 q 313 926 315 929 q 308 919 311 922 q 301 912 304 915 q 295 904 299 908 q 288 895 292 900 q 281 886 285 890 q 274 876 278 882 q 267 865 271 871 q 259 854 263 860 q 251 842 256 849 q 244 829 247 836 z "},"":{"ha":694,"x_min":42,"x_max":615,"o":"m 282 -11 q 203 -3 242 -11 q 134 26 165 6 q 82 78 103 47 q 52 147 61 110 q 43 224 43 185 q 50 304 43 264 l 78 471 q 94 540 83 506 q 126 606 106 575 q 175 663 147 638 q 236 705 203 689 q 305 727 269 721 q 375 733 340 733 q 453 725 415 733 q 523 696 492 717 q 576 644 554 675 q 606 575 597 613 q 615 498 615 538 q 608 418 614 458 l 581 251 q 563 182 575 217 q 531 116 551 147 q 483 59 511 85 q 422 17 456 33 q 353 -5 389 1 q 282 -11 317 -11 m 283 86 q 329 91 306 86 q 374 108 353 96 q 413 138 396 119 q 443 177 431 156 q 463 222 456 199 q 472 267 469 244 l 500 433 q 506 483 504 458 q 503 530 507 507 q 490 574 500 553 q 462 609 479 594 q 422 630 444 624 q 375 636 400 636 q 328 631 353 636 q 283 615 304 626 q 244 585 263 603 q 214 545 226 567 q 195 501 201 524 q 185 456 189 478 l 157 289 q 151 240 153 264 q 154 192 150 215 q 169 149 158 169 q 196 113 179 128 q 235 92 213 99 q 283 86 258 86 m 419 811 l 274 1000 l 363 1056 l 492 856 l 419 811 z "},"":{"ha":694,"x_min":42,"x_max":615,"o":"m 282 -11 q 203 -3 242 -11 q 134 26 165 6 q 82 78 103 47 q 52 147 61 110 q 43 224 43 185 q 50 304 43 264 l 78 471 q 94 540 83 506 q 126 606 106 575 q 175 663 147 638 q 236 705 203 689 q 305 727 269 721 q 375 733 340 733 q 453 725 415 733 q 523 696 492 717 q 576 644 554 675 q 606 575 597 613 q 615 498 615 538 q 608 418 614 458 l 581 251 q 563 182 575 217 q 531 116 551 147 q 483 59 511 85 q 422 17 456 33 q 353 -5 389 1 q 282 -11 317 -11 m 283 86 q 329 91 306 86 q 374 108 353 96 q 413 138 396 119 q 443 177 431 156 q 463 222 456 199 q 472 267 469 244 l 500 433 q 506 483 504 458 q 503 530 507 507 q 490 574 500 553 q 462 609 479 594 q 422 630 444 624 q 375 636 400 636 q 328 631 353 636 q 283 615 304 626 q 244 585 263 603 q 214 545 226 567 q 195 501 201 524 q 185 456 189 478 l 157 289 q 151 240 153 264 q 154 192 150 215 q 169 149 158 169 q 196 113 179 128 q 235 92 213 99 q 283 86 258 86 m 390 806 l 328 861 l 524 1063 l 597 993 l 390 806 z "},"":{"ha":694,"x_min":42,"x_max":615,"o":"m 282 -11 q 203 -3 242 -11 q 134 26 165 6 q 82 78 103 47 q 52 147 61 110 q 43 224 43 185 q 50 304 43 264 l 78 471 q 94 540 83 506 q 126 606 106 575 q 175 663 147 638 q 236 705 203 689 q 305 727 269 721 q 375 733 340 733 q 453 725 415 733 q 523 696 492 717 q 576 644 554 675 q 606 575 597 613 q 615 498 615 538 q 608 418 614 458 l 581 251 q 563 182 575 217 q 531 116 551 147 q 483 59 511 85 q 422 17 456 33 q 353 -5 389 1 q 282 -11 317 -11 m 283 86 q 329 91 306 86 q 374 108 353 96 q 413 138 396 119 q 443 177 431 156 q 463 222 456 199 q 472 267 469 244 l 500 433 q 506 483 504 458 q 503 530 507 507 q 490 574 500 553 q 462 609 479 594 q 422 630 444 624 q 375 636 400 636 q 328 631 353 636 q 283 615 304 626 q 244 585 263 603 q 214 545 226 567 q 195 501 201 524 q 185 456 189 478 l 157 289 q 151 240 153 264 q 154 192 150 215 q 169 149 158 169 q 196 113 179 128 q 235 92 213 99 q 283 86 258 86 m 276 817 l 215 868 l 381 1056 l 508 1056 l 607 861 l 536 824 l 432 978 l 276 817 z "},"":{"ha":694,"x_min":42,"x_max":690,"o":"m 282 -11 q 203 -3 242 -11 q 134 26 165 6 q 82 78 103 47 q 52 147 61 110 q 43 224 43 185 q 50 304 43 264 l 78 471 q 94 540 83 506 q 126 606 106 575 q 175 663 147 638 q 236 705 203 689 q 305 727 269 721 q 375 733 340 733 q 453 725 415 733 q 523 696 492 717 q 576 644 554 675 q 606 575 597 613 q 615 498 615 538 q 608 418 614 458 l 581 251 q 563 182 575 217 q 531 116 551 147 q 483 59 511 85 q 422 17 456 33 q 353 -5 389 1 q 282 -11 317 -11 m 283 86 q 329 91 306 86 q 374 108 353 96 q 413 138 396 119 q 443 177 431 156 q 463 222 456 199 q 472 267 469 244 l 500 433 q 506 483 504 458 q 503 530 507 507 q 490 574 500 553 q 462 609 479 594 q 422 630 444 624 q 375 636 400 636 q 328 631 353 636 q 283 615 304 626 q 244 585 263 603 q 214 545 226 567 q 195 501 201 524 q 185 456 189 478 l 157 289 q 151 240 153 264 q 154 192 150 215 q 169 149 158 169 q 196 113 179 128 q 235 92 213 99 q 283 86 258 86 m 244 829 l 160 876 q 191 922 176 901 q 219 960 206 943 q 244 990 232 976 q 275 1019 257 1004 q 313 1042 293 1033 q 356 1051 333 1051 q 369 1050 363 1051 q 382 1047 376 1049 q 394 1043 388 1046 q 406 1037 400 1040 q 416 1029 411 1033 q 426 1021 421 1025 q 435 1012 431 1017 q 442 1001 439 1007 q 450 990 446 996 q 457 980 454 985 q 463 970 460 975 q 469 958 465 965 q 477 945 474 951 q 483 934 481 939 q 492 924 486 929 q 497 917 497 918 l 493 917 q 499 921 493 918 q 510 927 506 924 q 519 935 514 931 q 526 943 524 940 q 531 949 528 946 q 536 955 533 951 q 542 962 539 958 q 549 969 546 965 q 555 976 551 972 q 562 985 558 981 q 569 995 565 990 q 576 1005 572 1000 q 583 1015 579 1010 q 590 1026 586 1021 q 598 1038 594 1032 q 606 1051 601 1044 l 689 1004 q 658 959 672 979 q 631 922 644 939 q 604 890 617 904 q 574 862 592 876 q 537 838 557 847 q 494 829 517 829 q 481 831 488 829 q 467 833 474 832 q 456 838 461 835 q 444 844 450 840 q 434 851 439 847 q 424 860 429 856 q 415 869 419 864 q 407 879 411 874 q 399 890 403 885 q 392 901 394 896 q 388 910 390 906 q 380 922 385 915 q 372 935 375 929 q 366 947 369 942 q 357 957 363 951 q 353 964 351 963 l 357 964 l 350 961 q 340 953 344 957 q 331 945 336 950 q 324 938 326 940 q 318 932 321 935 q 313 926 315 929 q 308 919 311 922 q 301 912 304 915 q 295 904 299 908 q 288 895 292 900 q 281 886 285 890 q 274 876 278 882 q 267 865 271 871 q 259 854 263 860 q 251 842 256 849 q 244 829 247 836 z "},"":{"ha":694,"x_min":42,"x_max":650,"o":"m 282 -11 q 203 -3 242 -11 q 134 26 165 6 q 82 78 103 47 q 52 147 61 110 q 43 224 43 185 q 50 304 43 264 l 78 471 q 94 540 83 506 q 126 606 106 575 q 175 663 147 638 q 236 705 203 689 q 305 727 269 721 q 375 733 340 733 q 453 725 415 733 q 523 696 492 717 q 576 644 554 675 q 606 575 597 613 q 615 498 615 538 q 608 418 614 458 l 581 251 q 563 182 575 217 q 531 116 551 147 q 483 59 511 85 q 422 17 456 33 q 353 -5 389 1 q 282 -11 317 -11 m 283 86 q 329 91 306 86 q 374 108 353 96 q 413 138 396 119 q 443 177 431 156 q 463 222 456 199 q 472 267 469 244 l 500 433 q 506 483 504 458 q 503 530 507 507 q 490 574 500 553 q 462 609 479 594 q 422 630 444 624 q 375 636 400 636 q 328 631 353 636 q 283 615 304 626 q 244 585 263 603 q 214 545 226 567 q 195 501 201 524 q 185 456 189 478 l 157 289 q 151 240 153 264 q 154 192 150 215 q 169 149 158 169 q 196 113 179 128 q 235 92 213 99 q 283 86 258 86 m 561 844 q 522 852 542 844 q 492 875 503 860 q 478 910 481 890 q 478 951 475 931 q 488 978 481 965 q 507 1001 494 992 q 533 1013 519 1010 q 563 1017 547 1017 q 601 1009 582 1017 q 632 986 621 1001 q 647 951 643 971 q 646 910 650 931 q 636 883 643 896 q 617 860 629 869 q 590 848 604 851 q 561 844 576 844 m 283 844 q 244 852 264 844 q 214 875 225 860 q 200 910 203 890 q 200 951 197 931 q 210 978 203 965 q 229 1001 217 992 q 256 1013 242 1010 q 285 1017 269 1017 q 324 1009 304 1017 q 354 986 343 1001 q 369 951 365 971 q 368 910 372 931 q 358 883 365 896 q 339 860 351 869 q 313 848 326 851 q 283 844 299 844 z "},"":{"ha":694,"x_min":81,"x_max":614,"o":"m 390 638 q 348 645 368 638 q 315 669 328 653 q 298 708 301 686 q 297 753 294 731 q 308 783 300 768 q 330 807 317 797 q 359 820 343 817 q 390 824 375 824 q 433 816 413 824 q 465 792 453 808 q 482 753 478 775 q 482 708 486 731 q 472 678 479 693 q 451 654 464 664 q 422 641 438 644 q 390 638 406 638 m 82 426 l 96 518 l 613 518 l 599 426 l 82 426 m 304 121 q 262 128 282 121 q 229 153 242 136 q 213 192 217 169 q 213 236 208 214 q 223 266 215 251 q 244 290 231 281 q 273 303 257 300 q 304 307 289 307 q 347 299 326 307 q 380 275 367 292 q 397 236 393 258 q 397 192 400 214 q 386 162 394 176 q 365 138 378 147 q 335 124 351 128 q 304 121 319 121 z "},"":{"ha":694,"x_min":-3,"x_max":661,"o":"m 74 -61 l -3 -11 l 74 92 q 53 140 60 114 q 43 193 46 165 q 43 249 40 221 q 50 304 46 276 l 78 471 q 94 540 83 506 q 126 606 106 575 q 175 663 147 638 q 236 705 203 689 q 305 727 269 721 q 375 733 340 733 q 452 726 414 733 q 521 697 490 718 l 583 783 l 660 733 l 585 631 q 604 583 597 608 q 614 529 611 557 q 615 474 617 501 q 608 418 613 446 l 581 251 q 563 182 575 217 q 531 116 551 147 q 483 59 511 85 q 422 17 456 33 q 353 -5 389 1 q 282 -11 317 -11 q 205 -3 243 -11 q 138 25 167 4 l 74 -61 m 153 199 l 458 613 q 419 631 440 625 q 375 636 399 636 q 328 631 353 636 q 283 615 304 626 q 244 585 263 603 q 214 545 226 567 q 195 501 201 524 q 185 456 189 478 l 157 289 q 151 244 153 267 q 153 199 150 221 m 283 86 q 329 91 306 86 q 374 108 353 96 q 413 138 396 119 q 443 177 431 156 q 463 222 456 199 q 472 267 469 244 l 500 433 q 506 478 504 456 q 504 524 507 501 l 200 110 q 238 92 217 97 q 283 86 260 86 z "},"":{"ha":694,"x_min":49,"x_max":647,"o":"m 239 -11 q 169 0 203 -11 q 111 35 135 11 q 74 92 88 60 q 55 159 60 124 q 53 231 50 194 q 61 304 56 268 l 131 722 l 240 722 l 168 289 q 163 242 164 265 q 164 195 161 218 q 176 151 167 172 q 201 115 185 131 q 238 93 217 100 q 283 86 260 86 q 348 98 315 86 q 405 134 381 110 q 442 190 429 158 q 460 254 454 222 l 538 722 l 647 722 l 547 121 q 547 107 546 114 q 552 95 549 100 q 563 88 556 90 q 576 86 569 86 l 606 86 l 604 -11 l 560 -11 q 508 -4 533 -11 q 464 19 482 3 q 440 62 446 36 q 436 114 433 88 q 401 63 422 86 q 354 22 381 39 q 298 -3 328 4 q 239 -11 268 -11 m 419 811 l 274 1000 l 363 1056 l 492 856 l 419 811 z "},"":{"ha":694,"x_min":49,"x_max":647,"o":"m 239 -11 q 169 0 203 -11 q 111 35 135 11 q 74 92 88 60 q 55 159 60 124 q 53 231 50 194 q 61 304 56 268 l 131 722 l 240 722 l 168 289 q 163 242 164 265 q 164 195 161 218 q 176 151 167 172 q 201 115 185 131 q 238 93 217 100 q 283 86 260 86 q 348 98 315 86 q 405 134 381 110 q 442 190 429 158 q 460 254 454 222 l 538 722 l 647 722 l 547 121 q 547 107 546 114 q 552 95 549 100 q 563 88 556 90 q 576 86 569 86 l 606 86 l 604 -11 l 560 -11 q 508 -4 533 -11 q 464 19 482 3 q 440 62 446 36 q 436 114 433 88 q 401 63 422 86 q 354 22 381 39 q 298 -3 328 4 q 239 -11 268 -11 m 390 806 l 328 861 l 524 1063 l 597 993 l 390 806 z "},"":{"ha":694,"x_min":49,"x_max":647,"o":"m 239 -11 q 169 0 203 -11 q 111 35 135 11 q 74 92 88 60 q 55 159 60 124 q 53 231 50 194 q 61 304 56 268 l 131 722 l 240 722 l 168 289 q 163 242 164 265 q 164 195 161 218 q 176 151 167 172 q 201 115 185 131 q 238 93 217 100 q 283 86 260 86 q 348 98 315 86 q 405 134 381 110 q 442 190 429 158 q 460 254 454 222 l 538 722 l 647 722 l 547 121 q 547 107 546 114 q 552 95 549 100 q 563 88 556 90 q 576 86 569 86 l 606 86 l 604 -11 l 560 -11 q 508 -4 533 -11 q 464 19 482 3 q 440 62 446 36 q 436 114 433 88 q 401 63 422 86 q 354 22 381 39 q 298 -3 328 4 q 239 -11 268 -11 m 276 817 l 215 868 l 381 1056 l 508 1056 l 607 861 l 536 824 l 432 978 l 276 817 z "},"":{"ha":694,"x_min":49,"x_max":650,"o":"m 239 -11 q 169 0 203 -11 q 111 35 135 11 q 74 92 88 60 q 55 159 60 124 q 53 231 50 194 q 61 304 56 268 l 131 722 l 240 722 l 168 289 q 163 242 164 265 q 164 195 161 218 q 176 151 167 172 q 201 115 185 131 q 238 93 217 100 q 283 86 260 86 q 348 98 315 86 q 405 134 381 110 q 442 190 429 158 q 460 254 454 222 l 538 722 l 647 722 l 547 121 q 547 107 546 114 q 552 95 549 100 q 563 88 556 90 q 576 86 569 86 l 606 86 l 604 -11 l 560 -11 q 508 -4 533 -11 q 464 19 482 3 q 440 62 446 36 q 436 114 433 88 q 401 63 422 86 q 354 22 381 39 q 298 -3 328 4 q 239 -11 268 -11 m 561 844 q 522 852 542 844 q 492 875 503 860 q 478 910 481 890 q 478 951 475 931 q 488 978 481 965 q 507 1001 494 992 q 533 1013 519 1010 q 563 1017 547 1017 q 601 1009 582 1017 q 632 986 621 1001 q 647 951 643 971 q 646 910 650 931 q 636 883 643 896 q 617 860 629 869 q 590 848 604 851 q 561 844 576 844 m 283 844 q 244 852 264 844 q 214 875 225 860 q 200 910 203 890 q 200 951 197 931 q 210 978 203 965 q 229 1001 217 992 q 256 1013 242 1010 q 285 1017 269 1017 q 324 1009 304 1017 q 354 986 343 1001 q 369 951 365 971 q 368 910 372 931 q 358 883 365 896 q 339 860 351 869 q 313 848 326 851 q 283 844 299 844 z "},"":{"ha":694,"x_min":-17,"x_max":647,"o":"m 228 -310 q 165 -306 196 -310 q 106 -293 135 -303 q 53 -267 78 -283 q 13 -226 29 -250 q -9 -173 -3 -203 q -11 -111 -15 -143 l 97 -111 q 105 -159 93 -137 q 138 -192 117 -181 q 183 -208 158 -204 q 235 -212 208 -212 q 302 -199 268 -212 q 359 -158 336 -185 q 394 -98 382 -131 q 413 -32 407 -65 l 436 114 q 401 63 422 86 q 354 22 381 39 q 298 -3 328 4 q 239 -11 268 -11 q 169 0 203 -11 q 111 35 135 11 q 74 92 88 60 q 55 159 60 124 q 53 231 50 194 q 61 304 56 268 l 131 722 l 240 722 l 168 289 q 163 242 164 265 q 164 195 161 218 q 176 151 167 172 q 201 115 185 131 q 238 93 217 100 q 283 86 260 86 q 348 98 315 86 q 405 134 381 110 q 442 190 429 158 q 460 254 454 222 l 538 722 l 647 722 l 519 -47 q 503 -116 514 -82 q 472 -181 492 -150 q 424 -238 451 -212 q 364 -281 397 -264 q 296 -303 331 -297 q 228 -310 261 -310 m 390 806 l 328 861 l 524 1063 l 597 993 l 390 806 z "},"":{"ha":694,"x_min":-39,"x_max":618,"o":"m -39 -299 l 179 1021 l 289 1021 l 221 607 q 256 659 235 635 q 305 701 278 683 q 363 726 332 718 q 424 733 394 733 q 495 722 461 733 q 554 688 529 711 q 593 632 579 664 q 613 565 607 600 q 616 492 618 529 q 608 418 614 454 l 581 251 q 566 188 575 219 q 542 127 557 157 q 506 71 526 97 q 456 25 485 44 q 396 -3 428 6 q 332 -11 364 -11 q 263 -1 296 -11 q 204 32 229 10 q 165 85 179 54 q 146 151 151 117 l 71 -299 l -39 -299 m 289 86 q 334 91 311 86 q 378 108 357 96 q 415 139 399 121 q 444 178 432 157 q 463 222 457 200 q 472 267 469 244 l 500 433 q 506 481 504 457 q 504 528 508 506 q 490 572 500 551 q 465 608 481 593 q 426 629 449 622 q 381 636 404 636 q 315 625 349 636 q 256 590 281 614 q 217 533 231 565 q 199 468 203 500 l 171 301 q 165 251 167 276 q 165 203 163 226 q 177 157 168 179 q 202 118 186 135 q 241 94 218 101 q 289 86 264 86 z "},"":{"ha":694,"x_min":-17,"x_max":650,"o":"m 228 -310 q 165 -306 196 -310 q 106 -293 135 -303 q 53 -267 78 -283 q 13 -226 29 -250 q -9 -173 -3 -203 q -11 -111 -15 -143 l 97 -111 q 105 -159 93 -137 q 138 -192 117 -181 q 183 -208 158 -204 q 235 -212 208 -212 q 302 -199 268 -212 q 359 -158 336 -185 q 394 -98 382 -131 q 413 -32 407 -65 l 436 114 q 401 63 422 86 q 354 22 381 39 q 298 -3 328 4 q 239 -11 268 -11 q 169 0 203 -11 q 111 35 135 11 q 74 92 88 60 q 55 159 60 124 q 53 231 50 194 q 61 304 56 268 l 131 722 l 240 722 l 168 289 q 163 242 164 265 q 164 195 161 218 q 176 151 167 172 q 201 115 185 131 q 238 93 217 100 q 283 86 260 86 q 348 98 315 86 q 405 134 381 110 q 442 190 429 158 q 460 254 454 222 l 538 722 l 647 722 l 519 -47 q 503 -116 514 -82 q 472 -181 492 -150 q 424 -238 451 -212 q 364 -281 397 -264 q 296 -303 331 -297 q 228 -310 261 -310 m 561 844 q 522 852 542 844 q 492 875 503 860 q 478 910 481 890 q 478 951 475 931 q 488 978 481 965 q 507 1001 494 992 q 533 1013 519 1010 q 563 1017 547 1017 q 601 1009 582 1017 q 632 986 621 1001 q 647 951 643 971 q 646 910 650 931 q 636 883 643 896 q 617 860 629 869 q 590 848 604 851 q 561 844 576 844 m 283 844 q 244 852 264 844 q 214 875 225 860 q 200 910 203 890 q 200 951 197 931 q 210 978 203 965 q 229 1001 217 992 q 256 1013 242 1010 q 285 1017 269 1017 q 324 1009 304 1017 q 354 986 343 1001 q 369 951 365 971 q 368 910 372 931 q 358 883 365 896 q 339 860 351 869 q 313 848 326 851 q 283 844 299 844 z "},"":{"ha":694,"x_min":-18,"x_max":682,"o":"m -17 0 l 375 1021 l 500 1021 l 556 0 l 443 0 l 433 264 l 192 264 l 96 0 l -17 0 m 429 361 l 417 681 q 414 769 415 725 q 411 856 413 813 q 379 769 396 813 q 347 681 363 725 l 229 361 l 429 361 m 264 1186 l 265 1272 l 682 1272 l 681 1186 l 264 1186 z "},"":{"ha":694,"x_min":39,"x_max":647,"o":"m 233 -11 q 162 0 196 -11 q 103 35 128 11 q 65 90 79 58 q 45 158 50 122 q 42 231 40 193 q 50 304 44 268 l 78 471 q 92 534 83 503 q 115 595 100 565 q 152 651 131 625 q 201 697 174 678 q 261 725 229 717 q 325 733 293 733 q 395 723 361 733 q 453 690 429 713 q 492 637 478 668 q 513 571 507 606 l 538 722 l 647 722 l 547 121 q 547 107 546 114 q 552 95 549 100 q 563 88 556 90 q 576 86 569 86 l 606 86 l 604 -11 l 560 -11 q 508 -4 533 -11 q 464 19 482 3 q 440 63 446 36 q 436 115 433 89 q 401 63 422 88 q 352 22 379 39 q 294 -3 325 4 q 233 -11 263 -11 m 278 86 q 344 97 310 86 q 402 133 378 108 q 440 190 426 157 q 460 254 454 222 l 488 421 q 494 471 492 446 q 492 519 496 496 q 481 565 489 543 q 456 604 472 588 q 417 628 440 621 q 369 636 394 636 q 324 631 347 636 q 279 614 300 626 q 242 583 258 601 q 213 544 225 565 q 195 500 201 522 q 185 456 189 478 l 157 289 q 151 241 153 265 q 153 194 150 217 q 167 150 157 171 q 193 115 176 129 q 232 93 210 100 q 278 86 254 86 m 214 888 l 215 974 l 632 974 l 631 888 l 214 888 z "},"":{"ha":694,"x_min":-18,"x_max":704,"o":"m -17 0 l 375 1021 l 500 1021 l 556 0 l 443 0 l 433 264 l 192 264 l 96 0 l -17 0 m 429 361 l 417 681 q 414 769 415 725 q 411 856 413 813 q 379 769 396 813 q 347 681 363 725 l 229 361 l 429 361 m 457 1132 q 376 1142 415 1132 q 310 1179 338 1153 q 275 1245 283 1206 q 274 1326 267 1285 l 371 1326 q 372 1282 368 1304 q 392 1245 376 1260 q 428 1225 407 1231 q 471 1219 449 1219 q 517 1225 493 1219 q 560 1245 540 1231 q 592 1282 579 1260 q 607 1326 604 1304 l 704 1326 q 676 1245 697 1285 q 620 1179 656 1206 q 542 1142 585 1153 q 457 1132 499 1132 z "},"":{"ha":694,"x_min":39,"x_max":656,"o":"m 233 -11 q 162 0 196 -11 q 103 35 128 11 q 65 90 79 58 q 45 158 50 122 q 42 231 40 193 q 50 304 44 268 l 78 471 q 92 534 83 503 q 115 595 100 565 q 152 651 131 625 q 201 697 174 678 q 261 725 229 717 q 325 733 293 733 q 395 723 361 733 q 453 690 429 713 q 492 637 478 668 q 513 571 507 606 l 538 722 l 647 722 l 547 121 q 547 107 546 114 q 552 95 549 100 q 563 88 556 90 q 576 86 569 86 l 606 86 l 604 -11 l 560 -11 q 508 -4 533 -11 q 464 19 482 3 q 440 63 446 36 q 436 115 433 89 q 401 63 422 88 q 352 22 379 39 q 294 -3 325 4 q 233 -11 263 -11 m 278 86 q 344 97 310 86 q 402 133 378 108 q 440 190 426 157 q 460 254 454 222 l 488 421 q 494 471 492 446 q 492 519 496 496 q 481 565 489 543 q 456 604 472 588 q 417 628 440 621 q 369 636 394 636 q 324 631 347 636 q 279 614 300 626 q 242 583 258 601 q 213 544 225 565 q 195 500 201 522 q 185 456 189 478 l 157 289 q 151 241 153 265 q 153 194 150 217 q 167 150 157 171 q 193 115 176 129 q 232 93 210 100 q 278 86 254 86 m 407 833 q 326 844 365 833 q 260 881 288 854 q 225 947 233 907 q 224 1028 217 986 l 321 1028 q 322 983 318 1006 q 342 947 326 961 q 378 926 357 932 q 421 921 399 921 q 467 926 443 921 q 510 947 490 932 q 542 983 529 961 q 557 1028 554 1006 l 654 1028 q 626 947 647 986 q 570 881 606 907 q 492 844 535 854 q 407 833 449 833 z "},"":{"ha":694,"x_min":-18,"x_max":556,"o":"m -17 0 l 375 1021 l 500 1021 l 556 0 l 443 0 l 433 264 l 192 264 l 96 0 l -17 0 m 429 361 l 417 681 q 414 769 415 725 q 411 856 413 813 q 379 769 396 813 q 347 681 363 725 l 229 361 l 429 361 m 449 -310 q 389 -302 418 -310 q 338 -276 360 -294 q 306 -230 315 -258 q 301 -171 297 -201 q 332 -94 308 -131 q 388 -28 356 -57 q 459 22 421 1 q 536 54 497 43 l 528 0 q 486 -31 506 -14 q 450 -69 467 -49 q 420 -112 433 -89 q 403 -158 407 -135 q 404 -186 400 -172 q 419 -208 408 -200 q 443 -219 429 -215 q 471 -222 457 -222 q 493 -221 482 -222 q 514 -217 504 -219 l 499 -304 q 474 -308 486 -307 q 449 -310 461 -310 z "},"":{"ha":694,"x_min":39,"x_max":647,"o":"m 233 -11 q 162 0 196 -11 q 103 35 128 11 q 65 90 79 58 q 45 158 50 122 q 42 231 40 193 q 50 304 44 268 l 78 471 q 92 534 83 503 q 115 595 100 565 q 152 651 131 625 q 201 697 174 678 q 261 725 229 717 q 325 733 293 733 q 395 723 361 733 q 453 690 429 713 q 492 637 478 668 q 513 571 507 606 l 538 722 l 647 722 l 547 121 q 547 107 546 114 q 552 95 549 100 q 563 88 556 90 q 576 86 569 86 l 606 86 l 604 -11 l 560 -11 q 508 -4 533 -11 q 464 19 482 3 q 440 63 446 36 q 436 115 433 89 q 401 63 422 88 q 352 22 379 39 q 294 -3 325 4 q 233 -11 263 -11 m 278 86 q 344 97 310 86 q 402 133 378 108 q 440 190 426 157 q 460 254 454 222 l 488 421 q 494 471 492 446 q 492 519 496 496 q 481 565 489 543 q 456 604 472 588 q 417 628 440 621 q 369 636 394 636 q 324 631 347 636 q 279 614 300 626 q 242 583 258 601 q 213 544 225 565 q 195 500 201 522 q 185 456 189 478 l 157 289 q 151 241 153 265 q 153 194 150 217 q 167 150 157 171 q 193 115 176 129 q 232 93 210 100 q 278 86 254 86 m 513 -310 q 453 -302 482 -310 q 401 -276 424 -294 q 370 -230 379 -258 q 365 -171 361 -201 q 396 -94 372 -131 q 452 -28 419 -57 q 523 22 485 1 q 600 54 561 43 l 592 0 q 550 -31 569 -14 q 514 -69 531 -49 q 484 -112 497 -89 q 467 -158 471 -135 q 468 -186 464 -172 q 483 -208 472 -200 q 507 -219 493 -215 q 535 -222 521 -222 q 557 -221 546 -222 q 578 -217 568 -219 l 563 -304 q 538 -308 550 -307 q 513 -310 525 -310 z "},"":{"ha":694,"x_min":40,"x_max":667,"o":"m 286 -11 q 208 -3 246 -11 q 138 24 169 4 q 85 74 107 44 q 52 141 63 104 q 42 217 42 178 q 49 297 42 257 l 128 776 q 145 845 133 811 q 177 910 157 879 q 226 965 197 940 q 287 1004 254 989 q 355 1026 319 1019 q 425 1032 390 1032 q 493 1026 460 1032 q 556 1007 526 1021 q 610 970 586 993 q 646 917 633 947 q 662 853 658 888 q 660 783 665 819 l 658 771 l 550 771 l 551 779 q 551 842 556 811 q 526 894 546 872 q 477 926 507 917 q 415 935 447 935 q 349 922 383 935 q 291 884 315 910 q 253 826 267 858 q 235 761 240 794 l 156 282 q 151 233 151 257 q 156 185 150 208 q 173 143 161 163 q 204 110 185 124 q 247 92 224 97 q 294 86 271 86 q 361 98 328 86 q 420 134 394 110 q 463 190 446 158 q 488 253 479 221 l 589 229 q 547 134 575 181 q 478 53 519 88 q 387 4 438 19 q 286 -11 336 -11 m 440 1104 l 378 1160 l 574 1361 l 647 1292 l 440 1104 z "},"":{"ha":694,"x_min":42,"x_max":617,"o":"m 288 -11 q 207 -3 246 -11 q 137 26 168 6 q 84 77 106 46 q 53 146 63 108 q 43 224 43 183 q 50 304 43 264 l 78 471 q 94 540 83 506 q 126 606 106 575 q 175 663 147 638 q 236 705 203 689 q 305 727 269 721 q 375 733 340 733 q 444 728 410 733 q 507 708 478 722 q 560 672 536 694 q 597 619 583 649 q 613 554 610 589 q 610 485 617 519 l 608 472 l 500 472 l 501 481 q 501 543 507 513 q 476 595 496 574 q 428 626 457 617 q 367 636 399 636 q 299 623 333 636 q 240 583 264 610 q 203 522 215 556 q 185 456 190 489 l 157 289 q 151 239 153 264 q 156 190 150 214 q 174 146 161 167 q 204 111 186 125 q 247 92 222 97 q 296 86 271 86 q 361 99 328 86 q 420 135 394 111 q 463 191 446 160 q 489 254 479 222 l 589 229 q 547 135 574 181 q 478 54 519 89 q 387 4 438 19 q 288 -11 336 -11 m 390 806 l 328 861 l 524 1063 l 597 993 l 390 806 z "},"":{"ha":694,"x_min":40,"x_max":667,"o":"m 286 -11 q 208 -3 246 -11 q 138 24 169 4 q 85 74 107 44 q 52 141 63 104 q 42 217 42 178 q 49 297 42 257 l 128 776 q 145 845 133 811 q 177 910 157 879 q 226 965 197 940 q 287 1004 254 989 q 355 1026 319 1019 q 425 1032 390 1032 q 493 1026 460 1032 q 556 1007 526 1021 q 610 970 586 993 q 646 917 633 947 q 662 853 658 888 q 660 783 665 819 l 658 771 l 550 771 l 551 779 q 551 842 556 811 q 526 894 546 872 q 477 926 507 917 q 415 935 447 935 q 349 922 383 935 q 291 884 315 910 q 253 826 267 858 q 235 761 240 794 l 156 282 q 151 233 151 257 q 156 185 150 208 q 173 143 161 163 q 204 110 185 124 q 247 92 224 97 q 294 86 271 86 q 361 98 328 86 q 420 134 394 110 q 463 190 446 158 q 488 253 479 221 l 589 229 q 547 134 575 181 q 478 53 519 88 q 387 4 438 19 q 286 -11 336 -11 m 326 1115 l 265 1167 l 431 1354 l 558 1354 l 657 1160 l 586 1122 l 482 1276 l 326 1115 z "},"":{"ha":694,"x_min":42,"x_max":617,"o":"m 288 -11 q 207 -3 246 -11 q 137 26 168 6 q 84 77 106 46 q 53 146 63 108 q 43 224 43 183 q 50 304 43 264 l 78 471 q 94 540 83 506 q 126 606 106 575 q 175 663 147 638 q 236 705 203 689 q 305 727 269 721 q 375 733 340 733 q 444 728 410 733 q 507 708 478 722 q 560 672 536 694 q 597 619 583 649 q 613 554 610 589 q 610 485 617 519 l 608 472 l 500 472 l 501 481 q 501 543 507 513 q 476 595 496 574 q 428 626 457 617 q 367 636 399 636 q 299 623 333 636 q 240 583 264 610 q 203 522 215 556 q 185 456 190 489 l 157 289 q 151 239 153 264 q 156 190 150 214 q 174 146 161 167 q 204 111 186 125 q 247 92 222 97 q 296 86 271 86 q 361 99 328 86 q 420 135 394 111 q 463 191 446 160 q 489 254 479 222 l 589 229 q 547 135 574 181 q 478 54 519 89 q 387 4 438 19 q 288 -11 336 -11 m 276 817 l 215 868 l 381 1056 l 508 1056 l 607 861 l 536 824 l 432 978 l 276 817 z "},"":{"ha":694,"x_min":40,"x_max":667,"o":"m 286 -11 q 208 -3 246 -11 q 138 24 169 4 q 85 74 107 44 q 52 141 63 104 q 42 217 42 178 q 49 297 42 257 l 128 776 q 145 845 133 811 q 177 910 157 879 q 226 965 197 940 q 287 1004 254 989 q 355 1026 319 1019 q 425 1032 390 1032 q 493 1026 460 1032 q 556 1007 526 1021 q 610 970 586 993 q 646 917 633 947 q 662 853 658 888 q 660 783 665 819 l 658 771 l 550 771 l 551 779 q 551 842 556 811 q 526 894 546 872 q 477 926 507 917 q 415 935 447 935 q 349 922 383 935 q 291 884 315 910 q 253 826 267 858 q 235 761 240 794 l 156 282 q 151 233 151 257 q 156 185 150 208 q 173 143 161 163 q 204 110 185 124 q 247 92 224 97 q 294 86 271 86 q 361 98 328 86 q 420 134 394 110 q 463 190 446 158 q 488 253 479 221 l 589 229 q 547 134 575 181 q 478 53 519 88 q 387 4 438 19 q 286 -11 336 -11 m 472 1143 q 433 1150 453 1143 q 403 1172 414 1157 q 388 1208 392 1188 q 388 1250 385 1229 q 398 1278 390 1264 q 417 1301 406 1292 q 444 1313 429 1310 q 474 1317 458 1317 q 513 1309 493 1317 q 544 1286 532 1301 q 559 1250 556 1271 q 558 1208 563 1229 q 548 1181 556 1194 q 528 1158 540 1167 q 502 1146 517 1149 q 472 1143 488 1143 z "},"":{"ha":694,"x_min":42,"x_max":617,"o":"m 288 -11 q 207 -3 246 -11 q 137 26 168 6 q 84 77 106 46 q 53 146 63 108 q 43 224 43 183 q 50 304 43 264 l 78 471 q 94 540 83 506 q 126 606 106 575 q 175 663 147 638 q 236 705 203 689 q 305 727 269 721 q 375 733 340 733 q 444 728 410 733 q 507 708 478 722 q 560 672 536 694 q 597 619 583 649 q 613 554 610 589 q 610 485 617 519 l 608 472 l 500 472 l 501 481 q 501 543 507 513 q 476 595 496 574 q 428 626 457 617 q 367 636 399 636 q 299 623 333 636 q 240 583 264 610 q 203 522 215 556 q 185 456 190 489 l 157 289 q 151 239 153 264 q 156 190 150 214 q 174 146 161 167 q 204 111 186 125 q 247 92 222 97 q 296 86 271 86 q 361 99 328 86 q 420 135 394 111 q 463 191 446 160 q 489 254 479 222 l 589 229 q 547 135 574 181 q 478 54 519 89 q 387 4 438 19 q 288 -11 336 -11 m 422 844 q 383 851 403 844 q 353 874 364 858 q 338 910 342 889 q 338 951 335 931 q 348 979 340 965 q 367 1002 356 993 q 394 1015 379 1011 q 424 1018 408 1018 q 463 1010 443 1018 q 494 988 482 1003 q 509 951 506 972 q 508 910 513 931 q 498 882 506 896 q 478 859 490 868 q 452 847 467 850 q 422 844 438 844 z "},"":{"ha":694,"x_min":40,"x_max":685,"o":"m 286 -11 q 208 -3 246 -11 q 138 24 169 4 q 85 74 107 44 q 52 141 63 104 q 42 217 42 178 q 49 297 42 257 l 128 776 q 145 845 133 811 q 177 910 157 879 q 226 965 197 940 q 287 1004 254 989 q 355 1026 319 1019 q 425 1032 390 1032 q 493 1026 460 1032 q 556 1007 526 1021 q 610 970 586 993 q 646 917 633 947 q 662 853 658 888 q 660 783 665 819 l 658 771 l 550 771 l 551 779 q 551 842 556 811 q 526 894 546 872 q 477 926 507 917 q 415 935 447 935 q 349 922 383 935 q 291 884 315 910 q 253 826 267 858 q 235 761 240 794 l 156 282 q 151 233 151 257 q 156 185 150 208 q 173 143 161 163 q 204 110 185 124 q 247 92 224 97 q 294 86 271 86 q 361 98 328 86 q 420 134 394 110 q 463 190 446 158 q 488 253 479 221 l 589 229 q 547 134 575 181 q 478 53 519 88 q 387 4 438 19 q 286 -11 336 -11 m 393 1132 l 293 1326 l 365 1364 l 468 1210 l 625 1371 l 685 1319 l 521 1132 l 393 1132 z "},"":{"ha":694,"x_min":42,"x_max":636,"o":"m 288 -11 q 207 -3 246 -11 q 137 26 168 6 q 84 77 106 46 q 53 146 63 108 q 43 224 43 183 q 50 304 43 264 l 78 471 q 94 540 83 506 q 126 606 106 575 q 175 663 147 638 q 236 705 203 689 q 305 727 269 721 q 375 733 340 733 q 444 728 410 733 q 507 708 478 722 q 560 672 536 694 q 597 619 583 649 q 613 554 610 589 q 610 485 617 519 l 608 472 l 500 472 l 501 481 q 501 543 507 513 q 476 595 496 574 q 428 626 457 617 q 367 636 399 636 q 299 623 333 636 q 240 583 264 610 q 203 522 215 556 q 185 456 190 489 l 157 289 q 151 239 153 264 q 156 190 150 214 q 174 146 161 167 q 204 111 186 125 q 247 92 222 97 q 296 86 271 86 q 361 99 328 86 q 420 135 394 111 q 463 191 446 160 q 489 254 479 222 l 589 229 q 547 135 574 181 q 478 54 519 89 q 387 4 438 19 q 288 -11 336 -11 m 343 833 l 243 1028 l 315 1065 l 418 911 l 575 1072 l 635 1021 l 471 833 l 343 833 z "},"":{"ha":694,"x_min":10,"x_max":685,"o":"m 246 0 l 11 0 l 179 1021 l 382 1021 q 469 1013 426 1021 q 547 986 511 1006 q 608 935 582 967 q 647 865 633 904 q 660 783 660 826 q 654 696 661 740 l 583 271 q 564 196 578 233 q 526 126 550 158 q 468 67 501 93 q 397 26 435 42 q 322 6 360 11 q 246 0 283 0 m 136 97 l 244 97 q 297 101 271 97 q 350 117 324 106 q 399 145 376 128 q 438 185 421 163 q 463 235 454 208 q 476 288 472 261 l 547 713 q 551 767 551 739 q 544 819 551 794 q 522 865 538 844 q 485 899 507 886 q 437 918 463 913 q 383 924 411 924 l 274 924 l 136 97 m 393 1132 l 293 1326 l 365 1364 l 468 1210 l 625 1371 l 685 1319 l 521 1132 l 393 1132 z "},"":{"ha":694,"x_min":36,"x_max":821,"o":"m 704 790 l 657 840 q 694 881 678 858 q 722 929 710 904 q 703 938 713 932 q 690 952 694 943 q 684 972 685 961 q 685 994 683 983 q 694 1021 688 1008 q 711 1043 700 1033 q 735 1057 722 1053 q 763 1061 749 1061 q 788 1057 776 1061 q 808 1043 800 1053 q 819 1021 817 1033 q 818 994 821 1008 q 804 939 814 967 q 781 885 794 911 q 747 834 767 858 q 704 790 728 810 m 217 -11 q 149 -1 181 -11 q 94 33 117 10 q 59 87 71 56 q 42 151 47 118 q 40 219 38 185 q 47 289 42 254 l 79 483 q 93 543 85 514 q 115 600 101 572 q 147 653 128 628 q 192 698 167 679 q 248 725 218 717 q 307 733 278 733 q 372 724 340 733 q 426 693 403 714 q 462 644 449 672 q 479 583 475 615 l 551 1021 l 661 1021 l 513 121 q 513 107 511 114 q 517 95 514 100 q 528 88 521 90 q 542 86 535 86 l 571 86 l 569 -11 l 525 -11 q 475 -5 499 -11 q 433 17 451 1 q 407 56 415 32 q 401 106 399 79 q 368 58 388 81 q 324 19 349 35 q 271 -4 299 3 q 217 -11 243 -11 m 260 86 q 320 97 290 86 q 372 131 350 108 q 406 183 394 154 q 424 242 418 213 l 456 436 q 460 481 458 458 q 460 526 463 504 q 451 569 458 549 q 430 605 443 589 q 396 628 417 621 q 353 636 375 636 q 290 623 321 636 q 236 585 258 610 q 203 529 214 560 q 188 468 192 499 l 154 274 q 150 230 151 251 q 151 188 149 208 q 162 147 154 167 q 183 113 169 128 q 218 92 197 99 q 260 86 239 86 z "},"":{"ha":694,"x_min":10,"x_max":661,"o":"m 246 0 l 11 0 l 89 468 l 32 468 l 32 553 l 103 553 l 179 1021 l 382 1021 q 469 1013 426 1021 q 547 986 511 1006 q 608 935 582 967 q 647 865 633 904 q 660 783 660 826 q 654 696 661 740 l 583 271 q 564 196 578 233 q 526 126 550 158 q 468 67 501 93 q 397 26 435 42 q 322 6 360 11 q 246 0 283 0 m 136 97 l 244 97 q 297 101 271 97 q 350 117 324 106 q 399 145 376 128 q 438 185 421 163 q 463 235 454 208 q 476 288 472 261 l 547 713 q 551 767 551 739 q 544 819 551 794 q 522 865 538 844 q 485 899 507 886 q 437 918 463 913 q 383 924 411 924 l 274 924 l 213 553 l 347 553 l 347 468 l 199 468 l 136 97 z "},"":{"ha":694,"x_min":39,"x_max":736,"o":"m 233 -11 q 162 0 196 -11 q 103 35 128 11 q 65 90 79 58 q 45 158 50 122 q 42 231 40 193 q 50 304 44 268 l 78 471 q 92 534 83 503 q 115 595 100 565 q 152 651 131 625 q 201 697 174 678 q 261 725 229 717 q 325 733 293 733 q 395 723 361 733 q 453 690 429 713 q 492 637 478 668 q 513 571 507 606 l 556 829 l 417 829 l 417 914 l 569 914 l 586 1021 l 696 1021 l 679 914 l 736 914 l 736 829 l 665 829 l 547 121 q 547 107 546 114 q 552 95 549 100 q 563 88 556 90 q 576 86 569 86 l 606 86 l 604 -11 l 560 -11 q 508 -4 533 -11 q 464 19 482 3 q 440 63 446 36 q 436 115 433 89 q 401 63 422 88 q 352 22 379 39 q 294 -3 325 4 q 233 -11 263 -11 m 278 86 q 344 97 310 86 q 402 133 378 108 q 440 190 426 157 q 460 254 454 222 l 488 421 q 494 471 492 446 q 492 519 496 496 q 481 565 489 543 q 456 604 472 588 q 417 628 440 621 q 369 636 394 636 q 324 631 347 636 q 279 614 300 626 q 242 583 258 601 q 213 544 225 565 q 195 500 201 522 q 185 456 189 478 l 157 289 q 151 241 153 265 q 153 194 150 217 q 167 150 157 171 q 193 115 176 129 q 232 93 210 100 q 278 86 254 86 z "},"":{"ha":694,"x_min":21,"x_max":697,"o":"m 22 0 l 190 1021 l 696 1021 l 681 924 l 285 924 l 228 579 l 546 579 l 529 482 l 211 482 l 147 97 l 543 97 l 528 0 l 22 0 m 264 1186 l 265 1272 l 682 1272 l 681 1186 l 264 1186 z "},"":{"ha":694,"x_min":42,"x_max":632,"o":"m 292 -11 q 212 -3 251 -11 q 140 25 172 6 q 85 76 108 44 q 52 144 63 107 q 42 223 42 182 q 50 304 43 264 l 78 471 q 94 540 83 506 q 126 606 106 575 q 176 663 147 638 q 238 705 204 689 q 306 727 271 721 q 375 733 340 733 q 441 729 408 733 q 504 715 474 725 q 560 685 535 704 q 601 640 585 667 q 624 582 618 614 q 624 517 629 550 q 603 453 618 483 q 564 397 588 422 q 511 352 540 371 q 450 321 482 333 q 385 303 418 308 q 321 299 353 299 q 239 303 279 299 q 161 317 199 308 l 157 289 q 152 238 153 264 q 156 189 151 213 q 175 145 161 165 q 208 111 189 125 q 251 92 226 97 q 301 86 275 86 q 359 94 329 86 q 414 122 389 103 q 458 166 439 140 q 489 219 478 192 l 581 181 q 533 101 563 139 q 464 38 503 64 q 381 0 425 11 q 292 -11 336 -11 m 321 396 q 383 403 351 396 q 442 428 414 411 q 492 472 471 444 q 518 528 513 499 q 510 578 522 556 q 476 615 497 601 q 429 632 456 628 q 376 636 403 636 q 328 631 353 636 q 283 615 304 626 q 244 585 263 603 q 214 545 226 567 q 195 501 201 524 q 185 456 189 478 l 178 413 q 249 400 213 404 q 321 396 285 396 m 214 888 l 215 974 l 632 974 l 631 888 l 214 888 z "},"":{"ha":694,"x_min":21,"x_max":704,"o":"m 22 0 l 190 1021 l 696 1021 l 681 924 l 285 924 l 228 579 l 546 579 l 529 482 l 211 482 l 147 97 l 543 97 l 528 0 l 22 0 m 457 1132 q 376 1142 415 1132 q 310 1179 338 1153 q 275 1245 283 1206 q 274 1326 267 1285 l 371 1326 q 372 1282 368 1304 q 392 1245 376 1260 q 428 1225 407 1231 q 471 1219 449 1219 q 517 1225 493 1219 q 560 1245 540 1231 q 592 1282 579 1260 q 607 1326 604 1304 l 704 1326 q 676 1245 697 1285 q 620 1179 656 1206 q 542 1142 585 1153 q 457 1132 499 1132 z "},"":{"ha":694,"x_min":42,"x_max":656,"o":"m 292 -11 q 212 -3 251 -11 q 140 25 172 6 q 85 76 108 44 q 52 144 63 107 q 42 223 42 182 q 50 304 43 264 l 78 471 q 94 540 83 506 q 126 606 106 575 q 176 663 147 638 q 238 705 204 689 q 306 727 271 721 q 375 733 340 733 q 441 729 408 733 q 504 715 474 725 q 560 685 535 704 q 601 640 585 667 q 624 582 618 614 q 624 517 629 550 q 603 453 618 483 q 564 397 588 422 q 511 352 540 371 q 450 321 482 333 q 385 303 418 308 q 321 299 353 299 q 239 303 279 299 q 161 317 199 308 l 157 289 q 152 238 153 264 q 156 189 151 213 q 175 145 161 165 q 208 111 189 125 q 251 92 226 97 q 301 86 275 86 q 359 94 329 86 q 414 122 389 103 q 458 166 439 140 q 489 219 478 192 l 581 181 q 533 101 563 139 q 464 38 503 64 q 381 0 425 11 q 292 -11 336 -11 m 321 396 q 383 403 351 396 q 442 428 414 411 q 492 472 471 444 q 518 528 513 499 q 510 578 522 556 q 476 615 497 601 q 429 632 456 628 q 376 636 403 636 q 328 631 353 636 q 283 615 304 626 q 244 585 263 603 q 214 545 226 567 q 195 501 201 524 q 185 456 189 478 l 178 413 q 249 400 213 404 q 321 396 285 396 m 407 833 q 326 844 365 833 q 260 881 288 854 q 225 947 233 907 q 224 1028 217 986 l 321 1028 q 322 983 318 1006 q 342 947 326 961 q 378 926 357 932 q 421 921 399 921 q 467 926 443 921 q 510 947 490 932 q 542 983 529 961 q 557 1028 554 1006 l 654 1028 q 626 947 647 986 q 570 881 606 907 q 492 844 535 854 q 407 833 449 833 z "},"":{"ha":694,"x_min":21,"x_max":697,"o":"m 22 0 l 190 1021 l 696 1021 l 681 924 l 285 924 l 228 579 l 546 579 l 529 482 l 211 482 l 147 97 l 543 97 l 528 0 l 22 0 m 472 1143 q 433 1150 453 1143 q 403 1172 414 1157 q 388 1208 392 1188 q 388 1250 385 1229 q 398 1278 390 1264 q 417 1301 406 1292 q 444 1313 429 1310 q 474 1317 458 1317 q 513 1309 493 1317 q 544 1286 532 1301 q 559 1250 556 1271 q 558 1208 563 1229 q 548 1181 556 1194 q 528 1158 540 1167 q 502 1146 517 1149 q 472 1143 488 1143 z "},"":{"ha":694,"x_min":42,"x_max":631,"o":"m 292 -11 q 212 -3 251 -11 q 140 25 172 6 q 85 76 108 44 q 52 144 63 107 q 42 223 42 182 q 50 304 43 264 l 78 471 q 94 540 83 506 q 126 606 106 575 q 176 663 147 638 q 238 705 204 689 q 306 727 271 721 q 375 733 340 733 q 441 729 408 733 q 504 715 474 725 q 560 685 535 704 q 601 640 585 667 q 624 582 618 614 q 624 517 629 550 q 603 453 618 483 q 564 397 588 422 q 511 352 540 371 q 450 321 482 333 q 385 303 418 308 q 321 299 353 299 q 239 303 279 299 q 161 317 199 308 l 157 289 q 152 238 153 264 q 156 189 151 213 q 175 145 161 165 q 208 111 189 125 q 251 92 226 97 q 301 86 275 86 q 359 94 329 86 q 414 122 389 103 q 458 166 439 140 q 489 219 478 192 l 581 181 q 533 101 563 139 q 464 38 503 64 q 381 0 425 11 q 292 -11 336 -11 m 321 396 q 383 403 351 396 q 442 428 414 411 q 492 472 471 444 q 518 528 513 499 q 510 578 522 556 q 476 615 497 601 q 429 632 456 628 q 376 636 403 636 q 328 631 353 636 q 283 615 304 626 q 244 585 263 603 q 214 545 226 567 q 195 501 201 524 q 185 456 189 478 l 178 413 q 249 400 213 404 q 321 396 285 396 m 422 844 q 383 851 403 844 q 353 874 364 858 q 338 910 342 889 q 338 951 335 931 q 348 979 340 965 q 367 1002 356 993 q 394 1015 379 1011 q 424 1018 408 1018 q 463 1010 443 1018 q 494 988 482 1003 q 509 951 506 972 q 508 910 513 931 q 498 882 506 896 q 478 859 490 868 q 452 847 467 850 q 422 844 438 844 z "},"":{"ha":694,"x_min":21,"x_max":697,"o":"m 22 0 l 190 1021 l 696 1021 l 681 924 l 285 924 l 228 579 l 546 579 l 529 482 l 211 482 l 147 97 l 543 97 l 528 0 l 22 0 m 449 -310 q 389 -302 418 -310 q 338 -276 360 -294 q 306 -230 315 -258 q 301 -171 297 -201 q 332 -94 308 -131 q 388 -28 356 -57 q 459 22 421 1 q 536 54 497 43 l 528 0 q 486 -31 506 -14 q 450 -69 467 -49 q 420 -112 433 -89 q 403 -158 407 -135 q 404 -186 400 -172 q 419 -208 408 -200 q 443 -219 429 -215 q 471 -222 457 -222 q 493 -221 482 -222 q 514 -217 504 -219 l 499 -304 q 474 -308 486 -307 q 449 -310 461 -310 z "},"":{"ha":694,"x_min":42,"x_max":631,"o":"m 440 -310 q 381 -302 410 -310 q 331 -276 353 -294 q 301 -229 310 -257 q 296 -171 292 -201 q 315 -117 301 -143 q 346 -67 328 -90 q 386 -24 364 -44 q 429 18 408 -3 q 362 -5 397 1 q 292 -11 326 -11 q 212 -3 251 -11 q 140 25 172 6 q 85 76 108 44 q 52 144 63 107 q 42 223 42 182 q 50 304 43 264 l 78 471 q 94 540 83 506 q 126 606 106 575 q 176 663 147 638 q 238 705 204 689 q 306 727 271 721 q 375 733 340 733 q 441 729 408 733 q 504 715 474 725 q 560 685 535 704 q 601 640 585 667 q 624 582 618 614 q 624 517 629 550 q 603 453 618 483 q 564 397 588 422 q 511 352 540 371 q 450 321 482 333 q 385 303 418 308 q 321 299 353 299 q 239 303 279 299 q 161 317 199 308 l 157 289 q 152 238 153 264 q 156 189 151 213 q 175 145 161 165 q 208 111 189 125 q 251 92 226 97 q 301 86 275 86 q 359 94 329 86 q 414 122 389 103 q 458 166 439 140 q 489 219 478 192 l 581 181 q 571 153 574 160 q 565 136 568 147 q 556 114 561 125 q 547 91 551 103 q 538 69 543 79 q 528 47 533 58 q 517 26 522 36 q 504 5 511 15 q 490 -15 497 -6 q 474 -35 482 -25 q 458 -54 465 -44 q 443 -74 450 -64 q 428 -94 436 -83 q 415 -115 421 -104 q 403 -136 408 -125 q 397 -158 399 -147 q 399 -185 394 -172 q 413 -207 403 -199 q 437 -219 424 -215 q 465 -222 450 -222 q 489 -221 476 -222 q 514 -217 501 -219 l 499 -304 q 469 -308 483 -307 q 440 -310 456 -310 m 321 396 q 383 403 351 396 q 442 428 414 411 q 492 472 471 444 q 518 528 513 499 q 510 578 522 556 q 476 615 497 601 q 429 632 456 628 q 376 636 403 636 q 328 631 353 636 q 283 615 304 626 q 244 585 263 603 q 214 545 226 567 q 195 501 201 524 q 185 456 189 478 l 178 413 q 249 400 213 404 q 321 396 285 396 z "},"":{"ha":694,"x_min":21,"x_max":697,"o":"m 22 0 l 190 1021 l 696 1021 l 681 924 l 285 924 l 228 579 l 546 579 l 529 482 l 211 482 l 147 97 l 543 97 l 528 0 l 22 0 m 393 1132 l 293 1326 l 365 1364 l 468 1210 l 625 1371 l 685 1319 l 521 1132 l 393 1132 z "},"":{"ha":694,"x_min":42,"x_max":636,"o":"m 292 -11 q 212 -3 251 -11 q 140 25 172 6 q 85 76 108 44 q 52 144 63 107 q 42 223 42 182 q 50 304 43 264 l 78 471 q 94 540 83 506 q 126 606 106 575 q 176 663 147 638 q 238 705 204 689 q 306 727 271 721 q 375 733 340 733 q 441 729 408 733 q 504 715 474 725 q 560 685 535 704 q 601 640 585 667 q 624 582 618 614 q 624 517 629 550 q 603 453 618 483 q 564 397 588 422 q 511 352 540 371 q 450 321 482 333 q 385 303 418 308 q 321 299 353 299 q 239 303 279 299 q 161 317 199 308 l 157 289 q 152 238 153 264 q 156 189 151 213 q 175 145 161 165 q 208 111 189 125 q 251 92 226 97 q 301 86 275 86 q 359 94 329 86 q 414 122 389 103 q 458 166 439 140 q 489 219 478 192 l 581 181 q 533 101 563 139 q 464 38 503 64 q 381 0 425 11 q 292 -11 336 -11 m 321 396 q 383 403 351 396 q 442 428 414 411 q 492 472 471 444 q 518 528 513 499 q 510 578 522 556 q 476 615 497 601 q 429 632 456 628 q 376 636 403 636 q 328 631 353 636 q 283 615 304 626 q 244 585 263 603 q 214 545 226 567 q 195 501 201 524 q 185 456 189 478 l 178 413 q 249 400 213 404 q 321 396 285 396 m 343 833 l 243 1028 l 315 1065 l 418 911 l 575 1072 l 635 1021 l 471 833 l 343 833 z "},"":{"ha":694,"x_min":39,"x_max":667,"o":"m 233 -11 q 163 -1 197 -11 q 104 33 129 10 q 65 87 79 56 q 44 153 50 118 q 41 224 39 188 q 49 297 43 261 l 128 776 q 145 845 133 811 q 177 910 157 879 q 226 965 197 940 q 287 1004 254 989 q 355 1026 319 1019 q 425 1032 390 1032 q 493 1026 460 1032 q 556 1007 526 1021 q 610 970 586 993 q 646 917 633 947 q 662 853 658 888 q 660 783 665 819 l 658 771 l 550 771 l 551 779 q 551 842 556 811 q 526 894 546 872 q 477 926 507 917 q 415 935 447 935 q 350 922 383 935 q 292 884 317 910 q 253 826 267 858 q 235 761 240 794 l 156 282 q 151 235 153 258 q 154 189 150 211 q 168 147 158 167 q 194 113 178 126 q 232 92 210 99 q 278 86 254 86 q 342 96 310 86 q 399 128 374 106 q 439 182 425 151 q 458 244 453 213 l 493 458 l 344 458 l 361 556 l 619 556 l 528 0 l 429 0 l 453 144 q 417 82 439 113 q 367 30 396 51 q 302 -1 338 8 q 233 -11 267 -11 m 326 1115 l 265 1167 l 431 1354 l 558 1354 l 657 1160 l 586 1122 l 482 1276 l 326 1115 z "},"":{"ha":694,"x_min":-17,"x_max":647,"o":"m 228 -310 q 165 -306 196 -310 q 106 -293 135 -303 q 53 -267 78 -283 q 13 -226 29 -250 q -9 -173 -3 -203 q -11 -111 -15 -143 l 97 -111 q 105 -159 93 -137 q 138 -192 117 -181 q 183 -208 158 -204 q 235 -212 208 -212 q 302 -199 268 -212 q 359 -158 336 -185 q 394 -98 382 -131 q 413 -32 407 -65 l 436 115 q 401 63 422 88 q 352 22 379 39 q 294 -3 325 4 q 233 -11 263 -11 q 162 0 196 -11 q 103 35 128 11 q 65 90 79 58 q 45 158 50 122 q 42 231 40 193 q 50 304 44 268 l 78 471 q 92 534 83 503 q 115 595 100 565 q 152 651 131 625 q 201 697 174 678 q 261 725 229 717 q 325 733 293 733 q 395 723 361 733 q 453 690 429 713 q 492 637 478 668 q 513 571 507 606 l 538 722 l 647 722 l 519 -47 q 503 -116 514 -82 q 472 -181 492 -150 q 424 -238 451 -212 q 364 -281 397 -264 q 296 -303 331 -297 q 228 -310 261 -310 m 278 86 q 344 97 310 86 q 402 133 378 108 q 440 190 426 157 q 460 254 454 222 l 488 421 q 494 471 492 446 q 492 519 496 496 q 481 565 489 543 q 456 604 472 588 q 417 628 440 621 q 369 636 394 636 q 324 631 347 636 q 279 614 300 626 q 242 583 258 601 q 213 544 225 565 q 195 500 201 522 q 185 456 189 478 l 157 289 q 151 241 153 265 q 153 194 150 217 q 167 150 157 171 q 193 115 176 129 q 232 93 210 100 q 278 86 254 86 m 276 817 l 215 868 l 381 1056 l 508 1056 l 607 861 l 536 824 l 432 978 l 276 817 z "},"":{"ha":694,"x_min":39,"x_max":704,"o":"m 233 -11 q 163 -1 197 -11 q 104 33 129 10 q 65 87 79 56 q 44 153 50 118 q 41 224 39 188 q 49 297 43 261 l 128 776 q 145 845 133 811 q 177 910 157 879 q 226 965 197 940 q 287 1004 254 989 q 355 1026 319 1019 q 425 1032 390 1032 q 493 1026 460 1032 q 556 1007 526 1021 q 610 970 586 993 q 646 917 633 947 q 662 853 658 888 q 660 783 665 819 l 658 771 l 550 771 l 551 779 q 551 842 556 811 q 526 894 546 872 q 477 926 507 917 q 415 935 447 935 q 350 922 383 935 q 292 884 317 910 q 253 826 267 858 q 235 761 240 794 l 156 282 q 151 235 153 258 q 154 189 150 211 q 168 147 158 167 q 194 113 178 126 q 232 92 210 99 q 278 86 254 86 q 342 96 310 86 q 399 128 374 106 q 439 182 425 151 q 458 244 453 213 l 493 458 l 344 458 l 361 556 l 619 556 l 528 0 l 429 0 l 453 144 q 417 82 439 113 q 367 30 396 51 q 302 -1 338 8 q 233 -11 267 -11 m 457 1132 q 376 1142 415 1132 q 310 1179 338 1153 q 275 1245 283 1206 q 274 1326 267 1285 l 371 1326 q 372 1282 368 1304 q 392 1245 376 1260 q 428 1225 407 1231 q 471 1219 449 1219 q 517 1225 493 1219 q 560 1245 540 1231 q 592 1282 579 1260 q 607 1326 604 1304 l 704 1326 q 676 1245 697 1285 q 620 1179 656 1206 q 542 1142 585 1153 q 457 1132 499 1132 z "},"":{"ha":694,"x_min":-17,"x_max":656,"o":"m 228 -310 q 165 -306 196 -310 q 106 -293 135 -303 q 53 -267 78 -283 q 13 -226 29 -250 q -9 -173 -3 -203 q -11 -111 -15 -143 l 97 -111 q 105 -159 93 -137 q 138 -192 117 -181 q 183 -208 158 -204 q 235 -212 208 -212 q 302 -199 268 -212 q 359 -158 336 -185 q 394 -98 382 -131 q 413 -32 407 -65 l 436 115 q 401 63 422 88 q 352 22 379 39 q 294 -3 325 4 q 233 -11 263 -11 q 162 0 196 -11 q 103 35 128 11 q 65 90 79 58 q 45 158 50 122 q 42 231 40 193 q 50 304 44 268 l 78 471 q 92 534 83 503 q 115 595 100 565 q 152 651 131 625 q 201 697 174 678 q 261 725 229 717 q 325 733 293 733 q 395 723 361 733 q 453 690 429 713 q 492 637 478 668 q 513 571 507 606 l 538 722 l 647 722 l 519 -47 q 503 -116 514 -82 q 472 -181 492 -150 q 424 -238 451 -212 q 364 -281 397 -264 q 296 -303 331 -297 q 228 -310 261 -310 m 278 86 q 344 97 310 86 q 402 133 378 108 q 440 190 426 157 q 460 254 454 222 l 488 421 q 494 471 492 446 q 492 519 496 496 q 481 565 489 543 q 456 604 472 588 q 417 628 440 621 q 369 636 394 636 q 324 631 347 636 q 279 614 300 626 q 242 583 258 601 q 213 544 225 565 q 195 500 201 522 q 185 456 189 478 l 157 289 q 151 241 153 265 q 153 194 150 217 q 167 150 157 171 q 193 115 176 129 q 232 93 210 100 q 278 86 254 86 m 407 833 q 326 844 365 833 q 260 881 288 854 q 225 947 233 907 q 224 1028 217 986 l 321 1028 q 322 983 318 1006 q 342 947 326 961 q 378 926 357 932 q 421 921 399 921 q 467 926 443 921 q 510 947 490 932 q 542 983 529 961 q 557 1028 554 1006 l 654 1028 q 626 947 647 986 q 570 881 606 907 q 492 844 535 854 q 407 833 449 833 z "},"":{"ha":694,"x_min":39,"x_max":667,"o":"m 233 -11 q 163 -1 197 -11 q 104 33 129 10 q 65 87 79 56 q 44 153 50 118 q 41 224 39 188 q 49 297 43 261 l 128 776 q 145 845 133 811 q 177 910 157 879 q 226 965 197 940 q 287 1004 254 989 q 355 1026 319 1019 q 425 1032 390 1032 q 493 1026 460 1032 q 556 1007 526 1021 q 610 970 586 993 q 646 917 633 947 q 662 853 658 888 q 660 783 665 819 l 658 771 l 550 771 l 551 779 q 551 842 556 811 q 526 894 546 872 q 477 926 507 917 q 415 935 447 935 q 350 922 383 935 q 292 884 317 910 q 253 826 267 858 q 235 761 240 794 l 156 282 q 151 235 153 258 q 154 189 150 211 q 168 147 158 167 q 194 113 178 126 q 232 92 210 99 q 278 86 254 86 q 342 96 310 86 q 399 128 374 106 q 439 182 425 151 q 458 244 453 213 l 493 458 l 344 458 l 361 556 l 619 556 l 528 0 l 429 0 l 453 144 q 417 82 439 113 q 367 30 396 51 q 302 -1 338 8 q 233 -11 267 -11 m 472 1143 q 433 1150 453 1143 q 403 1172 414 1157 q 388 1208 392 1188 q 388 1250 385 1229 q 398 1278 390 1264 q 417 1301 406 1292 q 444 1313 429 1310 q 474 1317 458 1317 q 513 1309 493 1317 q 544 1286 532 1301 q 559 1250 556 1271 q 558 1208 563 1229 q 548 1181 556 1194 q 528 1158 540 1167 q 502 1146 517 1149 q 472 1143 488 1143 z "},"":{"ha":694,"x_min":-17,"x_max":647,"o":"m 228 -310 q 165 -306 196 -310 q 106 -293 135 -303 q 53 -267 78 -283 q 13 -226 29 -250 q -9 -173 -3 -203 q -11 -111 -15 -143 l 97 -111 q 105 -159 93 -137 q 138 -192 117 -181 q 183 -208 158 -204 q 235 -212 208 -212 q 302 -199 268 -212 q 359 -158 336 -185 q 394 -98 382 -131 q 413 -32 407 -65 l 436 115 q 401 63 422 88 q 352 22 379 39 q 294 -3 325 4 q 233 -11 263 -11 q 162 0 196 -11 q 103 35 128 11 q 65 90 79 58 q 45 158 50 122 q 42 231 40 193 q 50 304 44 268 l 78 471 q 92 534 83 503 q 115 595 100 565 q 152 651 131 625 q 201 697 174 678 q 261 725 229 717 q 325 733 293 733 q 395 723 361 733 q 453 690 429 713 q 492 637 478 668 q 513 571 507 606 l 538 722 l 647 722 l 519 -47 q 503 -116 514 -82 q 472 -181 492 -150 q 424 -238 451 -212 q 364 -281 397 -264 q 296 -303 331 -297 q 228 -310 261 -310 m 278 86 q 344 97 310 86 q 402 133 378 108 q 440 190 426 157 q 460 254 454 222 l 488 421 q 494 471 492 446 q 492 519 496 496 q 481 565 489 543 q 456 604 472 588 q 417 628 440 621 q 369 636 394 636 q 324 631 347 636 q 279 614 300 626 q 242 583 258 601 q 213 544 225 565 q 195 500 201 522 q 185 456 189 478 l 157 289 q 151 241 153 265 q 153 194 150 217 q 167 150 157 171 q 193 115 176 129 q 232 93 210 100 q 278 86 254 86 m 422 844 q 383 851 403 844 q 353 874 364 858 q 338 910 342 889 q 338 951 335 931 q 348 979 340 965 q 367 1002 356 993 q 394 1015 379 1011 q 424 1018 408 1018 q 463 1010 443 1018 q 494 988 482 1003 q 509 951 506 972 q 508 910 513 931 q 498 882 506 896 q 478 859 490 868 q 452 847 467 850 q 422 844 438 844 z "},"":{"ha":694,"x_min":39,"x_max":667,"o":"m 233 -11 q 163 -1 197 -11 q 104 33 129 10 q 65 87 79 56 q 44 153 50 118 q 41 224 39 188 q 49 297 43 261 l 128 776 q 145 845 133 811 q 177 910 157 879 q 226 965 197 940 q 287 1004 254 989 q 355 1026 319 1019 q 425 1032 390 1032 q 493 1026 460 1032 q 556 1007 526 1021 q 610 970 586 993 q 646 917 633 947 q 662 853 658 888 q 660 783 665 819 l 658 771 l 550 771 l 551 779 q 551 842 556 811 q 526 894 546 872 q 477 926 507 917 q 415 935 447 935 q 350 922 383 935 q 292 884 317 910 q 253 826 267 858 q 235 761 240 794 l 156 282 q 151 235 153 258 q 154 189 150 211 q 168 147 158 167 q 194 113 178 126 q 232 92 210 99 q 278 86 254 86 q 342 96 310 86 q 399 128 374 106 q 439 182 425 151 q 458 244 453 213 l 493 458 l 344 458 l 361 556 l 619 556 l 528 0 l 429 0 l 453 144 q 417 82 439 113 q 367 30 396 51 q 302 -1 338 8 q 233 -11 267 -11 m 199 -342 l 151 -292 q 189 -249 172 -272 q 218 -201 206 -226 q 198 -194 207 -200 q 185 -178 189 -187 q 179 -159 181 -169 q 179 -137 178 -149 q 188 -110 182 -124 q 206 -88 194 -97 q 230 -75 217 -79 q 257 -71 243 -71 q 283 -75 271 -71 q 303 -88 294 -79 q 313 -110 311 -97 q 313 -137 315 -124 q 299 -193 308 -165 q 275 -247 289 -221 q 242 -298 261 -274 q 199 -342 222 -322 z "},"":{"ha":694,"x_min":-17,"x_max":647,"o":"m 228 -310 q 165 -306 196 -310 q 106 -293 135 -303 q 53 -267 78 -283 q 13 -226 29 -250 q -9 -173 -3 -203 q -11 -111 -15 -143 l 97 -111 q 105 -159 93 -137 q 138 -192 117 -181 q 183 -208 158 -204 q 235 -212 208 -212 q 302 -199 268 -212 q 359 -158 336 -185 q 394 -98 382 -131 q 413 -32 407 -65 l 436 115 q 401 63 422 88 q 352 22 379 39 q 294 -3 325 4 q 233 -11 263 -11 q 162 0 196 -11 q 103 35 128 11 q 65 90 79 58 q 45 158 50 122 q 42 231 40 193 q 50 304 44 268 l 78 471 q 92 534 83 503 q 115 595 100 565 q 152 651 131 625 q 201 697 174 678 q 261 725 229 717 q 325 733 293 733 q 395 723 361 733 q 453 690 429 713 q 492 637 478 668 q 513 571 507 606 l 538 722 l 647 722 l 519 -47 q 503 -116 514 -82 q 472 -181 492 -150 q 424 -238 451 -212 q 364 -281 397 -264 q 296 -303 331 -297 q 228 -310 261 -310 m 278 86 q 344 97 310 86 q 402 133 378 108 q 440 190 426 157 q 460 254 454 222 l 488 421 q 494 471 492 446 q 492 519 496 496 q 481 565 489 543 q 456 604 472 588 q 417 628 440 621 q 369 636 394 636 q 324 631 347 636 q 279 614 300 626 q 242 583 258 601 q 213 544 225 565 q 195 500 201 522 q 185 456 189 478 l 157 289 q 151 241 153 265 q 153 194 150 217 q 167 150 157 171 q 193 115 176 129 q 232 93 210 100 q 278 86 254 86 m 400 793 q 374 797 386 793 q 354 810 363 801 q 344 833 346 819 q 344 860 343 846 q 358 915 349 888 q 382 969 368 943 q 415 1020 396 996 q 460 1064 435 1044 l 507 1014 q 469 972 485 994 q 440 924 453 949 q 460 916 451 922 q 473 901 468 910 q 479 881 478 892 q 478 860 481 871 q 469 833 476 846 q 451 810 463 819 q 427 797 440 801 q 400 793 414 793 z "},"":{"ha":694,"x_min":10,"x_max":697,"o":"m 11 0 l 179 1021 l 289 1021 l 215 576 l 513 576 l 586 1021 l 696 1021 l 528 0 l 418 0 l 497 479 l 200 479 l 121 0 l 11 0 m 326 1115 l 265 1167 l 431 1354 l 558 1354 l 657 1160 l 586 1122 l 482 1276 l 326 1115 z "},"":{"ha":694,"x_min":10,"x_max":608,"o":"m 11 0 l 179 1021 l 289 1021 l 221 608 q 256 660 236 636 q 303 701 276 683 q 359 726 329 718 q 418 733 389 733 q 488 722 454 733 q 547 687 522 711 q 584 631 571 663 q 603 563 597 599 q 606 491 608 528 q 597 418 603 454 l 528 0 l 418 0 l 489 433 q 495 481 493 457 q 494 527 497 504 q 481 571 490 550 q 457 607 472 592 q 420 629 442 622 q 375 636 399 636 q 310 624 343 636 q 253 588 278 613 q 216 532 229 564 q 199 468 203 500 l 121 0 l 11 0 m 122 1115 l 61 1167 l 226 1354 l 354 1354 l 453 1160 l 382 1122 l 278 1276 l 122 1115 z "},"":{"ha":694,"x_min":10,"x_max":722,"o":"m 11 0 l 136 756 l 81 756 l 81 840 l 150 840 l 179 1021 l 289 1021 l 260 840 l 557 840 l 586 1021 l 696 1021 l 667 840 l 722 840 l 722 756 l 653 756 l 528 0 l 418 0 l 497 479 l 200 479 l 121 0 l 11 0 m 513 576 l 543 756 l 246 756 l 215 576 l 513 576 z "},"":{"ha":694,"x_min":10,"x_max":608,"o":"m 11 0 l 146 814 l 83 814 l 83 899 l 160 899 l 179 1021 l 289 1021 l 269 899 l 404 899 l 404 814 l 256 814 l 221 608 q 256 660 236 636 q 303 701 276 683 q 359 726 329 718 q 418 733 389 733 q 488 722 454 733 q 547 687 522 711 q 584 631 571 663 q 603 563 597 599 q 606 491 608 528 q 597 418 603 454 l 528 0 l 418 0 l 489 433 q 495 481 493 457 q 494 527 497 504 q 481 571 490 550 q 457 607 472 592 q 420 629 442 622 q 375 636 399 636 q 310 624 343 636 q 253 588 278 613 q 216 532 229 564 q 199 468 203 500 l 121 0 l 11 0 z "},"":{"ha":694,"x_min":35,"x_max":739,"o":"m 522 0 l 36 0 l 35 97 l 231 97 l 368 924 l 186 924 l 185 1021 l 671 1021 l 672 924 l 476 924 l 339 97 l 521 97 l 522 0 m 294 1128 l 210 1175 q 241 1221 226 1200 q 269 1258 256 1242 q 294 1289 282 1275 q 325 1317 307 1303 q 363 1341 343 1332 q 406 1350 383 1350 q 419 1349 413 1350 q 432 1346 426 1347 q 444 1342 438 1344 q 456 1335 450 1339 q 466 1328 461 1332 q 476 1319 471 1324 q 485 1310 481 1315 q 492 1300 489 1306 q 500 1289 496 1294 q 507 1278 504 1283 q 513 1269 510 1274 q 519 1257 515 1264 q 527 1244 524 1250 q 533 1233 531 1238 q 542 1222 536 1228 q 547 1215 547 1217 l 543 1215 q 549 1219 543 1217 q 560 1226 556 1222 q 569 1234 564 1229 q 576 1242 574 1239 q 581 1247 578 1244 q 586 1253 583 1250 q 592 1260 589 1257 q 599 1267 596 1264 q 605 1275 601 1271 q 612 1284 608 1279 q 619 1294 615 1289 q 626 1303 622 1299 q 633 1314 629 1308 q 640 1325 636 1319 q 648 1337 644 1331 q 656 1350 651 1343 l 739 1303 q 708 1258 722 1278 q 681 1220 694 1238 q 654 1189 667 1203 q 624 1160 642 1175 q 587 1137 607 1146 q 544 1128 567 1128 q 531 1129 538 1128 q 517 1132 524 1131 q 506 1136 511 1133 q 494 1142 500 1139 q 484 1150 489 1146 q 474 1158 479 1154 q 465 1167 469 1163 q 457 1178 461 1172 q 449 1189 453 1183 q 442 1199 444 1194 q 438 1209 440 1204 q 430 1221 435 1214 q 422 1234 425 1228 q 416 1245 419 1240 q 407 1256 413 1250 q 403 1263 401 1261 l 407 1263 l 400 1260 q 390 1252 394 1256 q 381 1244 386 1249 q 374 1236 376 1239 q 368 1231 371 1233 q 363 1224 365 1228 q 358 1217 361 1221 q 351 1210 354 1214 q 345 1203 349 1207 q 338 1194 342 1199 q 331 1185 335 1189 q 324 1175 328 1181 q 317 1164 321 1169 q 309 1153 313 1158 q 301 1141 306 1147 q 294 1128 297 1135 z "},"":{"ha":694,"x_min":106,"x_max":690,"o":"m 403 -11 q 341 -4 371 -11 q 287 20 311 3 q 247 63 263 38 q 225 119 232 89 q 219 181 218 149 q 226 243 221 213 l 289 625 l 106 625 l 107 722 l 414 722 l 332 228 q 328 178 328 203 q 339 131 329 153 q 369 98 349 110 q 415 86 390 86 q 463 99 440 86 q 502 133 486 113 q 527 178 518 154 q 542 226 536 203 l 638 214 q 622 158 632 186 q 597 105 611 131 q 561 56 582 79 q 515 18 540 33 q 460 -4 489 3 q 403 -11 432 -11 m 244 829 l 160 876 q 191 922 176 901 q 219 960 206 943 q 244 990 232 976 q 275 1019 257 1004 q 313 1042 293 1033 q 356 1051 333 1051 q 369 1050 363 1051 q 382 1047 376 1049 q 394 1043 388 1046 q 406 1037 400 1040 q 416 1029 411 1033 q 426 1021 421 1025 q 435 1012 431 1017 q 442 1001 439 1007 q 450 990 446 996 q 457 980 454 985 q 463 970 460 975 q 469 958 465 965 q 477 945 474 951 q 483 934 481 939 q 492 924 486 929 q 497 917 497 918 l 493 917 q 499 921 493 918 q 510 927 506 924 q 519 935 514 931 q 526 943 524 940 q 531 949 528 946 q 536 955 533 951 q 542 962 539 958 q 549 969 546 965 q 555 976 551 972 q 562 985 558 981 q 569 995 565 990 q 576 1005 572 1000 q 583 1015 579 1010 q 590 1026 586 1021 q 598 1038 594 1032 q 606 1051 601 1044 l 689 1004 q 658 959 672 979 q 631 922 644 939 q 604 890 617 904 q 574 862 592 876 q 537 838 557 847 q 494 829 517 829 q 481 831 488 829 q 467 833 474 832 q 456 838 461 835 q 444 844 450 840 q 434 851 439 847 q 424 860 429 856 q 415 869 419 864 q 407 879 411 874 q 399 890 403 885 q 392 901 394 896 q 388 910 390 906 q 380 922 385 915 q 372 935 375 929 q 366 947 369 942 q 357 957 363 951 q 353 964 351 963 l 357 964 l 350 961 q 340 953 344 957 q 331 945 336 950 q 324 938 326 940 q 318 932 321 935 q 313 926 315 929 q 308 919 311 922 q 301 912 304 915 q 295 904 299 908 q 288 895 292 900 q 281 886 285 890 q 274 876 278 882 q 267 865 271 871 q 259 854 263 860 q 251 842 256 849 q 244 829 247 836 z "},"":{"ha":694,"x_min":35,"x_max":682,"o":"m 522 0 l 36 0 l 35 97 l 231 97 l 368 924 l 186 924 l 185 1021 l 671 1021 l 672 924 l 476 924 l 339 97 l 521 97 l 522 0 m 264 1186 l 265 1272 l 682 1272 l 681 1186 l 264 1186 z "},"":{"ha":694,"x_min":106,"x_max":639,"o":"m 403 -11 q 341 -4 371 -11 q 287 20 311 3 q 247 63 263 38 q 225 119 232 89 q 219 181 218 149 q 226 243 221 213 l 289 625 l 106 625 l 107 722 l 414 722 l 332 228 q 328 178 328 203 q 339 131 329 153 q 369 98 349 110 q 415 86 390 86 q 463 99 440 86 q 502 133 486 113 q 527 178 518 154 q 542 226 536 203 l 638 214 q 622 158 632 186 q 597 105 611 131 q 561 56 582 79 q 515 18 540 33 q 460 -4 489 3 q 403 -11 432 -11 m 214 888 l 215 974 l 632 974 l 631 888 l 214 888 z "},"":{"ha":694,"x_min":35,"x_max":704,"o":"m 522 0 l 36 0 l 35 97 l 231 97 l 368 924 l 186 924 l 185 1021 l 671 1021 l 672 924 l 476 924 l 339 97 l 521 97 l 522 0 m 457 1132 q 376 1142 415 1132 q 310 1179 338 1153 q 275 1245 283 1206 q 274 1326 267 1285 l 371 1326 q 372 1282 368 1304 q 392 1245 376 1260 q 428 1225 407 1231 q 471 1219 449 1219 q 517 1225 493 1219 q 560 1245 540 1231 q 592 1282 579 1260 q 607 1326 604 1304 l 704 1326 q 676 1245 697 1285 q 620 1179 656 1206 q 542 1142 585 1153 q 457 1132 499 1132 z "},"":{"ha":694,"x_min":106,"x_max":656,"o":"m 403 -11 q 341 -4 371 -11 q 287 20 311 3 q 247 63 263 38 q 225 119 232 89 q 219 181 218 149 q 226 243 221 213 l 289 625 l 106 625 l 107 722 l 414 722 l 332 228 q 328 178 328 203 q 339 131 329 153 q 369 98 349 110 q 415 86 390 86 q 463 99 440 86 q 502 133 486 113 q 527 178 518 154 q 542 226 536 203 l 638 214 q 622 158 632 186 q 597 105 611 131 q 561 56 582 79 q 515 18 540 33 q 460 -4 489 3 q 403 -11 432 -11 m 407 833 q 326 844 365 833 q 260 881 288 854 q 225 947 233 907 q 224 1028 217 986 l 321 1028 q 322 983 318 1006 q 342 947 326 961 q 378 926 357 932 q 421 921 399 921 q 467 926 443 921 q 510 947 490 932 q 542 983 529 961 q 557 1028 554 1006 l 654 1028 q 626 947 647 986 q 570 881 606 907 q 492 844 535 854 q 407 833 449 833 z "},"":{"ha":694,"x_min":35,"x_max":672,"o":"m 522 0 l 36 0 l 35 97 l 231 97 l 368 924 l 186 924 l 185 1021 l 671 1021 l 672 924 l 476 924 l 339 97 l 521 97 l 522 0 m 433 -310 q 374 -302 403 -310 q 322 -276 344 -294 q 291 -230 300 -258 q 286 -171 282 -201 q 317 -94 293 -131 q 373 -28 340 -57 q 444 22 406 1 q 521 54 482 43 l 513 0 q 471 -31 490 -14 q 435 -69 451 -49 q 405 -112 418 -89 q 388 -158 392 -135 q 389 -186 385 -172 q 403 -208 393 -200 q 428 -219 414 -215 q 456 -222 442 -222 q 478 -221 467 -222 q 499 -217 489 -219 l 483 -304 q 458 -308 471 -307 q 433 -310 446 -310 z "},"":{"ha":694,"x_min":106,"x_max":639,"o":"m 403 -11 q 341 -4 371 -11 q 287 20 311 3 q 247 63 263 38 q 225 119 232 89 q 219 181 218 149 q 226 243 221 213 l 289 625 l 106 625 l 107 722 l 414 722 l 332 228 q 328 178 328 203 q 339 131 329 153 q 369 98 349 110 q 415 86 390 86 q 463 99 440 86 q 502 133 486 113 q 527 178 518 154 q 542 226 536 203 l 638 214 q 622 158 632 186 q 597 105 611 131 q 561 56 582 79 q 515 18 540 33 q 460 -4 489 3 q 403 -11 432 -11 m 400 844 q 361 851 381 844 q 331 874 342 858 q 316 910 319 889 q 315 951 313 931 q 326 979 318 965 q 345 1002 333 993 q 372 1015 357 1011 q 401 1018 386 1018 q 440 1010 421 1018 q 472 988 460 1003 q 487 951 483 972 q 486 910 490 931 q 476 882 483 896 q 456 859 468 868 q 430 847 444 850 q 400 844 415 844 m 303 -310 q 243 -302 272 -310 q 192 -276 214 -294 q 160 -230 169 -258 q 156 -171 151 -201 q 186 -94 163 -131 q 242 -28 210 -57 q 313 22 275 1 q 390 54 351 43 l 382 0 q 340 -31 360 -14 q 304 -69 321 -49 q 274 -112 288 -89 q 257 -158 261 -135 q 258 -186 254 -172 q 273 -208 263 -200 q 297 -219 283 -215 q 325 -222 311 -222 q 347 -221 336 -222 q 368 -217 358 -219 l 353 -304 q 328 -308 340 -307 q 303 -310 315 -310 z "},"":{"ha":694,"x_min":35,"x_max":672,"o":"m 522 0 l 36 0 l 35 97 l 231 97 l 368 924 l 186 924 l 185 1021 l 671 1021 l 672 924 l 476 924 l 339 97 l 521 97 l 522 0 m 472 1143 q 433 1150 453 1143 q 403 1172 414 1157 q 388 1208 392 1188 q 388 1250 385 1229 q 398 1278 390 1264 q 417 1301 406 1292 q 444 1313 429 1310 q 474 1317 458 1317 q 513 1309 493 1317 q 544 1286 532 1301 q 559 1250 556 1271 q 558 1208 563 1229 q 548 1181 556 1194 q 528 1158 540 1167 q 502 1146 517 1149 q 472 1143 488 1143 z "},"":{"ha":694,"x_min":106,"x_max":639,"o":"m 403 -11 q 341 -4 371 -11 q 287 20 311 3 q 247 63 263 38 q 225 119 232 89 q 219 181 218 149 q 226 243 221 213 l 289 625 l 106 625 l 107 722 l 414 722 l 332 228 q 328 178 328 203 q 339 131 329 153 q 369 98 349 110 q 415 86 390 86 q 463 99 440 86 q 502 133 486 113 q 527 178 518 154 q 542 226 536 203 l 638 214 q 622 158 632 186 q 597 105 611 131 q 561 56 582 79 q 515 18 540 33 q 460 -4 489 3 q 403 -11 432 -11 z "},"":{"ha":694,"x_min":21,"x_max":800,"o":"m 249 -11 q 181 -5 214 -11 q 119 17 147 1 q 69 57 90 32 q 36 113 47 82 q 23 178 25 143 q 26 247 21 213 l 28 250 l 136 250 l 135 249 q 134 186 131 217 q 154 132 138 156 q 199 97 171 108 q 257 86 226 86 q 307 96 282 86 q 352 124 332 106 q 386 167 372 143 q 410 215 400 190 q 426 264 419 239 q 436 314 432 289 l 538 924 l 356 924 l 354 1021 l 663 1021 l 543 297 q 526 224 538 261 q 498 151 515 186 q 454 85 481 117 q 395 31 428 53 q 324 -1 363 8 q 249 -11 286 -11 m 468 1115 l 407 1167 l 572 1354 l 700 1354 l 799 1160 l 728 1122 l 624 1276 l 468 1115 z "},"":{"ha":694,"x_min":-72,"x_max":685,"o":"m 140 -310 q 80 -305 110 -310 q 24 -288 50 -300 q -22 -256 -1 -276 q -53 -210 -42 -236 q -68 -154 -65 -185 q -67 -94 -71 -124 l -65 -90 l 42 -90 l 42 -92 q 42 -140 38 -117 q 63 -181 47 -164 q 101 -206 78 -199 q 147 -212 124 -212 q 188 -206 168 -212 q 224 -185 208 -199 q 253 -154 240 -172 q 274 -117 265 -136 q 288 -78 282 -99 q 296 -39 293 -58 l 406 625 l 224 625 l 224 722 l 531 722 l 401 -54 q 387 -118 396 -86 q 361 -180 378 -150 q 321 -235 344 -210 q 267 -278 297 -261 q 204 -303 236 -296 q 140 -310 172 -310 m 353 817 l 292 868 l 457 1056 l 585 1056 l 683 861 l 613 824 l 508 978 l 353 817 z "},"":{"ha":694,"x_min":32,"x_max":710,"o":"m 429 0 l 285 463 l 200 351 l 142 0 l 33 0 l 201 1021 l 310 1021 l 233 553 l 579 1021 l 708 1021 l 357 558 l 540 0 l 429 0 m 199 -342 l 151 -292 q 189 -249 172 -272 q 218 -201 206 -226 q 198 -194 207 -200 q 185 -178 189 -187 q 179 -159 181 -169 q 179 -137 178 -149 q 188 -110 182 -124 q 206 -88 194 -97 q 230 -75 217 -79 q 257 -71 243 -71 q 283 -75 271 -71 q 303 -88 294 -79 q 313 -110 311 -97 q 313 -137 315 -124 q 299 -193 308 -165 q 275 -247 289 -221 q 242 -298 261 -274 q 199 -342 222 -322 z "},"":{"ha":694,"x_min":32,"x_max":610,"o":"m 411 0 l 217 281 q 203 285 210 283 q 189 290 196 288 l 142 0 l 33 0 l 201 1021 l 310 1021 l 231 536 q 269 609 246 574 q 322 673 292 644 q 391 717 351 701 q 468 733 431 733 q 537 719 504 733 q 587 677 569 706 q 606 613 604 649 q 603 540 608 576 q 574 450 596 494 q 515 372 551 406 q 432 318 478 338 q 340 286 386 299 l 538 0 l 411 0 m 268 367 q 317 373 292 367 q 365 388 342 379 q 411 410 389 396 q 451 442 433 424 q 478 485 468 461 q 492 533 488 508 q 494 570 494 551 q 486 604 494 589 q 461 628 478 619 q 426 636 444 636 q 368 626 397 636 q 315 595 339 615 q 273 549 290 575 q 243 496 256 524 q 222 440 231 468 q 206 383 213 411 q 235 371 219 375 q 268 367 250 367 m 199 -342 l 151 -292 q 189 -249 172 -272 q 218 -201 206 -226 q 198 -194 207 -200 q 185 -178 189 -187 q 179 -159 181 -169 q 179 -137 178 -149 q 188 -110 182 -124 q 206 -88 194 -97 q 230 -75 217 -79 q 257 -71 243 -71 q 283 -75 271 -71 q 303 -88 294 -79 q 313 -110 311 -97 q 313 -137 315 -124 q 299 -193 308 -165 q 275 -247 289 -221 q 242 -298 261 -274 q 199 -342 222 -322 z "},"":{"ha":694,"x_min":32,"x_max":657,"o":"m 421 0 l 269 317 l 178 221 l 142 0 l 33 0 l 153 722 l 261 722 l 206 386 l 517 722 l 657 722 l 343 393 l 538 0 l 421 0 z "},"":{"ha":694,"x_min":54,"x_max":553,"o":"m 56 0 l 224 1021 l 333 1021 l 181 97 l 551 97 l 536 0 l 56 0 m 281 1104 l 218 1160 l 414 1361 l 488 1292 l 281 1104 z "},"":{"ha":694,"x_min":154,"x_max":639,"o":"m 403 -11 q 341 -4 371 -11 q 287 20 311 3 q 247 63 263 38 q 225 119 232 89 q 219 181 218 149 q 226 243 221 213 l 339 924 l 156 924 l 156 1021 l 463 1021 l 332 228 q 328 178 328 203 q 339 131 329 153 q 369 98 349 110 q 415 86 390 86 q 463 99 440 86 q 502 133 486 113 q 527 178 518 154 q 542 226 536 203 l 638 214 q 622 158 632 186 q 597 105 611 131 q 561 56 582 79 q 515 18 540 33 q 460 -4 489 3 q 403 -11 432 -11 m 418 1104 l 356 1160 l 551 1361 l 625 1292 l 418 1104 z "},"":{"ha":694,"x_min":54,"x_max":553,"o":"m 56 0 l 224 1021 l 333 1021 l 181 97 l 551 97 l 536 0 l 56 0 m 199 -342 l 151 -292 q 189 -249 172 -272 q 218 -201 206 -226 q 198 -194 207 -200 q 185 -178 189 -187 q 179 -159 181 -169 q 179 -137 178 -149 q 188 -110 182 -124 q 206 -88 194 -97 q 230 -75 217 -79 q 257 -71 243 -71 q 283 -75 271 -71 q 303 -88 294 -79 q 313 -110 311 -97 q 313 -137 315 -124 q 299 -193 308 -165 q 275 -247 289 -221 q 242 -298 261 -274 q 199 -342 222 -322 z "},"":{"ha":694,"x_min":121,"x_max":639,"o":"m 403 -11 q 341 -4 371 -11 q 287 20 311 3 q 247 63 263 38 q 225 119 232 89 q 219 181 218 149 q 226 243 221 213 l 339 924 l 156 924 l 156 1021 l 463 1021 l 332 228 q 328 178 328 203 q 339 131 329 153 q 369 98 349 110 q 415 86 390 86 q 463 99 440 86 q 502 133 486 113 q 527 178 518 154 q 542 226 536 203 l 638 214 q 622 158 632 186 q 597 105 611 131 q 561 56 582 79 q 515 18 540 33 q 460 -4 489 3 q 403 -11 432 -11 m 169 -342 l 122 -292 q 160 -249 143 -272 q 189 -201 176 -226 q 169 -194 178 -200 q 156 -178 160 -187 q 150 -159 151 -169 q 150 -137 149 -149 q 159 -110 153 -124 q 176 -88 165 -97 q 201 -75 188 -79 q 228 -71 214 -71 q 253 -75 242 -71 q 274 -88 265 -79 q 284 -110 282 -97 q 283 -137 286 -124 q 269 -193 279 -165 q 246 -247 260 -221 q 213 -298 232 -274 q 169 -342 193 -322 z "},"":{"ha":694,"x_min":54,"x_max":697,"o":"m 581 790 l 533 840 q 570 881 554 858 q 599 929 586 904 q 580 938 589 932 q 566 952 571 943 q 560 972 561 961 q 561 994 560 983 q 570 1021 564 1008 q 588 1043 576 1033 q 612 1057 599 1053 q 639 1061 625 1061 q 665 1057 653 1061 q 685 1043 676 1053 q 695 1021 693 1033 q 694 994 697 1008 q 681 939 690 967 q 657 885 671 911 q 624 834 643 858 q 581 790 604 810 m 56 0 l 224 1021 l 333 1021 l 181 97 l 551 97 l 536 0 l 56 0 z "},"":{"ha":694,"x_min":154,"x_max":706,"o":"m 588 790 l 540 840 q 577 881 561 858 q 606 929 593 904 q 587 938 596 932 q 573 952 578 943 q 567 972 568 961 q 568 994 567 983 q 577 1021 571 1008 q 594 1043 583 1033 q 619 1057 606 1053 q 646 1061 632 1061 q 672 1057 660 1061 q 692 1043 683 1053 q 702 1021 700 1033 q 701 994 704 1008 q 688 939 697 967 q 664 885 678 911 q 631 834 650 858 q 588 790 611 810 m 403 -11 q 341 -4 371 -11 q 287 20 311 3 q 247 63 263 38 q 225 119 232 89 q 219 181 218 149 q 226 243 221 213 l 339 924 l 156 924 l 156 1021 l 463 1021 l 332 228 q 328 178 328 203 q 339 131 329 153 q 369 98 349 110 q 415 86 390 86 q 463 99 440 86 q 502 133 486 113 q 527 178 518 154 q 542 226 536 203 l 638 214 q 622 158 632 186 q 597 105 611 131 q 561 56 582 79 q 515 18 540 33 q 460 -4 489 3 q 403 -11 432 -11 z "},"":{"ha":694,"x_min":54,"x_max":567,"o":"m 56 0 l 224 1021 l 333 1021 l 181 97 l 551 97 l 536 0 l 56 0 m 467 463 q 422 471 443 463 q 387 497 400 479 q 370 537 374 514 q 371 583 367 560 q 381 615 374 600 q 403 640 389 629 q 433 654 417 650 q 465 658 450 658 q 510 649 489 658 q 545 623 532 640 q 563 583 558 606 q 563 536 567 560 q 551 505 560 519 q 529 480 543 490 q 499 466 515 469 q 467 463 482 463 z "},"":{"ha":694,"x_min":111,"x_max":633,"o":"m 360 -11 q 298 -4 328 -11 q 244 20 268 3 q 204 63 219 38 q 182 119 189 89 q 176 181 175 149 q 183 243 178 213 l 296 924 l 113 924 l 113 1021 l 419 1021 l 289 228 q 285 178 285 203 q 296 131 286 153 q 326 98 306 110 q 372 86 347 86 q 420 99 397 86 q 459 133 443 113 q 484 178 475 154 q 499 226 493 203 l 594 214 q 578 158 589 186 q 553 105 568 131 q 518 56 539 79 q 472 18 497 33 q 417 -4 446 3 q 360 -11 389 -11 m 533 463 q 488 471 510 463 q 453 497 467 479 q 437 537 440 514 q 438 583 433 560 q 448 615 440 600 q 469 640 456 629 q 500 654 483 650 q 532 658 517 658 q 577 649 556 658 q 612 623 599 640 q 629 583 625 606 q 629 536 633 560 q 618 505 626 519 q 596 480 610 490 q 565 466 582 469 q 533 463 549 463 z "},"":{"ha":694,"x_min":22,"x_max":553,"o":"m 56 0 l 131 456 l 63 424 l 22 500 l 147 557 l 224 1021 l 333 1021 l 267 613 l 443 694 l 483 618 l 249 510 l 181 97 l 551 97 l 536 0 l 56 0 z "},"":{"ha":694,"x_min":107,"x_max":639,"o":"m 403 -11 q 341 -4 371 -11 q 287 20 311 3 q 247 63 263 38 q 225 119 232 89 q 219 181 218 149 q 226 243 221 213 l 260 447 l 147 396 l 107 472 l 276 550 l 339 924 l 156 924 l 156 1021 l 463 1021 l 394 604 l 528 667 l 568 590 l 376 501 l 332 228 q 328 178 328 203 q 339 131 329 153 q 369 98 349 110 q 415 86 390 86 q 463 99 440 86 q 502 133 486 113 q 527 178 518 154 q 542 226 536 203 l 638 214 q 622 158 632 186 q 597 105 611 131 q 561 56 582 79 q 515 18 540 33 q 460 -4 489 3 q 403 -11 432 -11 z "},"":{"ha":694,"x_min":10,"x_max":697,"o":"m 11 0 l 179 1021 l 308 1021 l 461 171 q 488 391 475 281 q 519 613 500 501 l 586 1021 l 696 1021 l 528 0 l 399 0 l 246 850 q 219 630 232 740 q 188 408 207 519 l 121 0 l 11 0 m 440 1104 l 378 1160 l 574 1361 l 647 1292 l 440 1104 z "},"":{"ha":694,"x_min":10,"x_max":608,"o":"m 11 0 l 131 722 l 240 722 l 221 608 q 256 660 236 636 q 303 701 276 683 q 359 726 329 718 q 418 733 389 733 q 488 722 454 733 q 547 687 522 711 q 584 631 571 663 q 603 563 597 599 q 606 491 608 528 q 597 418 603 454 l 528 0 l 418 0 l 489 433 q 495 481 493 457 q 494 527 497 504 q 481 571 490 550 q 457 607 472 592 q 420 629 442 622 q 375 636 399 636 q 310 624 343 636 q 253 588 278 613 q 216 532 229 564 q 199 468 203 500 l 121 0 l 11 0 m 390 806 l 328 861 l 524 1063 l 597 993 l 390 806 z "},"":{"ha":694,"x_min":10,"x_max":697,"o":"m 11 0 l 179 1021 l 308 1021 l 461 171 q 488 391 475 281 q 519 613 500 501 l 586 1021 l 696 1021 l 528 0 l 399 0 l 246 850 q 219 630 232 740 q 188 408 207 519 l 121 0 l 11 0 m 199 -342 l 151 -292 q 189 -249 172 -272 q 218 -201 206 -226 q 198 -194 207 -200 q 185 -178 189 -187 q 179 -159 181 -169 q 179 -137 178 -149 q 188 -110 182 -124 q 206 -88 194 -97 q 230 -75 217 -79 q 257 -71 243 -71 q 283 -75 271 -71 q 303 -88 294 -79 q 313 -110 311 -97 q 313 -137 315 -124 q 299 -193 308 -165 q 275 -247 289 -221 q 242 -298 261 -274 q 199 -342 222 -322 z "},"":{"ha":694,"x_min":10,"x_max":608,"o":"m 11 0 l 131 722 l 240 722 l 221 608 q 256 660 236 636 q 303 701 276 683 q 359 726 329 718 q 418 733 389 733 q 488 722 454 733 q 547 687 522 711 q 584 631 571 663 q 603 563 597 599 q 606 491 608 528 q 597 418 603 454 l 528 0 l 418 0 l 489 433 q 495 481 493 457 q 494 527 497 504 q 481 571 490 550 q 457 607 472 592 q 420 629 442 622 q 375 636 399 636 q 310 624 343 636 q 253 588 278 613 q 216 532 229 564 q 199 468 203 500 l 121 0 l 11 0 m 199 -342 l 151 -292 q 189 -249 172 -272 q 218 -201 206 -226 q 198 -194 207 -200 q 185 -178 189 -187 q 179 -159 181 -169 q 179 -137 178 -149 q 188 -110 182 -124 q 206 -88 194 -97 q 230 -75 217 -79 q 257 -71 243 -71 q 283 -75 271 -71 q 303 -88 294 -79 q 313 -110 311 -97 q 313 -137 315 -124 q 299 -193 308 -165 q 275 -247 289 -221 q 242 -298 261 -274 q 199 -342 222 -322 z "},"":{"ha":694,"x_min":10,"x_max":697,"o":"m 11 0 l 179 1021 l 308 1021 l 461 171 q 488 391 475 281 q 519 613 500 501 l 586 1021 l 696 1021 l 528 0 l 399 0 l 246 850 q 219 630 232 740 q 188 408 207 519 l 121 0 l 11 0 m 393 1132 l 293 1326 l 365 1364 l 468 1210 l 625 1371 l 685 1319 l 521 1132 l 393 1132 z "},"":{"ha":694,"x_min":10,"x_max":636,"o":"m 11 0 l 131 722 l 240 722 l 221 608 q 256 660 236 636 q 303 701 276 683 q 359 726 329 718 q 418 733 389 733 q 488 722 454 733 q 547 687 522 711 q 584 631 571 663 q 603 563 597 599 q 606 491 608 528 q 597 418 603 454 l 528 0 l 418 0 l 489 433 q 495 481 493 457 q 494 527 497 504 q 481 571 490 550 q 457 607 472 592 q 420 629 442 622 q 375 636 399 636 q 310 624 343 636 q 253 588 278 613 q 216 532 229 564 q 199 468 203 500 l 121 0 l 11 0 m 343 833 l 243 1028 l 315 1065 l 418 911 l 575 1072 l 635 1021 l 471 833 l 343 833 z "},"":{"ha":694,"x_min":10,"x_max":608,"o":"m 11 0 l 131 722 l 240 722 l 221 608 q 256 660 236 636 q 303 701 276 683 q 359 726 329 718 q 418 733 389 733 q 488 722 454 733 q 547 687 522 711 q 584 631 571 663 q 603 563 597 599 q 606 491 608 528 q 597 418 603 454 l 528 0 l 418 0 l 489 433 q 495 481 493 457 q 494 527 497 504 q 481 571 490 550 q 457 607 472 592 q 420 629 442 622 q 375 636 399 636 q 310 624 343 636 q 253 588 278 613 q 216 532 229 564 q 199 468 203 500 l 121 0 l 11 0 m 128 790 l 81 840 q 117 881 101 858 q 146 929 133 904 q 127 938 136 932 q 113 952 118 943 q 108 972 108 961 q 108 994 107 983 q 117 1021 111 1008 q 135 1043 124 1033 q 159 1057 146 1053 q 186 1061 172 1061 q 212 1057 200 1061 q 232 1043 224 1053 q 242 1021 240 1033 q 242 994 244 1008 q 228 939 238 967 q 204 885 218 911 q 171 834 190 858 q 128 790 151 810 z "},"":{"ha":694,"x_min":10,"x_max":697,"o":"m 11 0 l 179 1021 l 308 1021 l 461 171 q 488 391 475 281 q 519 613 500 501 l 586 1021 l 696 1021 l 528 0 l 399 0 l 246 850 q 219 630 232 740 q 188 408 207 519 l 121 0 l 11 0 m 196 -299 l 196 -201 l 225 -201 q 290 -192 257 -201 q 350 -159 324 -182 q 391 -104 376 -136 q 411 -40 406 -72 l 418 0 l 528 0 l 521 -40 q 504 -108 515 -74 q 472 -174 493 -143 q 423 -229 451 -204 q 362 -270 394 -254 q 294 -292 329 -286 q 224 -299 258 -299 l 196 -299 z "},"":{"ha":694,"x_min":10,"x_max":608,"o":"m 196 -299 l 196 -201 l 225 -201 q 290 -192 257 -201 q 350 -159 324 -182 q 391 -104 376 -136 q 411 -40 406 -72 l 489 433 q 495 481 493 457 q 494 527 497 504 q 481 571 490 550 q 457 607 472 592 q 420 629 442 622 q 375 636 399 636 q 310 624 343 636 q 253 588 278 613 q 216 532 229 564 q 199 468 203 500 l 121 0 l 11 0 l 131 722 l 240 722 l 221 608 q 256 660 236 636 q 303 701 276 683 q 359 726 329 718 q 418 733 389 733 q 488 722 454 733 q 547 687 522 711 q 584 631 571 663 q 603 563 597 599 q 606 491 608 528 q 597 418 603 454 l 521 -40 q 504 -108 515 -74 q 472 -174 493 -143 q 423 -229 451 -204 q 362 -270 394 -254 q 294 -292 329 -286 q 224 -299 258 -299 l 196 -299 z "},"":{"ha":694,"x_min":42,"x_max":682,"o":"m 282 -11 q 204 -3 242 -11 q 135 24 167 4 q 83 75 104 44 q 51 142 61 106 q 42 219 42 179 q 49 297 43 258 l 128 776 q 146 845 133 811 q 178 910 158 879 q 226 965 197 940 q 288 1004 256 989 q 355 1026 319 1019 q 425 1032 390 1032 q 503 1024 465 1032 q 572 997 540 1017 q 624 946 603 976 q 656 878 646 915 q 665 802 665 842 q 658 724 665 763 l 579 244 q 562 176 574 210 q 530 111 550 142 q 481 56 510 81 q 420 17 453 32 q 352 -5 388 1 q 282 -11 317 -11 m 283 86 q 328 90 306 86 q 373 106 351 94 q 412 134 394 117 q 442 172 429 151 q 461 215 454 193 q 472 260 468 238 l 551 739 q 556 787 556 763 q 553 833 557 811 q 538 876 549 856 q 511 909 528 896 q 472 928 494 922 q 424 935 449 935 q 378 931 401 935 q 334 915 356 926 q 295 887 313 904 q 265 849 278 869 q 246 806 253 828 q 235 761 239 783 l 156 282 q 151 234 153 258 q 154 188 150 210 q 169 145 158 165 q 196 112 179 125 q 235 92 213 99 q 283 86 258 86 m 264 1186 l 265 1272 l 682 1272 l 681 1186 l 264 1186 z "},"":{"ha":694,"x_min":42,"x_max":632,"o":"m 282 -11 q 203 -3 242 -11 q 134 26 165 6 q 82 78 103 47 q 52 147 61 110 q 43 224 43 185 q 50 304 43 264 l 78 471 q 94 540 83 506 q 126 606 106 575 q 175 663 147 638 q 236 705 203 689 q 305 727 269 721 q 375 733 340 733 q 453 725 415 733 q 523 696 492 717 q 576 644 554 675 q 606 575 597 613 q 615 498 615 538 q 608 418 614 458 l 581 251 q 563 182 575 217 q 531 116 551 147 q 483 59 511 85 q 422 17 456 33 q 353 -5 389 1 q 282 -11 317 -11 m 283 86 q 329 91 306 86 q 374 108 353 96 q 413 138 396 119 q 443 177 431 156 q 463 222 456 199 q 472 267 469 244 l 500 433 q 506 483 504 458 q 503 530 507 507 q 490 574 500 553 q 462 609 479 594 q 422 630 444 624 q 375 636 400 636 q 328 631 353 636 q 283 615 304 626 q 244 585 263 603 q 214 545 226 567 q 195 501 201 524 q 185 456 189 478 l 157 289 q 151 240 153 264 q 154 192 150 215 q 169 149 158 169 q 196 113 179 128 q 235 92 213 99 q 283 86 258 86 m 214 888 l 215 974 l 632 974 l 631 888 l 214 888 z "},"":{"ha":694,"x_min":42,"x_max":704,"o":"m 282 -11 q 204 -3 242 -11 q 135 24 167 4 q 83 75 104 44 q 51 142 61 106 q 42 219 42 179 q 49 297 43 258 l 128 776 q 146 845 133 811 q 178 910 158 879 q 226 965 197 940 q 288 1004 256 989 q 355 1026 319 1019 q 425 1032 390 1032 q 503 1024 465 1032 q 572 997 540 1017 q 624 946 603 976 q 656 878 646 915 q 665 802 665 842 q 658 724 665 763 l 579 244 q 562 176 574 210 q 530 111 550 142 q 481 56 510 81 q 420 17 453 32 q 352 -5 388 1 q 282 -11 317 -11 m 283 86 q 328 90 306 86 q 373 106 351 94 q 412 134 394 117 q 442 172 429 151 q 461 215 454 193 q 472 260 468 238 l 551 739 q 556 787 556 763 q 553 833 557 811 q 538 876 549 856 q 511 909 528 896 q 472 928 494 922 q 424 935 449 935 q 378 931 401 935 q 334 915 356 926 q 295 887 313 904 q 265 849 278 869 q 246 806 253 828 q 235 761 239 783 l 156 282 q 151 234 153 258 q 154 188 150 210 q 169 145 158 165 q 196 112 179 125 q 235 92 213 99 q 283 86 258 86 m 457 1132 q 376 1142 415 1132 q 310 1179 338 1153 q 275 1245 283 1206 q 274 1326 267 1285 l 371 1326 q 372 1282 368 1304 q 392 1245 376 1260 q 428 1225 407 1231 q 471 1219 449 1219 q 517 1225 493 1219 q 560 1245 540 1231 q 592 1282 579 1260 q 607 1326 604 1304 l 704 1326 q 676 1245 697 1285 q 620 1179 656 1206 q 542 1142 585 1153 q 457 1132 499 1132 z "},"":{"ha":694,"x_min":42,"x_max":656,"o":"m 282 -11 q 203 -3 242 -11 q 134 26 165 6 q 82 78 103 47 q 52 147 61 110 q 43 224 43 185 q 50 304 43 264 l 78 471 q 94 540 83 506 q 126 606 106 575 q 175 663 147 638 q 236 705 203 689 q 305 727 269 721 q 375 733 340 733 q 453 725 415 733 q 523 696 492 717 q 576 644 554 675 q 606 575 597 613 q 615 498 615 538 q 608 418 614 458 l 581 251 q 563 182 575 217 q 531 116 551 147 q 483 59 511 85 q 422 17 456 33 q 353 -5 389 1 q 282 -11 317 -11 m 283 86 q 329 91 306 86 q 374 108 353 96 q 413 138 396 119 q 443 177 431 156 q 463 222 456 199 q 472 267 469 244 l 500 433 q 506 483 504 458 q 503 530 507 507 q 490 574 500 553 q 462 609 479 594 q 422 630 444 624 q 375 636 400 636 q 328 631 353 636 q 283 615 304 626 q 244 585 263 603 q 214 545 226 567 q 195 501 201 524 q 185 456 189 478 l 157 289 q 151 240 153 264 q 154 192 150 215 q 169 149 158 169 q 196 113 179 128 q 235 92 213 99 q 283 86 258 86 m 407 833 q 326 844 365 833 q 260 881 288 854 q 225 947 233 907 q 224 1028 217 986 l 321 1028 q 322 983 318 1006 q 342 947 326 961 q 378 926 357 932 q 421 921 399 921 q 467 926 443 921 q 510 947 490 932 q 542 983 529 961 q 557 1028 554 1006 l 654 1028 q 626 947 647 986 q 570 881 606 907 q 492 844 535 854 q 407 833 449 833 z "}}}
